<svg width="1440" height="1320" viewBox="0 0 1440 1320" fill="none" xmlns="http://www.w3.org/2000/svg">
<g clip-path="url(#clip0_330_981)">
<g opacity="0.85">
<path opacity="0.03" d="M203.389 336.486C318.493 251.146 434.445 174.136 572.437 120.369C608.867 105.094 643.889 99.08 679.416 95.9738C715.443 95.7865 752.963 104.368 783.748 126.107C787.666 131.445 794.009 133.353 800.847 138.192C832.626 165.78 855.659 194.873 885.019 225.881C920.721 258.796 950.092 289.808 985.29 319.816C1034.17 359.49 1083.97 386.987 1141.51 407.131C1266.36 451.768 1395.87 453.541 1526.28 443.15C1579.81 439.959 1630.93 440.192 1684.97 439.909C1697.15 440.817 1709.31 441.732 1721.99 445.56C1822.31 452.347 1913.46 475.746 2002.8 523.483C2009.63 528.321 2018.4 526.81 2025.23 531.649C2050.17 554.399 2076.03 564.985 2100.47 584.816C2177.21 646.739 2245.2 710.167 2312.3 777.577" fill="#3BB763"/>
<path opacity="0.0552" d="M1414.18 453.819C1375.99 452.461 1339.25 449.218 1305 444.191C1272.83 439.471 1241.85 433.023 1212.9 425.041C1208.68 423.873 1204.51 422.606 1200.32 421.357C1266.3 440.973 1340.45 451.829 1424.09 454.075C1420.8 453.991 1417.45 453.933 1414.18 453.819Z" fill="#3BB763"/>
<path opacity="0.0552" d="M1147.21 402.978C1152.74 405.182 1158.34 407.308 1164 409.363C1158.34 407.297 1152.74 405.17 1147.21 402.978Z" fill="#3BB763"/>
<path opacity="0.0552" d="M1167.53 410.643C1177.82 414.322 1188.31 417.755 1199.03 420.966C1188.35 417.771 1177.84 414.332 1167.53 410.643Z" fill="#3BB763"/>
<path opacity="0.0552" d="M1601.82 449.795C1582.57 450.082 1562.91 450.818 1542.8 451.987C1513.02 453.744 1483.99 454.605 1456.06 454.567C1445.54 454.559 1435.23 454.368 1425.05 454.104C1462.38 455.08 1501.59 454.357 1542.8 451.93C1562.79 450.755 1582.5 450.08 1601.82 449.795Z" fill="#3BB763"/>
<path opacity="0.0552" d="M521.992 154.771C541.49 145.827 560.227 138.098 577.688 131.805C594.765 125.65 611.205 120.653 626.562 116.938C641.505 113.335 655.956 110.815 669.507 109.477C682.62 108.182 695.37 107.93 707.402 108.731C742.617 111.079 773.87 122.232 805.776 143.837C818.958 152.765 832.368 163.485 847.977 177.582C861.886 190.145 875.773 203.774 890.481 218.2C902.103 229.613 914.121 241.396 926.887 253.384C953.287 278.148 981.895 304.434 1015.81 329.539C1053.97 357.796 1093.16 380.269 1135.61 398.229C1138.35 399.386 1141.13 400.53 1143.91 401.646C1141.14 400.519 1138.3 399.446 1135.56 398.277C1093.11 380.317 1053.91 357.851 1015.74 329.582C981.839 304.465 953.226 278.191 926.815 253.422C914.049 241.434 902.036 229.639 890.409 218.238C875.705 203.801 861.819 190.171 847.904 177.62C832.29 163.535 818.892 152.82 805.71 143.892C773.828 122.297 742.586 111.149 707.383 108.806C695.35 108.005 682.612 108.263 669.511 109.562C655.972 110.906 641.526 113.414 626.583 117.018C611.232 120.72 594.786 125.729 577.714 131.872C560.254 138.166 541.516 145.894 522.023 154.827C440.931 192.017 339.953 253.107 213.319 341.572L213.259 341.518C339.91 253.046 440.888 191.956 521.992 154.771Z" fill="#3BB763"/>
<path opacity="0.0803" d="M506.019 176.681C543.014 158.831 575.766 145.551 606.128 136.067C635.25 126.985 661.277 121.68 685.707 119.864C708.676 118.157 729.721 119.571 750.027 124.209C768.503 128.43 786.27 135.302 804.326 145.252C838.345 163.974 868.727 190.833 903.89 221.93C915.611 232.296 927.738 243.009 940.592 253.945C946.105 258.617 951.525 263.277 957.267 268.191C1058.26 354.77 1182.33 461.152 1483.36 461.54C1503.87 461.571 1525.21 461.104 1547.42 460.109C1579.5 458.667 1611 458.352 1641.04 459.183C1670.11 459.98 1698.73 461.874 1726.1 464.808C1752.48 467.628 1778.52 471.517 1803.52 476.338C1827.49 480.974 1851.29 486.625 1874.22 493.153C1917.16 505.358 1958.03 520.691 1999.15 540.031C2034.7 556.745 2070.37 576.476 2108.22 600.346C2170.88 639.861 2226.83 684.013 2280.94 726.7C2303.2 744.265 2325.26 761.661 2347.58 778.622L2347.6 778.815C2324.95 761.619 2302.65 744.022 2280.82 726.798C2226.7 684.099 2170.76 639.959 2108.1 600.449C1996.13 529.835 1849.76 459.204 1608.17 458.893C1588.57 458.871 1568.31 459.303 1547.42 460.247C1505.22 462.142 1464.56 462.167 1426.56 460.307C1390.63 458.554 1355.98 455.069 1323.58 449.942C1293.2 445.142 1263.83 438.737 1236.29 430.929C1210.76 423.688 1185.9 414.973 1162.43 405.035C1122.03 387.923 1084 366.563 1046.21 339.742C1012.98 316.167 984.586 291.824 957.128 268.284C951.392 263.358 945.966 258.71 940.453 254.037C927.606 243.118 915.473 232.388 903.751 222.023C839.425 165.136 787.723 119.419 704.111 119.314C698.144 119.306 692.018 119.535 685.719 119.995C636.471 123.652 577.721 142.235 506.094 176.798C429.994 213.51 337.479 269.084 223.243 346.67L223.135 346.567C337.376 268.968 429.915 213.405 506.019 176.681Z" fill="#3BB763"/>
<path opacity="0.1055" d="M513.837 187.308C550.674 169.877 583.294 156.832 613.558 147.444C642.659 138.409 668.727 133.011 693.259 130.932C737.117 127.229 775.429 134.398 813.846 153.512C848.95 170.98 881.003 196.495 918.101 226.028C929.676 235.239 941.65 244.779 954.291 254.517C967.408 264.605 980.342 275.073 994.021 286.164C1094.86 367.826 1219.24 468.555 1509.66 468.927C1523.4 468.943 1537.53 468.739 1552.02 468.295C1566.84 467.836 1581.43 467.627 1595.82 467.64C1697.43 467.771 1789.04 479.702 1874.67 503.878C1882.36 506.043 1889.99 508.353 1897.58 510.716C1814.19 484.802 1716.36 467.997 1595.62 467.845C1581.42 467.822 1566.87 468.034 1552.03 468.495C1409.09 472.876 1291.6 454.951 1192.85 413.72C1154.43 397.681 1117.93 377.778 1081.25 352.862C1048.96 330.937 1020.94 308.236 993.838 286.293C980.154 275.214 967.225 264.734 954.109 254.646C941.467 244.908 929.488 235.379 917.918 226.157C880.82 196.623 848.779 171.114 813.705 153.673C775.329 134.592 737.074 127.42 693.274 131.12C643.953 135.29 585.299 153.72 513.959 187.474C438.661 223.099 346.82 276.832 233.173 351.757L233.005 351.599C346.681 276.673 438.527 222.928 513.837 187.308Z" fill="#3BB763"/>
<path opacity="0.1306" d="M522.013 197.785C558.733 180.778 591.245 167.979 621.421 158.664C650.525 149.686 676.646 144.199 701.287 141.903C745.474 137.772 784.457 144.12 824.006 161.874C860.267 178.147 894.132 202.408 933.342 230.484C944.451 238.44 955.932 246.658 967.996 255.078C988.16 269.119 1007.73 284.475 1028.46 300.738C1128.4 379.163 1252.12 476.258 1534.85 476.63C1542 476.645 1549.3 476.583 1556.65 476.462C1564.73 476.329 1572.74 476.274 1580.72 476.289C1687.37 476.425 1783.93 489.003 1875.15 514.59C1953.31 536.5 2028.32 567.795 2118.36 616.037C2184.26 651.35 2243.59 689.558 2300.96 726.497C2315.11 735.619 2329.21 744.686 2343.31 753.656L2343.38 754.048C2329.25 745.051 2315.06 735.93 2300.74 726.708C2243.37 689.769 2184.05 651.566 2118.16 616.258C1982.72 543.676 1823.8 476.884 1580.05 476.567C1572.35 476.562 1564.54 476.619 1556.67 476.736C1549.17 476.864 1541.76 476.914 1534.41 476.898C1411.41 476.739 1308.36 458.579 1220 421.536C1183.49 406.231 1148.55 387.369 1113.2 363.861C1082.03 343.143 1054.69 321.681 1028.25 300.938C1007.53 284.68 987.957 269.323 967.794 255.283C955.73 246.863 944.249 238.644 933.14 230.688C854.155 174.104 797.055 133.231 701.363 142.174C651.956 146.795 593.362 165.056 522.231 198.021C447.727 232.544 356.432 284.504 243.161 356.869L242.945 356.662C356.186 284.27 447.481 232.309 522.013 197.785Z" fill="#3BB763"/>
<path opacity="0.1558" d="M709.917 152.748C806.456 142.963 866.631 181.686 949.895 235.295C960.102 241.874 970.674 248.67 981.689 255.634C1008.46 272.497 1033.8 292.137 1060.63 312.924C1164.32 393.271 1281.77 484.287 1558.88 484.647C1560.54 484.642 1562.24 484.652 1563.91 484.647C1676 484.794 1777.98 498.092 1875.59 525.27C1973.12 552.424 2055.58 590.355 2123.39 623.893C2189.77 656.721 2249.83 691.631 2307.91 725.387C2319.23 731.971 2330.52 738.526 2341.8 745.032L2341.87 745.498C2330.52 738.944 2319.13 732.33 2307.65 725.652C2249.57 691.895 2189.53 656.991 2123.15 624.168C1954.65 540.851 1794.95 485.277 1563.94 484.984C1562.28 484.989 1560.59 484.983 1558.91 484.983C1435.63 484.826 1332.74 466.43 1244.42 428.778C1166.81 395.689 1110.23 351.842 1060.31 313.163C1033.5 292.38 1008.17 272.758 981.404 255.9C970.389 248.936 959.828 242.145 949.61 235.56C866.429 182.016 806.336 143.329 709.962 153.09C610.334 163.188 473.69 225.645 253.038 361.946L252.779 361.678C473.492 225.333 610.204 162.851 709.917 152.748Z" fill="#3BB763"/>
<path opacity="0.181" d="M539.688 218.219C611.796 186.3 668.845 168.909 719.25 163.457C764.215 158.607 804.788 163.476 846.924 178.794C885.866 192.954 923.999 214.989 968.144 240.506C976.921 245.573 985.994 250.826 995.364 256.168C1028.43 274.987 1058.68 298.475 1090.7 323.332C1190.62 400.893 1303.87 488.806 1565.86 492.805C1675.78 494.486 1777.25 508.575 1876.05 535.903C1970.69 562.072 2053.27 597.415 2128.44 631.703C2194.29 661.751 2254.21 693.163 2312.16 723.547C2321.73 728.559 2331.22 733.535 2340.66 738.461L2340.75 738.99C2331.16 733.984 2321.54 728.952 2311.87 723.882C2253.93 693.514 2194.01 662.102 2128.17 632.059C1978.72 563.86 1812.19 496.96 1565.83 493.201C1448.95 491.411 1351.09 472.569 1266.69 435.584C1192.9 403.246 1138.4 360.949 1090.33 323.63C1058.32 298.778 1028.08 275.307 995.048 256.504C985.678 251.162 976.605 245.909 967.828 240.842C879.958 190.063 816.479 153.375 719.309 163.86C668.967 169.298 611.975 186.687 539.922 218.574C466.967 250.859 376.374 299.425 262.951 367.039L262.644 366.722C376.101 299.095 466.71 250.522 539.688 218.219Z" fill="#3BB763"/>
<path opacity="0.2061" d="M729.463 174.009C774.957 168.848 816.491 173.093 860.174 187.376C900.734 200.627 941.48 221.749 988.666 246.204C995.311 249.644 1002.1 253.162 1009.07 256.758C1048.14 276.819 1082.51 303.861 1118.9 332.478C1214.65 407.809 1323.19 493.193 1570.5 501.023C1677.14 504.395 1777.24 519.294 1876.55 546.58C1962.59 570.21 2041.5 600.855 2133.51 639.608C2197.54 666.571 2256.24 694.297 2313.01 721.114C2322.02 725.374 2330.96 729.591 2339.87 733.781L2339.98 734.372C2330.94 730.113 2321.86 725.834 2312.71 721.512C2255.95 694.7 2197.25 666.974 2133.23 640.017C1963.66 568.602 1804.27 508.897 1570.49 501.493C1460.1 498.002 1367.44 478.587 1287.19 442.165C1216.97 410.287 1166.9 370.899 1118.5 332.818C1082.14 304.211 1047.8 277.197 1008.77 257.156C1001.81 253.565 995.009 250.042 988.364 246.602C891.622 196.475 827.707 163.369 729.583 174.496C630.252 185.759 497.952 243.034 272.922 372.158L272.572 371.78C497.65 242.579 630.029 185.283 729.463 174.009Z" fill="#3BB763"/>
<path opacity="0.2313" d="M559.767 237.828C632.411 207.293 689.92 190.286 740.763 184.315C840.383 172.619 908.721 204.352 1012.18 252.401L1022.75 257.309C1067.62 278.044 1105.37 308.411 1145.34 340.568C1236.94 414.26 1340.78 497.788 1575.12 509.185C1679.76 514.278 1775.69 529.513 1877 557.151C1967.45 581.824 2052.33 613.932 2138.55 647.424C2199.18 670.987 2255.26 694.83 2309.51 717.902C2319.51 722.155 2329.42 726.366 2339.3 730.551L2339.42 731.203C2329.39 726.952 2319.32 722.674 2309.19 718.364C2254.96 695.309 2198.87 671.449 2138.24 647.891C1953.54 576.137 1794.8 520.398 1575.07 509.709C1470.43 504.621 1382.44 484.588 1306.05 448.446C1239.18 416.815 1191.22 378.232 1144.85 340.924C1104.91 308.794 1067.19 278.454 1022.4 257.755L1011.83 252.847C908.499 204.855 840.243 173.158 740.868 184.836C641.305 196.529 512.866 250.476 282.817 377.229L282.424 376.79C399.348 312.358 487.471 268.209 559.767 237.828Z" fill="#3BB763"/>
<path opacity="0.2565" d="M569.951 247.654C643.018 217.711 700.836 200.827 751.915 194.513C853.89 181.887 926.513 212.116 1036.43 257.842C1086.91 278.763 1127.39 312.321 1170.26 347.844C1257.75 420.379 1356.94 502.583 1579.73 517.347C1680 523.988 1773.81 539.782 1874.96 567.015C1965.04 591.272 2049.39 621.492 2138.66 653.487L2143.61 655.256C2198.89 675.066 2250.6 694.852 2300.62 713.991C2313.58 718.945 2326.35 723.833 2338.99 728.653L2339.11 729.363C2326.25 724.462 2313.31 719.513 2300.28 714.523C2250.26 695.389 2198.56 675.592 2143.28 655.793L2138.34 654.03C1963.88 591.527 1799.1 532.491 1579.67 517.951C1356.59 503.167 1257.3 420.876 1169.69 348.266C1126.88 312.781 1086.44 279.255 1036.06 258.381C926.283 212.699 853.777 182.522 752.029 195.108C653.948 207.246 525.159 259.738 292.73 382.322L292.305 381.827C410.659 319.411 498.884 276.775 569.951 247.654Z" fill="#3BB763"/>
<path opacity="0.2816" d="M758.055 205.265C860.538 190.57 935.796 215.882 1050.1 258.405C1106.04 279.123 1148.65 315.734 1193.78 354.504C1277.28 426.251 1371.91 507.573 1584.36 525.532C1784.99 542.502 1942.88 594.875 2110.07 650.332C2122.84 654.562 2135.69 658.828 2148.64 663.112C2196.15 678.792 2241.23 694.319 2284.82 709.345C2303.12 715.653 2321.09 721.833 2338.85 727.904L2338.98 728.676C2321.08 722.555 2302.94 716.314 2284.47 709.945C2240.89 694.925 2195.82 679.398 2148.3 663.717C2135.34 659.445 2122.49 655.179 2109.72 650.949C1942.61 595.523 1784.76 543.154 1584.26 526.2C1371.49 508.212 1276.73 426.792 1193.15 354.952C1148.08 316.236 1105.52 279.663 1049.74 259.012C935.593 216.561 860.435 191.279 758.207 205.933C661.535 219.784 538.063 268.977 302.637 387.427L302.175 386.859C537.719 268.364 661.27 219.149 758.055 205.265Z" fill="#3BB763"/>
<path opacity="0.3068" d="M764.202 216.033C813.67 207.986 857.829 208.093 907.38 216.342C953.694 224.07 1001.56 238.37 1063.78 258.955C1125.04 279.117 1169.26 318.715 1216.07 360.622C1295.66 431.885 1385.87 512.668 1589 533.704C1770.29 552.477 1919.36 598.6 2077.17 647.416C2102.04 655.105 2127.75 663.065 2153.71 670.943C2190.48 682.114 2225.97 693.14 2260.29 703.803C2287.09 712.134 2313.25 720.255 2338.91 728.113L2339.06 728.947C2313.25 721.051 2286.91 712.869 2259.94 704.49C2225.62 693.826 2190.13 682.8 2153.38 671.635C2127.42 663.745 2101.71 655.797 2076.84 648.107C1919.09 599.306 1770.08 553.22 1588.9 534.442C1385.43 513.365 1295.09 432.473 1215.38 361.101C1168.65 319.259 1124.51 279.732 1063.44 259.63C951.419 222.575 870.087 199.557 764.419 216.744C657.155 234.191 522.87 291.973 312.59 392.523L312.097 391.9C522.449 291.311 656.807 233.492 764.202 216.033Z" fill="#3BB763"/>
<path opacity="0.3319" d="M770.342 226.785C872.748 208.184 950.969 222.516 1077.45 259.513C1143.92 278.847 1189.24 321.336 1237.24 366.312C1313.05 437.361 1398.96 517.878 1593.61 541.895C1755.16 561.826 1893.39 602.058 2039.73 644.642C2078.15 655.831 2117.88 667.388 2158.73 678.794C2181.08 685.035 2202.96 691.195 2224.43 697.227C2263.92 708.331 2302.03 719.043 2339.07 729.176L2339.23 730.056C2302.11 719.904 2263.9 709.173 2224.1 697.975C2202.63 691.944 2180.75 685.784 2158.4 679.543C2117.54 668.131 2077.81 656.575 2039.39 645.385C1893.09 602.806 1754.91 562.582 1593.47 542.669C1398.43 518.608 1312.38 437.959 1236.46 366.807C1188.56 321.917 1143.31 279.5 1077.09 260.251C950.801 223.309 872.718 209.01 770.573 227.558C668.031 246.183 544.379 297.24 322.48 397.606L321.96 396.915C543.949 296.505 667.664 245.434 770.342 226.785Z" fill="#3BB763"/>
<path opacity="0.3571" d="M776.477 237.549C827.524 227.319 874.572 224.494 924.609 228.638C970.192 232.422 1019.99 241.815 1091.12 260.075C1162.69 278.331 1206.6 321.568 1257.43 371.626C1329.57 442.66 1411.31 523.182 1598.26 550.084C1739.6 570.428 1864.97 605.13 1997.69 641.88C2050.9 656.608 2105.91 671.84 2163.78 686.649L2173.92 689.241C2231.77 704.051 2286.64 718.104 2339.4 730.97L2339.56 731.907C2286.64 719.009 2231.61 704.929 2173.58 690.07L2163.45 687.466C2105.57 672.641 2050.54 657.415 1997.34 642.687C1864.66 605.957 1739.33 571.271 1598.08 550.929C1410.73 523.959 1328.83 443.313 1256.58 372.159C1205.85 322.205 1162.04 279.066 1090.79 260.893C966.815 229.084 884.206 216.867 776.775 238.393C671.737 259.439 539.501 314.546 332.405 402.733L331.877 401.968C539.016 313.744 671.32 258.611 776.477 237.549Z" fill="#3BB763"/>
<path opacity="0.3823" d="M393.314 386.417C771.746 235.346 850.502 203.919 1104.78 260.615C1181.36 277.579 1225.55 323.471 1276.72 376.598C1345.3 447.808 1423.02 528.51 1602.88 558.263C1723.65 578.241 1834.18 607.73 1951.21 638.942C2020.22 657.354 2091.59 676.392 2168.81 694.488C2228.51 708.483 2285.24 721.526 2339.76 733.254L2339.96 734.418C2284.68 722.451 2227.72 709.265 2168.45 695.381C2091.21 677.275 2019.84 658.236 1950.8 639.825C1833.82 608.617 1723.32 579.144 1602.63 559.174C1422.34 529.355 1344.46 448.5 1275.76 377.165C1224.71 324.163 1180.64 278.404 1104.44 261.525C850.602 204.927 771.925 236.334 393.835 387.263C377.237 393.882 360.073 400.739 342.278 407.822L341.74 406.983C359.547 399.906 376.711 393.048 393.314 386.417Z" fill="#3BB763"/>
<path opacity="0.4074" d="M483.166 362.815C634.382 305.887 734.273 268.266 824.603 251.459C913.264 234.95 995.651 237.673 1118.45 261.173C1199.96 276.665 1244.1 325.152 1295.24 381.287C1360.38 452.821 1434.21 533.886 1607.53 566.441C1707.44 585.214 1801.34 609.729 1900.74 635.683C1986.32 658.035 2074.82 681.147 2173.86 702.326C2231.82 714.726 2287.09 726.087 2340.27 736.167L2340.49 737.422C2287.62 727.287 2232.33 715.876 2173.52 703.281C2074.46 682.092 1985.95 658.975 1900.34 636.624C1800.95 610.675 1707.09 586.164 1607.23 567.4C1433.45 534.764 1359.47 453.523 1294.19 381.858C1243.21 325.876 1199.18 277.538 1118.14 262.126C876.4 215.865 793.207 247.178 483.712 363.699C444.616 378.426 400.3 395.096 352.196 412.903L351.648 411.99C399.754 394.212 444.064 377.525 483.166 362.815Z" fill="#3BB763"/>
<path opacity="0.4326" d="M557.111 348.191C807.901 258.158 901.738 224.46 1132.1 261.713C1218.47 275.56 1262.29 326.604 1313.05 385.718C1374.86 457.696 1444.91 539.284 1612.17 574.614C1691.15 591.297 1766.96 611.035 1847.2 631.923C1949.65 658.596 2055.58 686.163 2178.89 710.171C2235.12 721.119 2288.96 731.122 2340.92 739.949L2341.1 740.92C2289.08 732.17 2235.08 722.203 2178.57 711.217C2055.22 687.205 1949.25 659.623 1846.78 632.951C1766.54 612.068 1690.77 592.346 1611.82 575.661C1444.06 540.224 1373.85 458.466 1311.91 386.333C1261.33 327.423 1217.64 276.538 1131.83 262.78C901.895 225.592 808.164 259.239 557.685 349.171C501.292 369.411 437.384 392.357 362.11 418.025L361.565 417.043C436.823 391.381 500.73 368.436 557.111 348.191Z" fill="#3BB763"/>
<path opacity="0.4577" d="M617.744 340.156C723.287 303.508 799.552 277.02 877.985 262.967C959.761 248.308 1039.85 248.101 1145.77 262.27C1236.91 274.344 1280.16 327.912 1330.23 389.926C1388.8 462.471 1455.2 544.697 1616.81 582.803C1675.06 596.53 1731.77 611.549 1791.82 627.445C1910.84 658.951 2033.93 691.54 2183.93 718.004C2238.55 727.637 2290.92 736.21 2341.58 743.662L2341.78 744.9C2292.64 737.657 2240.21 729.087 2183.61 719.107C2033.52 692.619 1910.4 660.031 1791.35 628.509C1731.32 612.612 1674.62 597.609 1616.39 583.877C1454.26 545.652 1387.71 463.233 1329.01 390.517C1279.12 328.729 1236.04 275.37 1145.53 263.381C926.674 234.122 830.036 267.672 618.337 341.187C549.241 365.181 470.93 392.373 372.006 423.124L371.469 422.062C470.371 391.329 548.665 364.144 617.744 340.156Z" fill="#3BB763"/>
<path opacity="0.4829" d="M667.492 336.79C757.098 306.214 827.87 282.066 902.246 268.43C981.191 253.946 1060.51 252.224 1159.43 262.828C1255.3 273.004 1297.73 329.039 1346.87 393.92C1402.31 467.124 1465.14 550.11 1621.46 590.981C1659.46 600.919 1696.75 611.178 1736.22 622.031C1870.84 659.058 2010.02 697.35 2188.95 725.843C2241.93 734.278 2292.91 741.606 2342.28 747.831L2342.52 749.239C2293.98 743.043 2242.86 735.654 2188.65 727.025C2009.62 698.515 1870.37 660.208 1735.72 623.166C1696.25 612.312 1658.97 602.048 1620.98 592.126C1464.11 551.109 1401.13 467.93 1345.55 394.527C1296.62 329.916 1254.36 274.114 1159.23 264.011C950.286 241.591 850.072 275.799 668.116 337.877C589.688 364.64 500.791 394.97 381.907 428.212L381.389 427.074C500.201 393.871 589.08 363.547 667.492 336.79Z" fill="#3BB763"/>
<path opacity="0.5081" d="M708.458 336.688C867.286 282.593 972.219 246.85 1173.07 263.374C1273.62 271.536 1315.04 330.018 1363 397.721C1415.39 471.688 1474.77 555.513 1626.1 599.17C1644.67 604.521 1663.31 609.977 1682.15 615.475C1830.62 658.85 1984.16 703.706 2193.99 733.687C2245.38 741.03 2294.97 747.325 2343.1 752.596L2343.33 753.97C2295.79 748.751 2246.11 742.444 2193.7 734.943C1983.73 704.941 1830.13 660.058 1681.58 616.664C1662.74 611.166 1644.1 605.71 1625.54 600.359C1473.65 556.54 1414.11 472.493 1361.58 398.338C1313.84 330.94 1272.61 272.741 1172.91 264.642C972.481 248.155 867.712 283.844 709.115 337.86C623.72 366.941 526.939 399.897 391.787 433.346L391.3 432.139C526.373 398.71 623.109 365.762 708.458 336.688Z" fill="#3BB763"/>
<path opacity="0.5332" d="M742.507 338.857C887.86 288.776 992.858 252.6 1186.72 263.938C1291.9 269.996 1332.13 330.87 1378.72 401.352C1428.15 476.136 1484.18 560.911 1630.75 607.36L1631.53 607.609C1783.96 655.919 1956.73 710.67 2199.02 741.544C2248.93 747.897 2297.18 753.266 2343.96 757.605L2344.19 758.968C2297.37 754.619 2248.97 749.258 2198.75 742.867C1956.28 711.979 1783.42 657.187 1630.9 608.853L1630.11 608.604C1482.94 561.961 1426.77 476.969 1377.2 401.968C1330.86 331.847 1290.82 271.278 1186.6 265.267C993.191 253.936 888.322 290.071 743.195 340.084C652.494 371.336 549.687 406.76 401.655 438.447L401.204 437.158C549.117 405.488 651.868 370.095 742.507 338.857Z" fill="#3BB763"/>
<path opacity="0.5584" d="M771.157 342.582C905.763 295.149 1012.12 257.712 1200.39 264.484C1310.16 268.359 1349.05 331.581 1394.08 404.8C1440.63 480.477 1493.38 566.267 1635.43 615.536C1786.12 667.817 1954.14 721.213 2204.06 749.365C2252.39 754.809 2299.25 759.225 2344.84 762.676L2345.11 764.237C2299.49 760.719 2252.46 756.237 2203.81 750.762C1953.66 722.581 1785.5 669.14 1634.7 616.824C1492.06 567.343 1439.16 481.309 1392.47 405.415C1347.69 332.602 1309.02 269.713 1200.31 265.89C1012.43 259.082 906.297 296.503 771.905 343.864C677.008 377.302 569.458 415.203 411.55 443.547L411.148 442.18C568.873 413.868 676.339 376 771.157 342.582Z" fill="#3BB763"/>
<path opacity="0.5835" d="M795.594 347.424C921.353 301.758 1030.02 262.281 1214.04 265.048C1328.38 266.65 1365.79 332.21 1409.12 408.132C1452.85 484.761 1502.43 571.619 1640.08 623.742C1783.57 678.072 1951.82 731.847 2209.09 757.221C2255.95 761.848 2301.44 765.481 2345.79 768.213L2346.06 769.803C2301.54 766.993 2255.89 763.317 2208.85 758.681C1951.31 733.274 1782.89 679.45 1639.26 625.058C1500.99 572.701 1451.26 485.581 1407.4 408.729C1364.34 333.275 1327.15 268.094 1214.01 266.515C1030.31 263.848 921.93 303.173 796.391 348.755C698.091 384.451 586.678 424.894 421.429 448.653L421.091 447.203C586.096 423.491 697.401 383.07 795.594 347.424Z" fill="#3BB763"/>
<path opacity="0.6087" d="M816.749 353.053C934.984 308.592 1046.67 266.607 1227.67 265.606C1228.46 265.603 1229.21 265.602 1229.98 265.605C1347 265.763 1382.65 333.256 1423.87 411.334C1464.85 488.959 1511.31 576.956 1644.71 631.943C1765.14 681.589 1938.71 741.586 2214.09 765.078C2259.49 768.95 2303.63 771.886 2346.74 773.99L2347.01 775.592C2303.75 773.461 2259.44 770.505 2213.87 766.617C1938.16 743.09 1764.37 683.023 1643.79 633.31C1509.75 578.055 1463.14 489.796 1422.04 411.925C1379.41 331.183 1345.68 267.291 1230.05 267.148C1229.27 267.151 1228.47 267.148 1227.67 267.158C1047.1 268.149 935.616 310.073 817.571 354.45C711.478 394.337 601.775 435.592 431.246 453.773L430.979 452.257C601.24 434.083 710.791 392.887 816.749 353.053Z" fill="#3BB763"/>
<path opacity="0.6339" d="M440.962 457.255C614.685 445.42 726.86 401.608 835.342 359.255C952.11 313.656 1062.4 270.592 1241.33 266.146C1297.96 264.715 1339.17 278.016 1371.06 308.032C1399.81 335.095 1418.57 373.609 1438.42 414.396C1476.72 493.071 1520.15 582.231 1649.39 640.119C1817.88 715.588 1993.59 756.538 2219.13 772.899C2263.1 776.095 2305.93 778.395 2347.79 779.934L2348.06 781.564C2305.9 780.034 2262.89 777.68 2218.95 774.494C1993.1 758.096 1817.12 717.084 1648.38 641.502C1518.49 583.329 1474.93 493.872 1436.5 414.946C1395.61 330.973 1363.36 264.646 1241.38 267.736C1062.91 272.171 952.805 315.151 836.24 360.672C727.583 403.102 615.245 446.967 441.117 458.834L440.962 457.255Z" fill="#3BB763"/>
<path opacity="0.659" d="M450.912 462.295C626.783 457.336 741.225 410.863 851.909 365.932C962.722 320.931 1077.31 274.411 1254.99 266.727C1382.87 261.129 1413.74 330.092 1452.8 417.393C1488.48 497.132 1528.93 587.521 1654.07 648.336C1811.18 724.678 1992.34 766.766 2224.17 780.772C2266.69 783.344 2308.21 785.094 2348.85 786.062L2349.15 787.805C2308.31 786.801 2266.63 785.008 2224.02 782.44C1991.83 768.416 1810.38 726.251 1652.95 649.758C1527.16 588.642 1486.59 497.96 1450.79 417.947C1412.03 331.307 1381.46 262.885 1255.12 268.393C1077.91 276.06 963.524 322.502 852.907 367.407C742.015 412.429 627.354 458.987 451.015 463.962L450.912 462.295Z" fill="#3BB763"/>
<path opacity="0.6842" d="M460.879 467.328C464.729 467.379 468.549 467.404 472.346 467.417C642.629 467.637 751.63 421.612 866.86 372.943C977.325 326.293 1091.54 278.056 1268.63 267.291C1401.02 259.182 1430.16 330.289 1467.02 420.323C1500.13 501.174 1537.66 592.808 1658.74 656.553C1807.63 734.936 1988.9 776.903 2229.2 788.629C2270.31 790.632 2310.55 791.888 2349.94 792.416L2350.23 794.109C2310.46 793.61 2270.08 792.361 2229.06 790.37C1988.33 778.625 1806.72 736.56 1657.5 658.003C1535.78 593.917 1498.12 501.98 1464.9 420.853C1428.33 331.561 1399.46 261.037 1268.8 269.029C1092.18 279.766 978.17 327.925 867.912 374.485C749.848 424.348 638.306 471.473 460.831 469.082L460.879 467.328Z" fill="#3BB763"/>
<path opacity="0.7094" d="M470.835 472.356C647.911 482.358 760.874 432.743 880.501 380.229C990.959 331.73 1105.2 281.574 1282.27 267.838C1419.23 257.147 1446.53 330.419 1481.14 423.16C1511.73 505.139 1546.39 598.049 1663.4 664.736C1802.75 744.146 1989.46 787.234 2234.21 796.451C2273.97 797.953 2312.88 798.705 2351.02 798.766L2351.34 800.629C2312.84 800.533 2273.77 799.754 2234.1 798.26C1988.88 789.019 1801.75 745.831 1662.04 666.203C1544.4 599.151 1509.6 505.933 1478.91 423.673C1444.6 331.731 1417.51 259.113 1282.5 269.642C1105.89 283.35 991.88 333.409 881.619 381.813C761.69 434.473 648.399 484.195 470.664 474.168L470.835 472.356Z" fill="#3BB763"/>
<path opacity="0.7345" d="M480.814 477.394C657.298 495.285 766.569 445.451 893.084 387.76C998.679 339.601 1118.36 285.029 1295.93 268.39C1437.38 255.103 1462.88 330.511 1495.18 425.995C1523.29 509.117 1555.16 603.322 1668.08 672.941C1800.4 754.517 1987.22 797.485 2239.25 804.296C2267.12 805.047 2294.48 805.438 2321.57 805.465C2331.82 805.48 2342.01 805.424 2352.16 805.336L2352.48 807.227C2342.56 807.304 2332.63 807.377 2322.66 807.359C2295.07 807.317 2267.21 806.932 2239.17 806.16C1986.61 799.341 1799.32 756.235 1666.59 674.409C1553.04 604.396 1521.06 509.865 1492.86 426.466C1460.86 331.872 1435.58 257.146 1296.21 270.249C1119.13 286.836 999.671 341.311 894.283 389.38C767.382 447.25 657.797 497.225 480.507 479.258L480.814 477.394Z" fill="#3BB763"/>
<path opacity="0.7597" d="M490.793 482.432C666.122 508.411 776.723 456.075 904.782 395.487C1010.87 345.295 1131.12 288.4 1309.57 268.954C1455.56 253.012 1479.21 330.598 1509.17 428.821C1534.85 513.09 1563.96 608.594 1672.77 681.151C1797.89 764.576 1984.83 807.43 2244.29 812.145C2281.04 812.708 2317.39 812.649 2353.32 811.973L2353.65 813.865C2332.6 814.266 2311.45 814.5 2290.14 814.479C2274.91 814.46 2259.6 814.336 2244.24 814.094C1984.18 809.367 1796.73 766.372 1671.16 682.636C1561.75 609.672 1531.26 509.659 1506.76 429.28C1477.1 332.015 1453.71 255.189 1309.92 270.884C1131.97 290.272 1011.96 347.047 906.063 397.144C777.562 457.941 666.579 510.445 490.328 484.338L490.793 482.432Z" fill="#3BB763"/>
<path opacity="0.7848" d="M500.778 487.488C674.466 521.675 786.288 466.858 915.757 403.398C1022.53 351.061 1143.54 291.748 1323.22 269.501C1473.77 250.839 1495.55 330.644 1523.1 431.662C1545.24 512.858 1572.8 613.91 1677.43 689.345C1796.49 775.2 1983.55 817.923 2249.29 819.974C2254.73 820.013 2260.11 820.026 2265.51 820.038C2295.63 820.08 2325.27 819.67 2354.48 818.875L2354.83 820.874C2325.36 821.665 2295.64 822.084 2265.66 822.046C2260.22 822.036 2254.74 822.016 2249.27 821.979C1982.86 819.925 1795.24 777.024 1675.69 690.831C1570.47 614.949 1542.82 513.563 1520.59 432.079C1506.58 380.72 1494.49 336.369 1467.17 306.615C1437.42 274.201 1391.81 263.039 1323.61 271.48C1144.46 293.651 1023.68 352.856 917.108 405.086C787.142 468.787 674.894 523.807 500.149 489.418L500.778 487.488Z" fill="#3BB763"/>
<path opacity="0.81" d="M510.769 492.531C682.419 535.031 789.961 480.504 926.108 411.453C1033.71 356.895 1155.65 295.047 1336.85 270.059C1408.25 260.212 1455.54 271.277 1485.65 304.894C1513.05 335.484 1524.16 381.399 1537.03 434.56C1577.15 600.328 1631.89 827.023 2245.04 827.826C2248.09 827.83 2251.26 827.833 2254.34 827.824C2288.75 827.748 2322.51 827.09 2355.72 825.95L2356.06 827.949C2322.42 829.121 2288.55 829.824 2254.36 829.901C2251.21 829.908 2248.08 829.908 2244.95 829.909C1973.81 829.557 1787.5 785.499 1675.58 695.336C1578.53 617.141 1554.08 516.124 1534.45 434.957C1521.64 382.029 1510.58 336.323 1483.51 306.1C1454.06 273.225 1407.62 262.435 1337.35 272.125C1156.68 297.036 1034.96 358.765 927.578 413.221C861.707 446.623 799.491 478.173 733.467 495.373C660.276 514.426 589.275 514.161 509.994 494.537L510.769 492.531Z" fill="#3BB763"/>
</g>
<path opacity="0.14" d="M158.051 236.75L160.684 236.488C199.443 474.352 272.186 611.068 389.593 666.76C527.941 732.391 716.016 677.854 933.79 614.699C1075.47 573.621 1236.05 527.052 1403.17 508.861C1634.46 483.68 1730.39 555.116 1841.44 637.82C1952.56 720.584 2074.13 811.124 2355.25 823.212L2355.54 824.922C2277.72 821.517 2207.97 812.02 2145.74 796.394C2002.08 760.318 1915.76 696.034 1839.61 639.321C1729.06 556.988 1633.58 485.875 1403.54 510.91C1236.71 529.076 1076.26 575.593 934.707 616.642C716.294 679.976 527.66 734.672 388.211 668.527C270.05 612.486 196.923 475.279 158.051 236.75Z" fill="#3BB763"/>
<path opacity="0.1587" d="M173.53 238.011C219.924 467.52 296.841 600.389 415.603 656.178C557.475 722.82 746.797 671.504 966.004 612.1C1099.95 575.799 1251.76 534.651 1410.45 516.564C1642.02 489.939 1738.61 560.106 1850.46 641.358C1960.83 721.541 2081.53 809.208 2355.02 822.049L2355.32 823.776C2280.47 820.201 2213.14 810.949 2152.78 795.95C2010.81 760.681 1924.66 698.095 1848.64 642.876C1737.31 561.989 1641.15 492.128 1410.83 518.619C1252.39 536.677 1100.7 577.79 966.87 614.062C747.025 673.646 557.165 725.102 414.216 657.956C294.734 601.835 217.411 468.492 170.888 238.326L173.53 238.011Z" fill="#3BB763"/>
<path opacity="0.1774" d="M186.381 239.523C240.664 460.955 321.983 590.094 442.287 645.907C588.088 713.558 779.14 665.383 1000.36 609.622C1126 577.942 1268.41 542.051 1417.75 524.249C1649.62 496.138 1746.93 565.052 1859.6 644.851C1969.17 722.456 2088.95 807.246 2354.82 820.828L2355.12 822.611C2283.24 818.896 2218.34 809.86 2159.87 795.492C2019.62 761.035 1933.65 700.135 1857.79 646.414C1745.63 566.98 1648.77 498.36 1418.15 526.326C1269.02 544.107 1126.71 579.975 1001.16 611.627C779.329 667.55 587.745 715.853 440.901 647.713C319.878 591.569 238.165 461.99 183.732 239.919L186.381 239.523Z" fill="#3BB763"/>
<path opacity="0.1961" d="M199.232 241.035C261.742 454.764 347.738 580.28 469.872 636.062C620.111 704.682 813.54 659.542 1037.5 607.257C1154.08 580.046 1286.22 549.207 1425.04 531.918C1657.28 502.306 1755.31 569.972 1868.81 648.322C1977.53 723.368 2096.33 805.32 2354.62 819.607L2354.93 821.378C2286.03 817.526 2223.53 808.76 2167.01 795.026C2028.5 761.368 1942.72 702.159 1867.03 649.913C1754.04 571.916 1656.45 504.567 1425.47 534.01C1286.83 551.279 1154.78 582.102 1038.28 609.293C895.161 642.704 764.5 673.203 649.372 673.041C583.858 672.949 523.368 662.942 468.51 637.879C345.691 581.78 259.285 455.831 196.592 241.505L199.232 241.035Z" fill="#3BB763"/>
<path opacity="0.2148" d="M212.078 242.559C283.374 449.279 374.591 571.523 499.121 627.231C654.837 696.901 852.104 654.31 1080.51 605.009C1191.58 581.036 1306.42 556.243 1432.33 539.626C1664.95 508.937 1763.68 575.292 1878.01 652.121C1985.81 724.554 2103.53 803.632 2354.41 818.483L2354.72 820.266C2288.71 816.322 2228.63 807.824 2174.04 794.736C2037.29 761.939 1951.73 704.461 1876.25 653.733C1762.43 577.258 1664.13 511.203 1432.79 541.728C1307.01 558.322 1192.23 583.101 1081.23 607.064C966.576 631.813 858.272 655.19 761.161 663.199C653.339 672.067 569.64 661.242 497.783 629.087C372.575 573.079 280.962 450.436 209.466 243.124L212.078 242.559Z" fill="#3BB763"/>
<path opacity="0.2335" d="M224.917 244.066C317.808 474.434 435.568 600.647 595.517 641.248C743.99 678.932 921.626 643.59 1127.31 602.648C1226.03 583.008 1328.12 562.687 1439.63 547.311C1672.65 515.177 1772.19 580.269 1887.41 655.646C1994.25 725.526 2110.87 801.776 2354.21 817.233L2354.53 819.05C2291.47 815.011 2233.85 806.774 2181.24 794.308C2046.26 762.32 1960.94 706.519 1885.66 657.276C1770.96 582.24 1671.9 517.458 1440.1 549.407C1328.7 564.773 1226.66 585.074 1127.99 604.711C983.277 633.503 852.445 659.55 735.679 659.392C686.146 659.329 639.131 654.549 594.68 643.269C516 623.296 449.109 584.08 390.184 523.386C326.297 457.564 271.383 366.403 222.314 244.705L224.917 244.066Z" fill="#3BB763"/>
<path opacity="0.2523" d="M237.757 245.573C465.507 731.689 750.375 679.32 1181.59 600.028C1265.71 584.559 1352.7 568.57 1446.91 555.003C1680.47 521.384 1780.75 585.226 1896.9 659.151C2002.72 726.503 2118.17 799.94 2353.97 815.967L2354.28 817.796C2294.2 813.684 2239.02 805.732 2188.45 793.901C2055.26 762.732 1970.21 708.585 1895.15 660.826C1779.53 587.231 1679.69 523.682 1447.4 557.132C1353.25 570.685 1266.3 586.678 1182.21 602.134C970.151 641.125 787.003 674.799 632.696 636.9C551.511 616.967 481.533 578.316 418.773 518.738C350.947 454.363 290.887 365.262 235.171 246.332L237.757 245.573Z" fill="#3BB763"/>
<path opacity="0.271" d="M250.601 247.068C372.127 471.229 503.173 589.234 675.505 629.686C835.585 667.269 1017.11 636.122 1246.93 596.687C1313 585.353 1381.33 573.63 1454.21 562.688C1688.32 527.537 1789.43 590.149 1906.51 662.632C2011.26 727.464 2125.46 798.127 2353.77 814.7L2354.08 816.558C2296.93 812.392 2244.27 804.709 2195.74 793.486C2064.36 763.106 1979.59 710.634 1904.79 664.329C1788.22 592.176 1687.57 529.863 1454.73 564.816C1381.88 575.757 1313.56 587.473 1247.51 598.801C1090.03 625.825 955.198 648.959 834.253 648.8C778.392 648.723 725.479 643.686 674.699 631.762C501.493 591.106 369.914 472.725 248.036 247.906L250.601 247.068Z" fill="#3BB763"/>
<path opacity="0.2897" d="M263.429 248.57C402.225 470.379 544.02 586.87 723.189 626.275C891.782 663.356 1084.85 631.728 1329.29 591.694C1371.82 584.733 1415.8 577.52 1461.51 570.373C1696.22 533.67 1798.18 595.039 1916.26 666.084C2019.86 728.429 2132.74 796.337 2353.56 813.393L2353.88 815.256C2299.7 811.057 2249.54 803.668 2203.11 793.066C2073.56 763.481 1989.1 712.655 1914.57 667.813C1797.04 597.092 1695.55 536.004 1462.07 572.505C1416.36 579.657 1372.39 586.858 1329.87 593.824C1161.13 621.465 1016.85 645.095 888.041 644.926C829.971 644.852 775.031 639.94 722.447 628.366C542.451 588.777 400.112 471.934 260.943 249.513L263.429 248.57Z" fill="#3BB763"/>
<path opacity="0.3084" d="M276.245 250.066C438.612 475.104 589.076 587.289 779.337 625.164C959.61 661.059 1171.31 626.551 1439.34 582.862L1468.79 578.064C1704.17 539.772 1807.03 599.897 1926.1 669.526C2028.5 729.392 2139.99 794.538 2353.32 812.071L2353.64 813.962C2302.42 809.743 2254.78 802.657 2210.49 792.68C2082.81 763.888 1998.67 714.701 1924.44 671.294C1805.89 601.983 1703.51 542.123 1469.38 580.224L1439.93 585.021C1171.55 628.767 959.563 663.317 778.648 627.292C684.957 608.641 600.899 571.417 521.661 513.505C438.3 452.584 357.23 366.769 273.812 251.144L276.245 250.066Z" fill="#3BB763"/>
<path opacity="0.3271" d="M289.061 251.563C469.566 468.426 625.466 578.497 810.334 619.623C996.642 661.064 1212.83 630.299 1476.08 585.773C1712.2 545.837 1815.97 604.744 1936.09 672.96C2037.21 730.374 2147.22 792.808 2353.08 810.748L2353.41 812.656C2305.14 808.44 2260.06 801.661 2217.93 792.291C2092.14 764.291 2008.36 716.719 1934.44 674.745C1814.85 606.836 1711.58 548.191 1476.68 587.937C1213.03 632.528 996.487 663.344 809.559 621.755C623.968 580.463 467.602 470.117 286.691 252.781L289.061 251.563Z" fill="#3BB763"/>
<path opacity="0.3458" d="M301.865 253.054C690.674 657.149 926.327 691.328 1483.38 593.458C1720.32 551.828 1825.02 609.523 1946.24 676.341C2045.99 731.318 2154.46 791.072 2352.86 809.367L2353.19 811.287C2307.88 807.107 2265.37 800.653 2225.47 791.887C2101.58 764.66 2018.19 718.712 1944.62 678.154C1823.95 611.652 1719.72 554.204 1484.02 595.626C1319.57 624.517 1183.07 641.925 1062.36 641.771C773.159 641.392 574.592 540.178 299.615 254.381L301.865 253.054Z" fill="#3BB763"/>
<path opacity="0.3645" d="M314.658 254.54C737.707 633.571 957.516 698.356 1490.67 601.149C1728.49 557.788 1834.17 614.28 1956.52 679.705C2054.82 732.271 2161.64 789.339 2352.61 807.954L2352.95 809.924C2310.6 805.792 2270.69 799.649 2233.04 791.486C2111.09 765.032 2028.11 720.679 1954.91 681.54C1833.11 616.414 1727.92 560.175 1491.31 603.323C1202.58 655.968 1017.36 656.991 851.992 606.881C666.52 550.668 502.182 425.964 312.501 256.006L314.658 254.54Z" fill="#3BB763"/>
<path opacity="0.3832" d="M327.439 256.021C754.085 583.753 949.103 712.618 1497.97 608.834C1736.77 563.681 1843.46 618.985 1966.97 683.026C2063.75 733.197 2168.8 787.652 2352.37 806.534L2352.71 808.487C2313.32 804.437 2276.02 798.662 2240.69 791.093C2120.71 765.409 2038.19 722.632 1965.39 684.899C1842.43 621.147 1736.23 566.1 1498.64 611.018C1362 636.849 1247.34 648.471 1148.19 646.603C1049.47 644.715 959.528 629.287 873.221 599.428C699.566 539.35 536.639 419.869 325.431 257.623L327.439 256.021Z" fill="#3BB763"/>
<path opacity="0.4019" d="M340.203 257.509C385.929 287.388 428.33 315.615 469.341 342.907C837.692 588.05 1022.57 711.094 1505.24 616.521C1745.09 569.525 1852.82 623.652 1977.57 686.323C2072.72 734.127 2175.95 785.96 2352.09 805.041L2352.44 807.069C2316.02 803.124 2281.38 797.674 2248.39 790.703C2130.39 765.773 2048.37 724.569 1976 688.218C1851.83 625.829 1744.56 571.949 1505.92 618.71C1272.52 664.448 1104.53 661.759 944.164 609.762C791.417 560.235 655.529 469.8 467.448 344.629C426.437 317.337 384.031 289.121 338.321 259.236L340.203 257.509Z" fill="#3BB763"/>
<path opacity="0.4206" d="M352.967 258.997C456.434 315.926 545.353 370.593 623.804 418.832C917.931 599.681 1095.48 708.83 1512.54 624.206C1753.54 575.3 1862.37 628.264 1988.39 689.581C2081.83 735.05 2183.07 784.31 2351.87 803.558L2352.21 805.568C2318.77 801.768 2286.78 796.707 2256.21 790.33C2140.26 766.161 2058.75 726.502 1986.86 691.52C1861.41 630.468 1753.05 577.768 1513.28 626.409C1413.98 646.563 1328.24 655.765 1251.25 655.664C1003.8 655.335 846.905 558.875 622.035 420.622C543.602 372.406 454.717 317.754 351.321 260.856L352.967 258.997Z" fill="#3BB763"/>
<path opacity="0.4394" d="M365.726 260.496C515.852 329.024 632.26 398.871 734.954 460.492C984.928 610.465 1150.06 709.545 1519.83 631.903C1762.05 581.044 1872.03 632.842 1999.38 692.83C2091 735.982 2190.18 782.672 2351.59 802.025L2351.94 804.109C2321.47 800.471 2292.2 795.762 2264.07 789.973C2150.18 766.536 2069.26 728.417 1997.86 694.786C1871.09 635.068 1761.59 583.499 1520.57 634.117C1348.95 670.157 1209.08 669.828 1080.39 633.074C960.853 598.919 855.336 535.618 733.157 462.312C630.528 400.734 514.196 330.935 364.234 262.479L365.726 260.496Z" fill="#3BB763"/>
<path opacity="0.4581" d="M378.468 262.002C567.262 332.083 700.878 413.392 818.762 485.121C1035.54 617.032 1192.18 712.342 1527.11 639.594C1770.66 586.697 1881.85 637.361 2010.58 696.03C2100.27 736.903 2197.24 781.105 2351.32 800.48L2351.68 802.553C2324.19 799.116 2297.65 794.815 2272.05 789.611C2160.27 766.909 2079.95 730.318 2009.1 698.018C1880.95 639.62 1770.27 589.178 1527.91 641.818C1372.9 675.486 1245.53 675.197 1127.06 640.928C1018.31 609.459 924.997 552.682 816.965 486.942C699.205 415.281 565.719 334.057 377.21 264.088L378.468 262.002Z" fill="#3BB763"/>
<path opacity="0.4768" d="M391.21 263.507C613.156 328.58 757.601 420.028 885.043 500.721C1075.5 621.307 1225.91 716.553 1534.41 647.291C1779.41 592.281 1891.83 641.827 2022 699.202C2109.62 737.82 2204.28 779.521 2351.05 798.862L2351.42 800.997C2326.9 797.785 2303.15 793.872 2280.1 789.256C2170.48 767.282 2090.82 732.183 2020.55 701.206C1890.95 644.096 1779.04 594.76 1535.22 649.508C1462.37 665.86 1398.34 673.095 1340.47 673.023C1152.12 672.764 1029.37 595.083 883.171 502.522C755.912 421.952 611.668 330.621 390.163 265.687L391.21 263.507Z" fill="#3BB763"/>
<path opacity="0.4955" d="M403.947 265.025C655.235 320.707 806.356 421.914 939.688 511.206C1115.3 628.812 1254.01 721.713 1541.69 654.971C1788.25 597.78 1901.97 646.222 2033.65 702.311C2119.1 738.708 2211.28 777.957 2350.77 797.215L2351.15 799.367C2329.63 796.418 2308.66 792.94 2288.27 788.907C2180.84 767.652 2101.89 734.026 2032.25 704.359C1901.15 648.517 1787.93 600.28 1542.55 657.209C1253.33 724.293 1114.06 631.047 937.762 512.97C804.667 423.838 653.806 322.802 403.143 267.256L403.947 265.025Z" fill="#3BB763"/>
<path opacity="0.5142" d="M416.678 266.554C694.639 309.808 849.608 420.753 986.331 518.632C1149.36 635.349 1278.13 727.544 1548.98 662.662C1662.74 635.407 1755.08 628.479 1839.53 640.837C1915.75 651.99 1978.8 677.934 2045.55 705.414C2128.67 739.626 2218.23 776.486 2350.48 795.563L2350.86 797.743C2332.35 795.086 2314.21 792.051 2296.5 788.589C2191.31 768.041 2113.14 735.866 2044.16 707.484C1911.49 652.891 1796.91 605.732 1549.86 664.911C1424.88 694.847 1321.7 693.366 1225.14 660.246C1137.93 630.34 1063.31 576.915 984.307 520.366C847.873 422.685 693.231 311.982 416.095 268.855L416.678 266.554Z" fill="#3BB763"/>
<path opacity="0.5329" d="M429.422 268.088C732.148 296.742 888.938 417.552 1027.28 524.142C1173.32 636.681 1299.45 733.862 1556.27 670.359C1670.9 642.015 1763.98 634.198 1849.21 645.741C1926.17 656.16 1990.07 681.56 2057.73 708.447C2138.38 740.504 2225.18 774.982 2350.18 793.825L2350.56 796.062C2335.05 793.738 2319.83 791.148 2304.85 788.266C2201.95 768.41 2124.6 737.673 2056.35 710.551C1916.5 654.977 1806.03 611.075 1557.16 672.596C1438.65 701.892 1341.04 699.854 1249.98 666.174C1167.92 635.833 1098.58 582.391 1025.14 525.813C887.146 419.486 730.743 298.973 429.035 270.42L429.422 268.088Z" fill="#3BB763"/>
<path opacity="0.5516" d="M442.16 269.634C768.269 282.071 925.395 412.941 1064.02 528.409C1200.66 642.232 1318.68 740.515 1563.55 678.051C1679.09 648.587 1772.97 639.85 1859.02 650.581C1936.78 660.275 2001.58 685.145 2070.19 711.466C2148.23 741.403 2232.08 773.559 2349.88 792.07L2350.32 794.568C2231.66 776.03 2147.33 743.69 2068.87 713.579C1927.21 659.236 1815.32 616.3 1564.51 680.29C1511.08 693.913 1463.68 699.967 1420.78 699.897C1265.56 699.693 1169.44 619.644 1061.84 530.002C923.597 414.859 766.912 284.351 442.025 271.965L442.16 269.634Z" fill="#3BB763"/>
<path opacity="0.5703" d="M454.915 271.174C610.333 268.936 741.45 295.875 855.893 353.53C955.97 403.956 1027.97 468.973 1097.61 531.842C1225.71 647.526 1336.33 747.432 1570.84 685.731C1687.37 655.081 1782.12 645.415 1869.02 655.332C1947.61 664.305 2013.35 688.644 2082.96 714.408C2158.21 742.262 2238.94 772.145 2349.57 790.27L2350 792.78C2238.54 774.637 2157.33 744.571 2081.66 716.559C1938.11 663.423 1824.72 621.446 1571.82 687.98C1335.4 750.179 1224.14 649.713 1095.32 533.388C957.842 409.243 802.004 268.498 454.976 273.536L454.915 271.174Z" fill="#3BB763"/>
<path opacity="0.589" d="M467.676 272.73C632.665 262.278 769.668 286.086 886.571 345.513C988.77 397.464 1059.92 467.251 1128.73 534.746C1248.97 652.687 1352.8 754.543 1578.13 693.439C1834.47 623.919 1949.9 665.152 2096.06 717.357C2168.35 743.176 2245.75 770.819 2349.26 788.452L2349.69 790.963C2245.4 773.292 2167.49 745.495 2094.79 719.536C1949.26 667.564 1834.3 626.503 1579.13 695.71C1351.78 757.375 1247.31 654.902 1126.34 536.245C990.404 402.911 836.288 251.813 467.922 275.118L467.676 272.73Z" fill="#3BB763"/>
<path opacity="0.6077" d="M916.308 336.969C1020.29 390.432 1093.4 468.439 1157.9 537.273C1270.82 657.755 1368.34 761.813 1585.41 701.131C1844.16 628.816 1961.26 669.162 2109.49 720.232C2178.64 744.06 2252.52 769.506 2348.93 786.573L2349.37 789.117C2252.21 772.011 2177.82 746.412 2108.26 722.443C1960.65 671.59 1844.05 631.426 1586.46 703.411C1367.23 764.677 1269.08 659.963 1155.44 538.701C1021.68 395.983 870.061 234.231 480.866 276.671L480.438 274.287C654.73 255.279 797.306 275.775 916.308 336.969Z" fill="#3BB763"/>
<path opacity="0.6265" d="M945.3 328.025C1050.8 383.013 1122.36 466.178 1185.49 539.554C1291.52 662.764 1383.1 769.171 1592.7 708.822C1854.05 633.578 1972.87 673.064 2123.32 723.055C2189.11 744.924 2259.27 768.222 2348.6 784.625L2349.04 787.197C2258.98 770.75 2188.33 747.28 2122.12 725.281C1972.31 675.501 1853.99 636.18 1593.78 711.089C1551.39 723.3 1513.8 728.766 1479.92 728.725C1344.44 728.547 1268.33 640.131 1182.94 540.901C1051.89 388.612 903.322 216.003 493.799 278.219L493.211 275.848C676.602 247.985 824.495 265.056 945.3 328.025Z" fill="#3BB763"/>
<path opacity="0.6452" d="M973.698 318.777C1080.48 375.313 1150.25 463.711 1211.81 541.69C1311.34 667.758 1397.27 776.638 1600 716.524C1864.16 638.198 1984.81 676.886 2137.57 725.857C2199.79 745.801 2266.01 767.02 2348.28 782.665L2348.72 785.266C2265.74 769.569 2199.04 748.195 2136.39 728.117C1984.27 679.345 1864.11 640.834 1601.1 718.814C1560.82 730.752 1525.14 736.126 1493.01 736.077C1361.48 735.895 1289.73 645.026 1209.18 542.972C1081.27 380.932 936.301 197.273 506.744 279.773L506.001 277.403C698.35 240.468 851.335 253.988 973.698 318.777Z" fill="#3BB763"/>
<path opacity="0.6639" d="M1001.6 309.266C1109.48 367.376 1177.24 461.068 1237.02 543.741C1330.32 672.75 1410.9 784.17 1607.28 724.227C1874.44 642.672 1997.03 680.593 2152.22 728.6C2210.66 746.674 2272.67 765.855 2347.91 780.644L2348.36 783.262C2272.42 768.415 2209.93 749.079 2151.08 730.876C1996.51 683.062 1874.44 645.3 1608.43 726.509C1570.08 738.212 1536.12 743.493 1505.59 743.453C1377.76 743.272 1310.2 649.891 1234.3 544.958C1109.93 372.988 968.96 178.066 519.643 281.334L518.764 278.988C719.956 232.735 877.893 242.64 1001.6 309.266Z" fill="#3BB763"/>
<path opacity="0.6826" d="M1029.05 299.462C1137.84 359.121 1203.39 458.151 1261.21 545.521C1348.57 677.498 1424.01 791.487 1614.56 731.919C1884.84 646.58 2009.5 683.892 2167.34 731.126C2221.74 747.406 2279.31 764.634 2347.54 778.509L2347.99 781.127C2279.09 767.181 2221.04 749.821 2166.22 733.412C2009.02 686.365 1884.86 649.207 1615.72 734.194C1579.24 745.602 1546.95 750.752 1517.94 750.714C1393.38 750.549 1329.83 654.567 1258.4 546.645C1200.74 459.525 1135.39 360.789 1027.23 301.479C903.279 233.502 741.471 227.422 532.541 282.866L531.531 280.533C741.49 224.816 904.225 231.012 1029.05 299.462Z" fill="#3BB763"/>
<path opacity="0.7013" d="M1056.22 289.643C1165.81 350.97 1229 455.46 1284.76 547.639C1366.41 682.643 1436.93 799.219 1621.85 739.599C1895.65 650.857 2022.45 687.489 2182.97 733.868C2233.06 748.338 2285.94 763.608 2347.2 776.413L2347.66 779.064C2285.77 766.187 2232.41 750.791 2181.89 736.187C2022.01 689.995 1895.72 653.516 1623.08 741.888C1588.17 753.141 1557.3 758.235 1529.64 758.201C1408.54 758.032 1348.95 659.519 1281.92 548.702C1226.31 456.79 1163.31 352.606 1054.39 291.659C929.469 221.754 763.004 219.377 545.491 284.408L544.362 282.092C762.936 216.746 930.367 219.215 1056.22 289.643Z" fill="#3BB763"/>
<path opacity="0.72" d="M1083.11 279.7C1193.37 342.735 1254.08 452.759 1307.65 549.824C1383.8 687.837 1449.57 807.016 1629.14 747.296C1906.74 654.972 2035.79 690.993 2199.15 736.596C2244.67 749.302 2292.56 762.658 2346.83 774.295L2347.3 776.975C2292.42 765.252 2244.05 751.766 2198.08 738.937C2035.37 693.521 1906.85 657.635 1630.39 749.578C1596.94 760.704 1567.4 765.746 1540.98 765.717C1423.24 765.559 1367.47 664.517 1304.74 550.816C1251.34 454.035 1190.81 344.357 1081.24 281.713C955.477 209.814 784.445 211.193 558.384 285.953L557.147 283.659C784.331 208.542 956.379 207.235 1083.11 279.7Z" fill="#3BB763"/>
</g>
<defs>
<clipPath id="clip0_330_981">
<rect width="1826.05" height="1103.51" fill="white" transform="translate(272.988 -428) rotate(23.8382)"/>
</clipPath>
</defs>
</svg>
