<svg width="867" height="499" viewBox="0 0 867 499" fill="none" xmlns="http://www.w3.org/2000/svg">
<rect width="867" height="499" rx="50" fill="white"/>
<rect x="528" y="117" width="294" height="294" rx="20" fill="#EBEBEB"/>
<rect x="47" y="26" width="135" height="40" rx="10" fill="#EBEBEB"/>
<rect x="207" y="26" width="135" height="12" rx="6" fill="#EBEBEB"/>
<rect x="367" y="26" width="135" height="12" rx="6" fill="#EBEBEB"/>
<rect x="527" y="26" width="135" height="12" rx="6" fill="#EBEBEB"/>
<rect x="687" y="26" width="135" height="40" rx="10" fill="#EBEBEB"/>
<rect x="47" y="133" width="246" height="23" rx="10" fill="#EBEBEB"/>
<rect x="47" y="168" width="178" height="23" rx="10" fill="#EBEBEB"/>
<rect x="47" y="362" width="98" height="32" rx="10" fill="#EBEBEB"/>
<rect x="47" y="218" width="178" height="8" rx="4" fill="#EBEBEB"/>
<rect x="47" y="234" width="132" height="8" rx="4" fill="#EBEBEB"/>
<rect x="47" y="250" width="87" height="8" rx="4" fill="#EBEBEB"/>
<rect x="47" y="266" width="157" height="8" rx="4" fill="#EBEBEB"/>
<rect x="47" y="282" width="178" height="8" rx="4" fill="#EBEBEB"/>
<rect x="47" y="298" width="147" height="8" rx="4" fill="#EBEBEB"/>
<rect x="47" y="314" width="164" height="8" rx="4" fill="#EBEBEB"/>
<rect x="47" y="330" width="116" height="8" rx="4" fill="#EBEBEB"/>
</svg>
