<svg width="184" height="24" viewBox="0 0 184 24" fill="none" xmlns="http://www.w3.org/2000/svg">
<path d="M0.336 6.144H7.824V8.592H0.336V6.144ZM5.544 18H2.616V2.448H5.544V18ZM11.4203 18H8.51625V0.144H11.4203V18ZM16.8197 18.312C15.5717 18.312 14.5797 17.976 13.8437 17.304C13.1237 16.616 12.7637 15.72 12.7637 14.616C12.7637 13.528 13.1397 12.664 13.8917 12.024C14.6597 11.368 15.7477 10.984 17.1557 10.872L20.7077 10.584V10.32C20.7077 9.776 20.6037 9.344 20.3957 9.024C20.2037 8.688 19.9237 8.448 19.5557 8.304C19.1877 8.144 18.7557 8.064 18.2597 8.064C17.3957 8.064 16.7317 8.24 16.2677 8.592C15.8037 8.928 15.5717 9.408 15.5717 10.032H13.0757C13.0757 9.168 13.2917 8.424 13.7237 7.8C14.1717 7.16 14.7957 6.664 15.5957 6.312C16.4117 5.96 17.3477 5.784 18.4037 5.784C19.4757 5.784 20.3957 5.976 21.1637 6.36C21.9317 6.728 22.5237 7.288 22.9397 8.04C23.3557 8.776 23.5637 9.696 23.5637 10.8V18H20.9957L20.7797 16.248C20.5237 16.856 20.0277 17.352 19.2917 17.736C18.5717 18.12 17.7477 18.312 16.8197 18.312ZM17.7557 16.104C18.6677 16.104 19.3877 15.848 19.9157 15.336C20.4597 14.824 20.7317 14.112 20.7317 13.2V12.576L18.2597 12.768C17.3477 12.848 16.6997 13.04 16.3157 13.344C15.9317 13.632 15.7397 14.016 15.7397 14.496C15.7397 15.024 15.9157 15.424 16.2677 15.696C16.6197 15.968 17.1157 16.104 17.7557 16.104ZM26.6874 6.144L30.5514 17.088L28.9674 20.088L23.5914 6.144H26.6874ZM23.9034 23.496V21.072H25.6554C26.0394 21.072 26.3754 21.024 26.6634 20.928C26.9514 20.848 27.2074 20.688 27.4314 20.448C27.6714 20.208 27.8714 19.856 28.0314 19.392L32.9514 6.144H35.9754L30.1674 20.64C29.7354 21.728 29.1914 22.52 28.5354 23.016C27.8794 23.512 27.0634 23.76 26.0874 23.76C25.6714 23.76 25.2794 23.736 24.9114 23.688C24.5594 23.656 24.2234 23.592 23.9034 23.496ZM41.2035 18.312C40.0355 18.312 38.9955 18.048 38.0835 17.52C37.1875 16.976 36.4835 16.24 35.9715 15.312C35.4595 14.368 35.2035 13.288 35.2035 12.072C35.2035 10.84 35.4515 9.752 35.9475 8.808C36.4435 7.864 37.1395 7.128 38.0355 6.6C38.9315 6.056 39.9555 5.784 41.1075 5.784C42.3075 5.784 43.3395 6.04 44.2035 6.552C45.0675 7.048 45.7315 7.744 46.1955 8.64C46.6755 9.536 46.9155 10.608 46.9155 11.856V12.744L36.7395 12.768L36.7875 10.896H44.0115C44.0115 10.08 43.7475 9.424 43.2195 8.928C42.7075 8.432 42.0115 8.184 41.1315 8.184C40.4435 8.184 39.8595 8.328 39.3795 8.616C38.9155 8.904 38.5635 9.336 38.3235 9.912C38.0835 10.488 37.9635 11.192 37.9635 12.024C37.9635 13.304 38.2355 14.272 38.7795 14.928C39.3395 15.584 40.1635 15.912 41.2515 15.912C42.0515 15.912 42.7075 15.76 43.2195 15.456C43.7475 15.152 44.0915 14.72 44.2515 14.16H46.9635C46.7075 15.456 46.0675 16.472 45.0435 17.208C44.0355 17.944 42.7555 18.312 41.2035 18.312ZM50.9869 18H48.0589V6.144H50.7709L51.0109 7.68C51.3789 7.088 51.8989 6.624 52.5709 6.288C53.2589 5.952 54.0029 5.784 54.8029 5.784C56.2909 5.784 57.4109 6.224 58.1629 7.104C58.9309 7.984 59.3149 9.184 59.3149 10.704V18H56.3869V11.4C56.3869 10.408 56.1629 9.672 55.7149 9.192C55.2669 8.696 54.6589 8.448 53.8909 8.448C52.9789 8.448 52.2669 8.736 51.7549 9.312C51.2429 9.888 50.9869 10.656 50.9869 11.616V18Z" fill="#151520"/>
<path d="M68.8764 18L65.0364 6.144H68.0844L69.6444 11.232C69.7724 11.696 69.9004 12.184 70.0284 12.696C70.1564 13.208 70.2684 13.744 70.3644 14.304C70.4444 13.92 70.5164 13.568 70.5804 13.248C70.6604 12.928 70.7484 12.616 70.8444 12.312C70.9404 11.992 71.0524 11.632 71.1804 11.232L72.8124 6.144H75.7884L77.3724 11.232C77.4044 11.344 77.4524 11.536 77.5164 11.808C77.5964 12.064 77.6764 12.344 77.7564 12.648C77.8364 12.952 77.9084 13.256 77.9724 13.56C78.0524 13.848 78.1084 14.096 78.1404 14.304C78.2044 14 78.2844 13.656 78.3804 13.272C78.4764 12.888 78.5724 12.52 78.6684 12.168C78.7804 11.8 78.8684 11.488 78.9324 11.232L80.5164 6.144H83.6124L79.5084 18H76.7724L75.1404 12.864C74.9004 12.08 74.7084 11.416 74.5644 10.872C74.4204 10.312 74.3244 9.88 74.2764 9.576C74.2284 9.864 74.1404 10.248 74.0124 10.728C73.8844 11.208 73.6684 11.936 73.3644 12.912L71.7324 18H68.8764ZM88.9269 18.312C87.7589 18.312 86.7189 18.048 85.8069 17.52C84.9109 16.976 84.2069 16.24 83.6949 15.312C83.1829 14.368 82.9269 13.288 82.9269 12.072C82.9269 10.84 83.1749 9.752 83.6709 8.808C84.1669 7.864 84.8629 7.128 85.7589 6.6C86.6549 6.056 87.6789 5.784 88.8309 5.784C90.0309 5.784 91.0629 6.04 91.9269 6.552C92.7909 7.048 93.4549 7.744 93.9189 8.64C94.3989 9.536 94.6389 10.608 94.6389 11.856V12.744L84.4629 12.768L84.5109 10.896H91.7349C91.7349 10.08 91.4709 9.424 90.9429 8.928C90.4309 8.432 89.7349 8.184 88.8549 8.184C88.1669 8.184 87.5829 8.328 87.1029 8.616C86.6389 8.904 86.2869 9.336 86.0469 9.912C85.8069 10.488 85.6869 11.192 85.6869 12.024C85.6869 13.304 85.9589 14.272 86.5029 14.928C87.0629 15.584 87.8869 15.912 88.9749 15.912C89.7749 15.912 90.4309 15.76 90.9429 15.456C91.4709 15.152 91.8149 14.72 91.9749 14.16H94.6869C94.4309 15.456 93.7909 16.472 92.7669 17.208C91.7589 17.944 90.4789 18.312 88.9269 18.312ZM98.4943 18H95.7823V0.144H98.7103V7.872C99.0943 7.2 99.6543 6.688 100.39 6.336C101.126 5.968 101.95 5.784 102.862 5.784C103.998 5.784 104.966 6.056 105.766 6.6C106.582 7.128 107.206 7.872 107.638 8.832C108.086 9.792 108.31 10.904 108.31 12.168C108.31 13.368 108.078 14.432 107.614 15.36C107.15 16.288 106.494 17.016 105.646 17.544C104.798 18.056 103.806 18.312 102.67 18.312C101.79 18.312 100.99 18.12 100.27 17.736C99.5663 17.352 99.0383 16.824 98.6863 16.152L98.4943 18ZM98.7343 12.024C98.7343 12.728 98.8703 13.36 99.1423 13.92C99.4143 14.464 99.7983 14.888 100.294 15.192C100.806 15.48 101.398 15.624 102.07 15.624C102.758 15.624 103.35 15.472 103.846 15.168C104.342 14.864 104.718 14.44 104.974 13.896C105.23 13.352 105.358 12.728 105.358 12.024C105.358 11.32 105.23 10.696 104.974 10.152C104.718 9.608 104.342 9.184 103.846 8.88C103.35 8.56 102.758 8.4 102.07 8.4C101.398 8.4 100.806 8.56 100.294 8.88C99.7983 9.184 99.4143 9.608 99.1423 10.152C98.8703 10.68 98.7343 11.304 98.7343 12.024ZM117.422 18H114.71V0.144H117.638V7.872C118.022 7.2 118.582 6.688 119.318 6.336C120.054 5.968 120.878 5.784 121.79 5.784C122.926 5.784 123.894 6.056 124.694 6.6C125.51 7.128 126.134 7.872 126.566 8.832C127.014 9.792 127.238 10.904 127.238 12.168C127.238 13.368 127.006 14.432 126.542 15.36C126.078 16.288 125.422 17.016 124.574 17.544C123.726 18.056 122.734 18.312 121.598 18.312C120.718 18.312 119.918 18.12 119.198 17.736C118.494 17.352 117.966 16.824 117.614 16.152L117.422 18ZM117.662 12.024C117.662 12.728 117.798 13.36 118.07 13.92C118.342 14.464 118.726 14.888 119.222 15.192C119.734 15.48 120.326 15.624 120.998 15.624C121.686 15.624 122.278 15.472 122.774 15.168C123.27 14.864 123.646 14.44 123.902 13.896C124.158 13.352 124.286 12.728 124.286 12.024C124.286 11.32 124.158 10.696 123.902 10.152C123.646 9.608 123.27 9.184 122.774 8.88C122.278 8.56 121.686 8.4 120.998 8.4C120.326 8.4 119.734 8.56 119.222 8.88C118.726 9.184 118.342 9.608 118.07 10.152C117.798 10.68 117.662 11.304 117.662 12.024ZM136.129 6.144H139.057V18H136.345L136.129 16.416C135.777 16.976 135.249 17.432 134.545 17.784C133.841 18.136 133.089 18.312 132.289 18.312C130.929 18.312 129.865 17.88 129.097 17.016C128.329 16.152 127.945 15 127.945 13.56V6.144H130.873V12.528C130.873 13.648 131.089 14.456 131.521 14.952C131.953 15.448 132.577 15.696 133.393 15.696C134.321 15.696 135.009 15.424 135.457 14.88C135.905 14.32 136.129 13.48 136.129 12.36V6.144ZM140.881 18V6.144H143.809V18H140.881ZM142.321 3.768C141.825 3.768 141.401 3.6 141.049 3.264C140.713 2.912 140.545 2.488 140.545 1.992C140.545 1.496 140.713 1.08 141.049 0.743999C141.401 0.408 141.825 0.24 142.321 0.24C142.817 0.24 143.233 0.408 143.569 0.743999C143.921 1.08 144.097 1.496 144.097 1.992C144.097 2.488 143.921 2.912 143.569 3.264C143.233 3.6 142.817 3.768 142.321 3.768ZM148.586 18H145.682V0.144H148.586V18ZM155.329 18.312C154.177 18.312 153.185 18.056 152.353 17.544C151.537 17.016 150.897 16.288 150.433 15.36C149.985 14.432 149.761 13.352 149.761 12.12C149.761 10.888 149.985 9.8 150.433 8.856C150.897 7.896 151.561 7.144 152.425 6.6C153.289 6.056 154.313 5.784 155.497 5.784C156.329 5.784 157.089 5.952 157.777 6.288C158.465 6.608 158.993 7.064 159.361 7.656V0.144H162.265V18H159.577L159.385 16.152C159.033 16.824 158.489 17.352 157.753 17.736C157.033 18.12 156.225 18.312 155.329 18.312ZM155.977 15.624C156.665 15.624 157.257 15.48 157.753 15.192C158.249 14.888 158.633 14.464 158.905 13.92C159.193 13.36 159.337 12.728 159.337 12.024C159.337 11.304 159.193 10.68 158.905 10.152C158.633 9.608 158.249 9.184 157.753 8.88C157.257 8.56 156.665 8.4 155.977 8.4C155.305 8.4 154.721 8.56 154.225 8.88C153.729 9.184 153.345 9.608 153.073 10.152C152.817 10.696 152.689 11.32 152.689 12.024C152.689 12.728 152.817 13.352 153.073 13.896C153.345 14.44 153.729 14.864 154.225 15.168C154.721 15.472 155.305 15.624 155.977 15.624ZM169.421 18.312C168.253 18.312 167.213 18.048 166.301 17.52C165.405 16.976 164.701 16.24 164.189 15.312C163.677 14.368 163.421 13.288 163.421 12.072C163.421 10.84 163.669 9.752 164.165 8.808C164.661 7.864 165.357 7.128 166.253 6.6C167.149 6.056 168.173 5.784 169.325 5.784C170.525 5.784 171.557 6.04 172.421 6.552C173.285 7.048 173.949 7.744 174.413 8.64C174.893 9.536 175.133 10.608 175.133 11.856V12.744L164.957 12.768L165.005 10.896H172.229C172.229 10.08 171.965 9.424 171.437 8.928C170.925 8.432 170.229 8.184 169.349 8.184C168.661 8.184 168.077 8.328 167.597 8.616C167.133 8.904 166.781 9.336 166.541 9.912C166.301 10.488 166.181 11.192 166.181 12.024C166.181 13.304 166.453 14.272 166.997 14.928C167.557 15.584 168.381 15.912 169.469 15.912C170.269 15.912 170.925 15.76 171.437 15.456C171.965 15.152 172.309 14.72 172.469 14.16H175.181C174.925 15.456 174.285 16.472 173.261 17.208C172.253 17.944 170.973 18.312 169.421 18.312ZM183.716 6.096V8.808H182.636C181.564 8.808 180.724 9.096 180.116 9.672C179.508 10.232 179.204 11.088 179.204 12.24V18H176.276V6.168H179.036L179.276 8.616H178.988C179.148 7.832 179.524 7.192 180.116 6.696C180.708 6.2 181.476 5.952 182.42 5.952C182.628 5.952 182.836 5.96 183.044 5.976C183.252 5.992 183.476 6.032 183.716 6.096Z" fill="#3BB763"/>
</svg>
