<svg width="36" height="33" viewBox="0 0 36 33" fill="none" xmlns="http://www.w3.org/2000/svg">
<path d="M17.9997 27.5504L9.69965 32.5504C9.33299 32.7837 8.94965 32.8837 8.54965 32.8504C8.14965 32.8171 7.79965 32.6837 7.49965 32.4504C7.19965 32.2171 6.96632 31.9257 6.79965 31.5764C6.63299 31.2257 6.59965 30.8337 6.69965 30.4004L8.89965 20.9504L1.54965 14.6004C1.21632 14.3004 1.00832 13.9584 0.925653 13.5744C0.841653 13.1917 0.866319 12.8171 0.999652 12.4504C1.13299 12.0837 1.33299 11.7837 1.59965 11.5504C1.86632 11.3171 2.23299 11.1671 2.69965 11.1004L12.3997 10.2504L16.1497 1.35039C16.3163 0.950391 16.575 0.650391 16.9257 0.450391C17.275 0.250391 17.633 0.150391 17.9997 0.150391C18.3663 0.150391 18.725 0.250391 19.0757 0.450391C19.425 0.650391 19.683 0.950391 19.8497 1.35039L23.5997 10.2504L33.2997 11.1004C33.7663 11.1671 34.133 11.3171 34.3997 11.5504C34.6663 11.7837 34.8663 12.0837 34.9997 12.4504C35.133 12.8171 35.1583 13.1917 35.0757 13.5744C34.9917 13.9584 34.783 14.3004 34.4497 14.6004L27.0997 20.9504L29.2997 30.4004C29.3997 30.8337 29.3663 31.2257 29.1997 31.5764C29.033 31.9257 28.7997 32.2171 28.4997 32.4504C28.1997 32.6837 27.8497 32.8171 27.4497 32.8504C27.0497 32.8837 26.6663 32.7837 26.2997 32.5504L17.9997 27.5504Z"/>
</svg>
