<svg width="50" height="29" viewBox="0 0 50 29" fill="none" xmlns="http://www.w3.org/2000/svg">
<g clip-path="url(#clip0_442_972)">
<path fill-rule="evenodd" clip-rule="evenodd" d="M4.60105 0H44.9552C47.509 0 49.5764 2.02343 49.5764 4.52297V19.5995C49.5764 22.0991 47.509 24.1225 44.9552 24.1225H30.4836L32.4699 28.8835L23.7343 24.1225H4.62132C2.06751 24.1225 0.000147768 22.0991 0.000147768 19.5995V4.52297C-0.0201205 2.04327 2.04724 0 4.60105 0ZM2.82318 4.12247C3.10532 3.7477 3.52854 3.55045 4.09282 3.511C5.12062 3.43211 5.70506 3.9055 5.84613 4.93119C6.47087 9.05366 7.15608 12.5449 7.88158 15.405L12.2951 7.17981C12.6981 6.43027 13.202 6.03577 13.8066 5.99632C14.6933 5.93715 15.2374 6.48944 15.4591 7.6532C15.9629 10.2766 16.6078 12.5055 17.3736 14.3991C17.8976 9.38898 18.7844 5.77935 20.0338 3.55045C20.3361 2.99816 20.7795 2.72201 21.3639 2.68257C21.8275 2.64312 22.2507 2.78119 22.6336 3.07706C23.0165 3.37293 23.218 3.7477 23.2583 4.20137C23.2785 4.55642 23.218 4.85229 23.0568 5.14816C22.2708 6.56834 21.6259 8.95503 21.1019 12.2688C20.5981 15.4839 20.4167 17.989 20.5377 19.7839C20.578 20.277 20.4974 20.711 20.2958 21.0858C20.054 21.5197 19.6912 21.7564 19.2277 21.7958C18.7037 21.8353 18.1596 21.5986 17.6356 21.066C15.7614 19.1922 14.2701 16.3913 13.1818 12.6633C11.8719 15.1881 10.9045 17.0816 10.2798 18.344C9.09076 20.5729 8.08311 21.7169 7.23669 21.7761C6.69256 21.8156 6.22904 21.3619 5.82598 20.4151C4.79817 17.8312 3.68976 12.8408 2.50073 5.44403C2.42012 4.93119 2.54104 4.47752 2.82318 4.12247ZM46.132 7.21926C45.4065 5.9766 44.3384 5.22706 42.9075 4.93119C42.5246 4.85229 42.1618 4.81284 41.8192 4.81284C39.8845 4.81284 38.3126 5.79908 37.0833 7.77155C36.0353 9.44815 35.5113 11.3023 35.5113 13.3339C35.5113 14.8527 35.8338 16.1546 36.4787 17.2394C37.2042 18.4821 38.2723 19.2316 39.7032 19.5275C40.0861 19.6064 40.4488 19.6458 40.7914 19.6458C42.7463 19.6458 44.3182 18.6596 45.5274 16.6871C46.5753 14.9908 47.0993 13.1367 47.0993 11.105C47.1195 9.5665 46.7769 8.28439 46.132 7.21926ZM43.5927 12.683C43.3106 13.9848 42.8067 14.9514 42.0611 15.6023C41.4766 16.1151 40.9325 16.3321 40.4287 16.2335C39.945 16.1348 39.5419 15.7206 39.2396 14.9514C38.9978 14.3399 38.8769 13.7284 38.8769 13.1564C38.8769 12.6633 38.9172 12.1702 39.018 11.7165C39.1993 10.9078 39.5419 10.1188 40.0861 9.36925C40.7511 8.40274 41.4565 8.00825 42.182 8.14632C42.6657 8.24494 43.0687 8.65916 43.371 9.42843C43.6128 10.0399 43.7338 10.6514 43.7338 11.2234C43.7338 11.7362 43.6935 12.2293 43.5927 12.683ZM33.5162 7.21926C32.7907 5.9766 31.7024 5.22706 30.2917 4.93119C29.9088 4.85229 29.5461 4.81284 29.2035 4.81284C27.2688 4.81284 25.6968 5.79908 24.4675 7.77155C23.4195 9.44815 22.8956 11.3023 22.8956 13.3339C22.8956 14.8527 23.218 16.1546 23.8629 17.2394C24.5884 18.4821 25.6565 19.2316 27.0874 19.5275C27.4703 19.6064 27.833 19.6458 28.1756 19.6458C30.1305 19.6458 31.7024 18.6596 32.9116 16.6871C33.9596 14.9908 34.4835 13.1367 34.4835 11.105C34.4835 9.5665 34.1611 8.28439 33.5162 7.21926ZM30.9568 12.683C30.6746 13.9848 30.1708 14.9514 29.4251 15.6023C28.8407 16.1151 28.2966 16.3321 27.7927 16.2335C27.3091 16.1348 26.906 15.7206 26.6037 14.9514C26.3619 14.3399 26.241 13.7284 26.241 13.1564C26.241 12.6633 26.2813 12.1702 26.382 11.7165C26.5634 10.9078 26.906 10.1188 27.4501 9.36925C28.1152 8.40274 28.8205 8.00825 29.5461 8.14632C30.0297 8.24494 30.4328 8.65916 30.7351 9.42843C30.9769 10.0399 31.0978 10.6514 31.0978 11.2234C31.118 11.7362 31.0575 12.2293 30.9568 12.683Z" fill="white"/>
</g>
<defs>
<clipPath id="clip0_442_972">
<rect width="50" height="29" fill="white"/>
</clipPath>
</defs>
</svg>
