<svg width="32" height="32" viewBox="0 0 32 32" fill="none" xmlns="http://www.w3.org/2000/svg">
<g clip-path="url(#clip0_442_986)">
<path d="M4.0013 13.3333H2.66797V5.33734C2.66797 4.59867 3.27464 4 3.99064 4H28.012C28.187 3.99963 28.3604 4.03408 28.522 4.10134C28.6836 4.1686 28.8302 4.26733 28.9533 4.39178C29.0763 4.51623 29.1735 4.66392 29.2389 4.82625C29.3044 4.98858 29.3369 5.16231 29.3346 5.33734V13.3333H28.0013V26.668C28.0018 26.8424 27.968 27.0152 27.9017 27.1765C27.8355 27.3378 27.7381 27.4845 27.6152 27.6082C27.4922 27.7319 27.3461 27.8302 27.1852 27.8974C27.0243 27.9646 26.8517 27.9995 26.6773 28H5.3253C5.15091 27.9995 4.97832 27.9646 4.8174 27.8974C4.65648 27.8302 4.51038 27.7319 4.38743 27.6082C4.26449 27.4845 4.16711 27.3378 4.10086 27.1765C4.03461 27.0152 4.00078 26.8424 4.0013 26.668V13.3333ZM25.3346 13.3333H6.66797V25.3333H25.3346V13.3333ZM5.33464 6.66667V10.6667H26.668V6.66667H5.33464ZM12.0013 16H20.0013V18.6667H12.0013V16Z" fill="white"/>
</g>
<defs>
<clipPath id="clip0_442_986">
<rect width="32" height="32" fill="white"/>
</clipPath>
</defs>
</svg>
