<svg width="32" height="32" viewBox="0 0 32 32" fill="none" xmlns="http://www.w3.org/2000/svg">
<g clip-path="url(#clip0_442_977)">
<path d="M16.0013 29.3337C8.6373 29.3337 2.66797 23.3643 2.66797 16.0003C2.66797 8.63633 8.6373 2.66699 16.0013 2.66699C23.3653 2.66699 29.3346 8.63633 29.3346 16.0003C29.3346 23.3643 23.3653 29.3337 16.0013 29.3337ZM16.0013 26.667C18.8303 26.667 21.5434 25.5432 23.5438 23.5428C25.5442 21.5424 26.668 18.8293 26.668 16.0003C26.668 13.1713 25.5442 10.4582 23.5438 8.45785C21.5434 6.45747 18.8303 5.33366 16.0013 5.33366C13.1723 5.33366 10.4592 6.45747 8.45883 8.45785C6.45844 10.4582 5.33464 13.1713 5.33464 16.0003C5.33464 18.8293 6.45844 21.5424 8.45883 23.5428C10.4592 25.5432 13.1723 26.667 16.0013 26.667ZM11.3346 18.667H18.668C18.8448 18.667 19.0143 18.5968 19.1394 18.4717C19.2644 18.3467 19.3346 18.1771 19.3346 18.0003C19.3346 17.8235 19.2644 17.6539 19.1394 17.5289C19.0143 17.4039 18.8448 17.3337 18.668 17.3337H13.3346C12.4506 17.3337 11.6027 16.9825 10.9776 16.3573C10.3525 15.7322 10.0013 14.8844 10.0013 14.0003C10.0013 13.1163 10.3525 12.2684 10.9776 11.6433C11.6027 11.0182 12.4506 10.667 13.3346 10.667H14.668V8.00033H17.3346V10.667H20.668V13.3337H13.3346C13.1578 13.3337 12.9883 13.4039 12.8632 13.5289C12.7382 13.6539 12.668 13.8235 12.668 14.0003C12.668 14.1771 12.7382 14.3467 12.8632 14.4717C12.9883 14.5968 13.1578 14.667 13.3346 14.667H18.668C19.552 14.667 20.3999 15.0182 21.025 15.6433C21.6501 16.2684 22.0013 17.1163 22.0013 18.0003C22.0013 18.8844 21.6501 19.7322 21.025 20.3573C20.3999 20.9825 19.552 21.3337 18.668 21.3337H17.3346V24.0003H14.668V21.3337H11.3346V18.667Z" fill="white"/>
</g>
<defs>
<clipPath id="clip0_442_977">
<rect width="32" height="32" fill="white"/>
</clipPath>
</defs>
</svg>
