<svg width="32" height="32" viewBox="0 0 32 32" fill="none" xmlns="http://www.w3.org/2000/svg">
<path d="M24.6266 22.4401L25.1466 26.6534C25.28 27.7601 24.0933 28.5334 23.1466 27.96L17.56 24.6401C16.9466 24.6401 16.3466 24.6001 15.76 24.5201C16.7466 23.3601 17.3333 21.8934 17.3333 20.3067C17.3333 16.5201 14.0533 13.4535 9.99996 13.4535C8.45329 13.4535 7.02663 13.8934 5.83997 14.6667C5.79997 14.3334 5.78662 14.0001 5.78662 13.6534C5.78662 7.58673 11.0533 2.66675 17.56 2.66675C24.0666 2.66675 29.3333 7.58673 29.3333 13.6534C29.3333 17.2534 27.48 20.4401 24.6266 22.4401Z" stroke="white" stroke-width="2.5" stroke-linecap="round" stroke-linejoin="round"/>
<path d="M17.3334 20.3066C17.3334 21.8933 16.7468 23.36 15.7601 24.52C14.4401 26.12 12.3467 27.1466 10.0001 27.1466L6.52008 29.2133C5.93341 29.5733 5.18674 29.08 5.26674 28.4L5.60008 25.7734C3.81341 24.5334 2.66675 22.5466 2.66675 20.3066C2.66675 17.96 3.92009 15.8933 5.84009 14.6667C7.02675 13.8933 8.45341 13.4534 10.0001 13.4534C14.0534 13.4534 17.3334 16.52 17.3334 20.3066Z" stroke="white" stroke-width="2.5" stroke-linecap="round" stroke-linejoin="round"/>
</svg>
