<svg width="32" height="32" viewBox="0 0 32 32" fill="none" xmlns="http://www.w3.org/2000/svg">
<g clip-path="url(#clip0_442_967)">
<path d="M15.9993 26.667C18.8283 26.667 21.5414 25.5432 23.5418 23.5428C25.5422 21.5424 26.666 18.8293 26.666 16.0003C26.666 13.1713 25.5422 10.4582 23.5418 8.45785C21.5414 6.45747 18.8283 5.33366 15.9993 5.33366C13.1704 5.33366 10.4573 6.45747 8.45688 8.45785C6.45649 10.4582 5.33268 13.1713 5.33268 16.0003C5.33268 18.8293 6.45649 21.5424 8.45688 23.5428C10.4573 25.5432 13.1704 26.667 15.9993 26.667ZM15.9993 29.3337C8.63535 29.3337 2.66602 23.3643 2.66602 16.0003C2.66602 8.63633 8.63535 2.66699 15.9993 2.66699C23.3633 2.66699 29.3327 8.63633 29.3327 16.0003C29.3327 23.3643 23.3633 29.3337 15.9993 29.3337ZM15.9993 21.3337C17.4138 21.3337 18.7704 20.7718 19.7706 19.7716C20.7708 18.7714 21.3327 17.4148 21.3327 16.0003C21.3327 14.5858 20.7708 13.2293 19.7706 12.2291C18.7704 11.2289 17.4138 10.667 15.9993 10.667C14.5849 10.667 13.2283 11.2289 12.2281 12.2291C11.2279 13.2293 10.666 14.5858 10.666 16.0003C10.666 17.4148 11.2279 18.7714 12.2281 19.7716C13.2283 20.7718 14.5849 21.3337 15.9993 21.3337ZM15.9993 24.0003C13.8776 24.0003 11.8428 23.1575 10.3425 21.6572C8.8422 20.1569 7.99935 18.1221 7.99935 16.0003C7.99935 13.8786 8.8422 11.8438 10.3425 10.3435C11.8428 8.84318 13.8776 8.00033 15.9993 8.00033C18.1211 8.00033 20.1559 8.84318 21.6562 10.3435C23.1565 11.8438 23.9993 13.8786 23.9993 16.0003C23.9993 18.1221 23.1565 20.1569 21.6562 21.6572C20.1559 23.1575 18.1211 24.0003 15.9993 24.0003ZM15.9993 18.667C15.2921 18.667 14.6138 18.386 14.1137 17.8859C13.6136 17.3858 13.3327 16.7076 13.3327 16.0003C13.3327 15.2931 13.6136 14.6148 14.1137 14.1147C14.6138 13.6146 15.2921 13.3337 15.9993 13.3337C16.7066 13.3337 17.3849 13.6146 17.885 14.1147C18.3851 14.6148 18.666 15.2931 18.666 16.0003C18.666 16.7076 18.3851 17.3858 17.885 17.8859C17.3849 18.386 16.7066 18.667 15.9993 18.667Z" fill="white"/>
</g>
<defs>
<clipPath id="clip0_442_967">
<rect width="32" height="32" fill="white"/>
</clipPath>
</defs>
</svg>
