<svg width="32" height="32" viewBox="0 0 32 32" fill="none" xmlns="http://www.w3.org/2000/svg">
<g clip-path="url(#clip0_442_983)">
<path d="M19.268 25.3333L16.0013 30L12.7346 25.3333H4.0013C3.64768 25.3333 3.30854 25.1929 3.05849 24.9428C2.80844 24.6928 2.66797 24.3536 2.66797 24V5.33333C2.66797 4.97971 2.80844 4.64057 3.05849 4.39052C3.30854 4.14048 3.64768 4 4.0013 4H28.0013C28.3549 4 28.6941 4.14048 28.9441 4.39052C29.1942 4.64057 29.3346 4.97971 29.3346 5.33333V24C29.3346 24.3536 29.1942 24.6928 28.9441 24.9428C28.6941 25.1929 28.3549 25.3333 28.0013 25.3333H19.268ZM17.88 22.6667H26.668V6.66667H5.33464V22.6667H14.1226L16.0013 25.3493L17.88 22.6667Z" fill="white"/>
</g>
<defs>
<clipPath id="clip0_442_983">
<rect width="32" height="32" fill="white"/>
</clipPath>
</defs>
</svg>
