<svg width="32" height="32" viewBox="0 0 32 32" fill="none" xmlns="http://www.w3.org/2000/svg">
<g clip-path="url(#clip0_442_989)">
<path d="M26.5827 10.6669H27.9987C28.7059 10.6669 29.3842 10.9478 29.8843 11.4479C30.3844 11.948 30.6654 12.6263 30.6654 13.3335V18.6669C30.6654 19.3741 30.3844 20.0524 29.8843 20.5525C29.3842 21.0526 28.7059 21.3335 27.9987 21.3335H26.5827C26.2576 23.9113 25.0031 26.2818 23.0544 28.0002C21.1057 29.7186 18.5968 30.6668 15.9987 30.6669V28.0002C18.1204 28.0002 20.1553 27.1573 21.6556 25.657C23.1558 24.1568 23.9987 22.1219 23.9987 20.0002V12.0002C23.9987 9.87846 23.1558 7.84363 21.6556 6.34334C20.1553 4.84305 18.1204 4.00019 15.9987 4.00019C13.877 4.00019 11.8421 4.84305 10.3418 6.34334C8.84155 7.84363 7.9987 9.87846 7.9987 12.0002V21.3335H3.9987C3.29145 21.3335 2.61318 21.0526 2.11308 20.5525C1.61298 20.0524 1.33203 19.3741 1.33203 18.6669V13.3335C1.33203 12.6263 1.61298 11.948 2.11308 11.4479C2.61318 10.9478 3.29145 10.6669 3.9987 10.6669H5.4147C5.74007 8.08939 6.9948 5.71922 8.94346 4.00109C10.8921 2.28296 13.4008 1.33496 15.9987 1.33496C18.5966 1.33496 21.1053 2.28296 23.0539 4.00109C25.0026 5.71922 26.2573 8.08939 26.5827 10.6669ZM3.9987 13.3335V18.6669H5.33203V13.3335H3.9987ZM26.6654 13.3335V18.6669H27.9987V13.3335H26.6654ZM10.3454 21.0469L11.7587 18.7855C13.0295 19.5816 14.4992 20.0026 15.9987 20.0002C17.4982 20.0026 18.9679 19.5816 20.2387 18.7855L21.652 21.0469C19.9577 22.1084 17.9981 22.6699 15.9987 22.6669C13.9993 22.6699 12.0397 22.1084 10.3454 21.0469Z" fill="white"/>
</g>
<defs>
<clipPath id="clip0_442_989">
<rect width="32" height="32" fill="white"/>
</clipPath>
</defs>
</svg>
