<svg width="44" height="19" viewBox="0 0 44 19" fill="none" xmlns="http://www.w3.org/2000/svg">
<path d="M0.936 5.352C0.936 4.328 1.2 3.424 1.728 2.64C2.256 1.856 2.984 1.248 3.912 0.816C4.856 0.368 5.944 0.144 7.176 0.144C8.36 0.144 9.384 0.351999 10.248 0.767999C11.128 1.184 11.808 1.776 12.288 2.544C12.784 3.312 13.048 4.224 13.08 5.28H10.008C9.976 4.528 9.704 3.944 9.192 3.528C8.68 3.096 7.992 2.88 7.128 2.88C6.184 2.88 5.424 3.096 4.848 3.528C4.288 3.944 4.008 4.52 4.008 5.256C4.008 5.88 4.176 6.376 4.512 6.744C4.864 7.096 5.408 7.36 6.144 7.536L8.904 8.16C10.408 8.48 11.528 9.032 12.264 9.816C13 10.584 13.368 11.624 13.368 12.936C13.368 14.008 13.104 14.952 12.576 15.768C12.048 16.584 11.296 17.216 10.32 17.664C9.36 18.096 8.232 18.312 6.936 18.312C5.704 18.312 4.624 18.104 3.696 17.688C2.768 17.256 2.04 16.656 1.512 15.888C1 15.12 0.728 14.216 0.696 13.176H3.768C3.784 13.912 4.072 14.496 4.632 14.928C5.208 15.344 5.984 15.552 6.96 15.552C7.984 15.552 8.792 15.344 9.384 14.928C9.992 14.496 10.296 13.928 10.296 13.224C10.296 12.616 10.136 12.136 9.816 11.784C9.496 11.416 8.976 11.16 8.256 11.016L5.472 10.392C3.984 10.072 2.856 9.496 2.088 8.664C1.32 7.816 0.936 6.712 0.936 5.352ZM25.8431 18H14.9471V0.456H25.8431V3.288H16.9391L18.0191 2.304V7.8H25.0271V10.512H18.0191V16.152L16.9391 15.168H25.8431V18ZM43.9343 9.216C43.9343 10.992 43.5743 12.568 42.8543 13.944C42.1343 15.304 41.1343 16.368 39.8543 17.136C38.5743 17.904 37.0943 18.288 35.4143 18.288C33.7503 18.288 32.2783 17.904 30.9983 17.136C29.7183 16.368 28.7183 15.304 27.9983 13.944C27.2943 12.584 26.9423 11.016 26.9423 9.24C26.9423 7.448 27.3023 5.872 28.0223 4.512C28.7423 3.136 29.7343 2.064 30.9983 1.296C32.2783 0.527999 33.7583 0.144 35.4383 0.144C37.1183 0.144 38.5903 0.527999 39.8543 1.296C41.1343 2.064 42.1343 3.128 42.8543 4.488C43.5743 5.848 43.9343 7.424 43.9343 9.216ZM40.7183 9.216C40.7183 7.968 40.5023 6.888 40.0703 5.976C39.6383 5.064 39.0303 4.36 38.2463 3.864C37.4623 3.352 36.5263 3.096 35.4383 3.096C34.3663 3.096 33.4303 3.352 32.6303 3.864C31.8463 4.36 31.2383 5.064 30.8063 5.976C30.3743 6.888 30.1583 7.968 30.1583 9.216C30.1583 10.464 30.3743 11.552 30.8063 12.48C31.2383 13.392 31.8463 14.096 32.6303 14.592C33.4303 15.088 34.3663 15.336 35.4383 15.336C36.5263 15.336 37.4623 15.088 38.2463 14.592C39.0303 14.08 39.6383 13.368 40.0703 12.456C40.5023 11.528 40.7183 10.448 40.7183 9.216Z" fill="white"/>
</svg>
