<svg width="36" height="36" viewBox="0 0 36 36" fill="none" xmlns="http://www.w3.org/2000/svg">
<g clip-path="url(#clip0_442_974)">
<path d="M31.5 4.5C31.8978 4.5 32.2794 4.65804 32.5607 4.93934C32.842 5.22064 33 5.60218 33 6V30C33 30.3978 32.842 30.7794 32.5607 31.0607C32.2794 31.342 31.8978 31.5 31.5 31.5H4.5C4.10218 31.5 3.72064 31.342 3.43934 31.0607C3.15804 30.7794 3 30.3978 3 30V6C3 5.60218 3.15804 5.22064 3.43934 4.93934C3.72064 4.65804 4.10218 4.5 4.5 4.5H31.5ZM16.5 19.5H6V28.5H16.5V19.5ZM30 19.5H19.5V28.5H30V19.5ZM16.5 7.5H6V16.5H16.5V7.5ZM30 7.5H19.5V16.5H30V7.5Z" fill="white"/>
</g>
<defs>
<clipPath id="clip0_442_974">
<rect width="36" height="36" fill="white"/>
</clipPath>
</defs>
</svg>
