<svg width="36" height="36" viewBox="0 0 36 36" fill="none" xmlns="http://www.w3.org/2000/svg">
<g clip-path="url(#clip0_442_1005)">
<path d="M13.0289 6.00007L16.9395 2.08957C17.2207 1.80836 17.6022 1.65039 17.9999 1.65039C18.3977 1.65039 18.7792 1.80836 19.0604 2.08957L22.971 6.00007H28.5C28.8978 6.00007 29.2793 6.15811 29.5606 6.43941C29.8419 6.72072 30 7.10225 30 7.50007V13.0291L33.9104 16.9396C34.1917 17.2209 34.3496 17.6023 34.3496 18.0001C34.3496 18.3978 34.1917 18.7793 33.9104 19.0606L30 22.9711V28.5001C30 28.8979 29.8419 29.2794 29.5606 29.5607C29.2793 29.842 28.8978 30.0001 28.5 30.0001H22.971L19.0604 33.9106C18.7792 34.1918 18.3977 34.3498 17.9999 34.3498C17.6022 34.3498 17.2207 34.1918 16.9395 33.9106L13.0289 30.0001H7.49995C7.10212 30.0001 6.72059 29.842 6.43929 29.5607C6.15798 29.2794 5.99995 28.8979 5.99995 28.5001V22.9711L2.08945 19.0606C1.80824 18.7793 1.65027 18.3978 1.65027 18.0001C1.65027 17.6023 1.80824 17.2209 2.08945 16.9396L5.99995 13.0291V7.50007C5.99995 7.10225 6.15798 6.72072 6.43929 6.43941C6.72059 6.15811 7.10212 6.00007 7.49995 6.00007H13.0289ZM8.99995 9.00007V14.2726L5.27245 18.0001L8.99995 21.7276V27.0001H14.2725L17.9999 30.7276L21.7274 27.0001H27V21.7276L30.7275 18.0001L27 14.2726V9.00007H21.7274L17.9999 5.27257L14.2725 9.00007H8.99995ZM17.9999 24.0001C16.4086 24.0001 14.8825 23.3679 13.7573 22.2427C12.6321 21.1175 11.9999 19.5914 11.9999 18.0001C11.9999 16.4088 12.6321 14.8826 13.7573 13.7574C14.8825 12.6322 16.4086 12.0001 17.9999 12.0001C19.5912 12.0001 21.1174 12.6322 22.2426 13.7574C23.3678 14.8826 23.9999 16.4088 23.9999 18.0001C23.9999 19.5914 23.3678 21.1175 22.2426 22.2427C21.1174 23.3679 19.5912 24.0001 17.9999 24.0001ZM17.9999 21.0001C18.7956 21.0001 19.5587 20.684 20.1213 20.1214C20.6839 19.5588 20.9999 18.7957 20.9999 18.0001C20.9999 17.2044 20.6839 16.4414 20.1213 15.8788C19.5587 15.3161 18.7956 15.0001 17.9999 15.0001C17.2043 15.0001 16.4412 15.3161 15.8786 15.8788C15.316 16.4414 14.9999 17.2044 14.9999 18.0001C14.9999 18.7957 15.316 19.5588 15.8786 20.1214C16.4412 20.684 17.2043 21.0001 17.9999 21.0001Z" fill="white"/>
</g>
<defs>
<clipPath id="clip0_442_1005">
<rect width="36" height="36" fill="white"/>
</clipPath>
</defs>
</svg>
