<svg width="30" height="30" viewBox="0 0 30 30" fill="none" xmlns="http://www.w3.org/2000/svg">
<circle cx="15" cy="15" r="15" fill="#3BB763"/>
<g clip-path="url(#clip0_913_920)">
<path d="M7.50002 9H22.5C22.721 9 22.933 9.07024 23.0893 9.19526C23.2456 9.32029 23.3334 9.48986 23.3334 9.66667V20.3333C23.3334 20.5101 23.2456 20.6797 23.0893 20.8047C22.933 20.9298 22.721 21 22.5 21H7.50002C7.27901 21 7.06704 20.9298 6.91076 20.8047C6.75448 20.6797 6.66669 20.5101 6.66669 20.3333V9.66667C6.66669 9.48986 6.75448 9.32029 6.91076 9.19526C7.06704 9.07024 7.27901 9 7.50002 9ZM21.6667 11.8253L15.06 16.5587L8.33335 11.8107V19.6667H21.6667V11.8253ZM8.75919 10.3333L15.0509 14.7747L21.2517 10.3333H8.75919Z" fill="white"/>
</g>
<defs>
<clipPath id="clip0_913_920">
<rect width="20" height="16" fill="white" transform="translate(5 7)"/>
</clipPath>
</defs>
</svg>
