<svg width="30" height="30" viewBox="0 0 30 30" fill="none" xmlns="http://www.w3.org/2000/svg">
<g clip-path="url(#clip0_913_926)">
<circle cx="15" cy="15" r="15" fill="#3BB763"/>
<path d="M15.912 19.008H14.136V18.64C14.136 18.1493 14.2213 17.7333 14.392 17.392C14.5733 17.0507 14.7973 16.752 15.064 16.496C15.3307 16.2293 15.6027 15.9893 15.88 15.776C16.1253 15.584 16.3493 15.392 16.552 15.2C16.7653 15.008 16.936 14.7947 17.064 14.56C17.192 14.3147 17.256 14.0373 17.256 13.728C17.256 13.3653 17.1813 13.0507 17.032 12.784C16.8933 12.5067 16.6907 12.2933 16.424 12.144C16.1573 11.9947 15.8373 11.92 15.464 11.92C15.0907 11.92 14.7547 12.0107 14.456 12.192C14.168 12.3627 13.944 12.6027 13.784 12.912C13.624 13.2213 13.544 13.584 13.544 14H11.512C11.512 13.232 11.6827 12.5547 12.024 11.968C12.3653 11.3813 12.8347 10.9227 13.432 10.592C14.04 10.2613 14.728 10.096 15.496 10.096C16.3067 10.096 16.9947 10.24 17.56 10.528C18.136 10.816 18.5733 11.2267 18.872 11.76C19.1813 12.2827 19.336 12.896 19.336 13.6C19.336 14.1653 19.2293 14.6507 19.016 15.056C18.8133 15.4507 18.5573 15.7813 18.248 16.048C17.9387 16.3147 17.624 16.56 17.304 16.784C16.92 17.0613 16.5893 17.3387 16.312 17.616C16.0453 17.8933 15.912 18.2347 15.912 18.64V19.008ZM15.096 22.208C14.744 22.208 14.44 22.0853 14.184 21.84C13.928 21.584 13.8 21.2853 13.8 20.944C13.8 20.5813 13.928 20.2773 14.184 20.032C14.44 19.7867 14.744 19.664 15.096 19.664C15.448 19.664 15.752 19.792 16.008 20.048C16.264 20.2933 16.392 20.592 16.392 20.944C16.392 21.2853 16.264 21.584 16.008 21.84C15.752 22.0853 15.448 22.208 15.096 22.208Z" fill="white"/>
</g>
<defs>
<clipPath id="clip0_913_926">
<rect width="30" height="30" fill="white"/>
</clipPath>
</defs>
</svg>
