<svg width="30" height="30" viewBox="0 0 30 30" fill="none" xmlns="http://www.w3.org/2000/svg">
<circle cx="15" cy="15" r="15" fill="#3BB763"/>
<path d="M10.8334 8.33464V21.668H19.1667V8.33464H10.8334ZM10.0001 6.66797H20.0001C20.2211 6.66797 20.4331 6.75577 20.5893 6.91205C20.7456 7.06833 20.8334 7.28029 20.8334 7.5013V22.5013C20.8334 22.7223 20.7456 22.9343 20.5893 23.0906C20.4331 23.2468 20.2211 23.3346 20.0001 23.3346H10.0001C9.77907 23.3346 9.56711 23.2468 9.41083 23.0906C9.25455 22.9343 9.16675 22.7223 9.16675 22.5013V7.5013C9.16675 7.28029 9.25455 7.06833 9.41083 6.91205C9.56711 6.75577 9.77907 6.66797 10.0001 6.66797ZM15.0001 19.168C15.2211 19.168 15.4331 19.2558 15.5893 19.412C15.7456 19.5683 15.8334 19.7803 15.8334 20.0013C15.8334 20.2223 15.7456 20.4343 15.5893 20.5906C15.4331 20.7468 15.2211 20.8346 15.0001 20.8346C14.7791 20.8346 14.5671 20.7468 14.4108 20.5906C14.2545 20.4343 14.1667 20.2223 14.1667 20.0013C14.1667 19.7803 14.2545 19.5683 14.4108 19.412C14.5671 19.2558 14.7791 19.168 15.0001 19.168Z" fill="white"/>
</svg>
