<svg width="36" height="24" viewBox="0 0 36 24" fill="none" xmlns="http://www.w3.org/2000/svg">
<path d="M0.29 12.08C0.29 9.8 0.67 7.81 1.43 6.11C2.21 4.41 3.29 3.08 4.67 2.12C6.07 1.14 7.7 0.649998 9.56 0.649998C11.44 0.649998 13.07 1.14 14.45 2.12C15.85 3.08 16.93 4.41 17.69 6.11C18.47 7.81 18.86 9.8 18.86 12.08C18.86 14.34 18.49 16.32 17.75 18.02C17.01 19.72 15.95 21.04 14.57 21.98C13.19 22.92 11.52 23.39 9.56 23.39C7.64 23.39 5.98 22.92 4.58 21.98C3.2 21.04 2.14 19.72 1.4 18.02C0.66 16.32 0.29 14.34 0.29 12.08ZM4.07 12.08C4.07 13.76 4.29 15.2 4.73 16.4C5.17 17.58 5.8 18.48 6.62 19.1C7.44 19.7 8.42 20 9.56 20C10.74 20 11.73 19.7 12.53 19.1C13.35 18.48 13.98 17.58 14.42 16.4C14.86 15.2 15.08 13.76 15.08 12.08C15.08 10.34 14.86 8.88 14.42 7.7C13.98 6.5 13.35 5.59 12.53 4.97C11.73 4.35 10.74 4.04 9.56 4.04C8.42 4.04 7.44 4.35 6.62 4.97C5.8 5.59 5.17 6.5 4.73 7.7C4.29 8.88 4.07 10.34 4.07 12.08ZM35.0045 4.13L27.0845 11.42L24.5645 9.65L32.2445 2.6L31.5845 4.46H21.0845V1.07H35.0045V4.13ZM27.2345 12.14H24.5645V9.65C24.9445 9.35 25.4445 9.15 26.0645 9.05C26.6845 8.93 27.2645 8.87 27.8045 8.87C28.8445 8.87 29.8345 9.03 30.7745 9.35C31.7145 9.67 32.5445 10.14 33.2645 10.76C34.0045 11.36 34.5845 12.11 35.0045 13.01C35.4245 13.89 35.6345 14.9 35.6345 16.04C35.6345 17.54 35.2845 18.84 34.5845 19.94C33.8845 21.04 32.9245 21.89 31.7045 22.49C30.5045 23.09 29.1645 23.39 27.6845 23.39C26.2445 23.39 24.9445 23.11 23.7845 22.55C22.6445 21.97 21.7345 21.13 21.0545 20.03C20.3945 18.93 20.0645 17.59 20.0645 16.01H23.8445C23.8445 17.27 24.1945 18.25 24.8945 18.95C25.6145 19.63 26.5645 19.97 27.7445 19.97C28.9445 19.97 29.9045 19.61 30.6245 18.89C31.3645 18.15 31.7345 17.18 31.7345 15.98C31.7345 14.88 31.3645 13.97 30.6245 13.25C29.8845 12.51 28.7545 12.14 27.2345 12.14Z" fill="white"/>
</svg>
