<svg width="36" height="24" viewBox="0 0 36 24" fill="none" xmlns="http://www.w3.org/2000/svg">
<path d="M0.29 12.08C0.29 9.8 0.67 7.81 1.43 6.11C2.21 4.41 3.29 3.08 4.67 2.12C6.07 1.14 7.7 0.649998 9.56 0.649998C11.44 0.649998 13.07 1.14 14.45 2.12C15.85 3.08 16.93 4.41 17.69 6.11C18.47 7.81 18.86 9.8 18.86 12.08C18.86 14.34 18.49 16.32 17.75 18.02C17.01 19.72 15.95 21.04 14.57 21.98C13.19 22.92 11.52 23.39 9.56 23.39C7.64 23.39 5.98 22.92 4.58 21.98C3.2 21.04 2.14 19.72 1.4 18.02C0.66 16.32 0.29 14.34 0.29 12.08ZM4.07 12.08C4.07 13.76 4.29 15.2 4.73 16.4C5.17 17.58 5.8 18.48 6.62 19.1C7.44 19.7 8.42 20 9.56 20C10.74 20 11.73 19.7 12.53 19.1C13.35 18.48 13.98 17.58 14.42 16.4C14.86 15.2 15.08 13.76 15.08 12.08C15.08 10.34 14.86 8.88 14.42 7.7C13.98 6.5 13.35 5.59 12.53 4.97C11.73 4.35 10.74 4.04 9.56 4.04C8.42 4.04 7.44 4.35 6.62 4.97C5.8 5.59 5.17 6.5 4.73 7.7C4.29 8.88 4.07 10.34 4.07 12.08ZM35.2423 22.97L20.0323 23V20.12L27.2023 14.06C27.9423 13.44 28.5623 12.87 29.0623 12.35C29.5823 11.83 29.9923 11.34 30.2923 10.88C30.5923 10.42 30.8123 9.96 30.9523 9.5C31.0923 9.04 31.1623 8.54 31.1623 8C31.1623 6.76 30.8423 5.8 30.2023 5.12C29.5623 4.44 28.6623 4.1 27.5023 4.1C26.3023 4.1 25.3523 4.5 24.6523 5.3C23.9523 6.1 23.5923 7.2 23.5723 8.6H19.7623C19.7823 7 20.1123 5.61 20.7523 4.43C21.3923 3.23 22.2923 2.31 23.4523 1.67C24.6123 1.01 25.9623 0.679999 27.5023 0.679999C29.0623 0.679999 30.4023 0.969999 31.5223 1.55C32.6623 2.11 33.5423 2.92 34.1623 3.98C34.7823 5.04 35.0923 6.31 35.0923 7.79C35.0923 8.55 34.9823 9.28 34.7623 9.98C34.5623 10.66 34.2523 11.33 33.8323 11.99C33.4123 12.63 32.8923 13.28 32.2723 13.94C31.6523 14.6 30.9223 15.29 30.0823 16.01L24.7423 20.57L23.3623 19.4H35.2423V22.97Z" fill="white"/>
</svg>
