<svg width="30" height="24" viewBox="0 0 30 24" fill="none" xmlns="http://www.w3.org/2000/svg">
<path d="M0.29 12.08C0.29 9.8 0.67 7.81 1.43 6.11C2.21 4.41 3.29 3.08 4.67 2.12C6.07 1.14 7.7 0.649998 9.56 0.649998C11.44 0.649998 13.07 1.14 14.45 2.12C15.85 3.08 16.93 4.41 17.69 6.11C18.47 7.81 18.86 9.8 18.86 12.08C18.86 14.34 18.49 16.32 17.75 18.02C17.01 19.72 15.95 21.04 14.57 21.98C13.19 22.92 11.52 23.39 9.56 23.39C7.64 23.39 5.98 22.92 4.58 21.98C3.2 21.04 2.14 19.72 1.4 18.02C0.66 16.32 0.29 14.34 0.29 12.08ZM4.07 12.08C4.07 13.76 4.29 15.2 4.73 16.4C5.17 17.58 5.8 18.48 6.62 19.1C7.44 19.7 8.42 20 9.56 20C10.74 20 11.73 19.7 12.53 19.1C13.35 18.48 13.98 17.58 14.42 16.4C14.86 15.2 15.08 13.76 15.08 12.08C15.08 10.34 14.86 8.88 14.42 7.7C13.98 6.5 13.35 5.59 12.53 4.97C11.73 4.35 10.74 4.04 9.56 4.04C8.42 4.04 7.44 4.35 6.62 4.97C5.8 5.59 5.17 6.5 4.73 7.7C4.29 8.88 4.07 10.34 4.07 12.08ZM25.3723 4.52H20.5723V1.07H29.0323V23H25.3723V4.52Z" fill="white"/>
</svg>
