<svg width="31" height="31" viewBox="0 0 31 31" fill="none" xmlns="http://www.w3.org/2000/svg">
<g clip-path="url(#clip0_255_632)">
<path d="M2.82489 27.6907C2.82489 25.0417 3.8772 22.5012 5.75031 20.6281C7.62343 18.755 10.1639 17.7027 12.8129 17.7027C15.4619 17.7027 18.0024 18.755 19.8755 20.6281C21.7486 22.5012 22.8009 25.0417 22.8009 27.6907H20.3039C20.3039 25.704 19.5147 23.7986 18.1099 22.3938C16.705 20.9889 14.7997 20.1997 12.8129 20.1997C10.8262 20.1997 8.9208 20.9889 7.51596 22.3938C6.11112 23.7986 5.3219 25.704 5.3219 27.6907H2.82489ZM12.8129 16.4542C8.67412 16.4542 5.3219 13.102 5.3219 8.96318C5.3219 4.8244 8.67412 1.47217 12.8129 1.47217C16.9517 1.47217 20.3039 4.8244 20.3039 8.96318C20.3039 13.102 16.9517 16.4542 12.8129 16.4542ZM12.8129 13.9572C15.5721 13.9572 17.8069 11.7224 17.8069 8.96318C17.8069 6.20399 15.5721 3.96917 12.8129 3.96917C10.0537 3.96917 7.8189 6.20399 7.8189 8.96318C7.8189 11.7224 10.0537 13.9572 12.8129 13.9572ZM23.1555 18.5804C24.9101 19.3706 26.3991 20.6507 27.4436 22.2669C28.4881 23.883 29.0436 25.7664 29.0434 27.6907H26.5464C26.5467 26.2474 26.1301 24.8348 25.3467 23.6226C24.5633 22.4104 23.4465 21.4503 22.1305 20.8577L23.1543 18.5804H23.1555ZM22.2965 4.4848C23.5544 5.0033 24.6299 5.8838 25.3866 7.01456C26.1433 8.14532 26.5469 9.47537 26.5464 10.8359C26.547 12.5493 25.9068 14.2009 24.7518 15.4664C23.5967 16.7319 22.0102 17.5198 20.3039 17.6752V15.162C21.229 15.0295 22.0872 14.6039 22.7526 13.9478C23.418 13.2916 23.8555 12.4394 24.0009 11.5163C24.1463 10.5932 23.992 9.64773 23.5605 8.8188C23.129 7.98986 22.4432 7.32109 21.6036 6.91064L22.2965 4.4848Z" fill="white"/>
</g>
<defs>
<clipPath id="clip0_255_632">
<rect width="29.9641" height="29.9641" fill="white" transform="translate(0.327881 0.223633)"/>
</clipPath>
</defs>
</svg>
