<svg width="31" height="31" viewBox="0 0 31 31" fill="none" xmlns="http://www.w3.org/2000/svg">
<g clip-path="url(#clip0_255_635)">
<path d="M19.1323 10.2702H27.1227C27.7849 10.2702 28.4201 10.5333 28.8883 11.0016C29.3566 11.4699 29.6197 12.105 29.6197 12.7672V15.3941C29.62 15.7204 29.5564 16.0436 29.4324 16.3454L25.5683 25.7279C25.4741 25.9567 25.314 26.1523 25.1083 26.2899C24.9027 26.4275 24.6609 26.5009 24.4134 26.5008H3.40115C3.07003 26.5008 2.75247 26.3692 2.51833 26.1351C2.28419 25.9009 2.15265 25.5834 2.15265 25.2523V12.7672C2.15265 12.4361 2.28419 12.1185 2.51833 11.8844C2.75247 11.6503 3.07003 11.5187 3.40115 11.5187H7.74844C7.94832 11.5188 8.14529 11.4708 8.32279 11.3789C8.50029 11.287 8.65313 11.1539 8.76846 10.9906L15.5765 1.34343C15.6626 1.22147 15.7895 1.13439 15.9343 1.09797C16.0791 1.06155 16.2321 1.07821 16.3656 1.14492L18.6304 2.27731C19.2677 2.59589 19.7769 3.12294 20.0733 3.77092C20.3697 4.41889 20.4355 5.14877 20.2597 5.83929L19.1323 10.2702ZM9.64366 13.5014V24.0038H23.577L27.1227 15.3941V12.7672H19.1323C18.752 12.7672 18.3767 12.6803 18.0351 12.5131C17.6935 12.346 17.3946 12.103 17.1612 11.8027C16.9278 11.5025 16.7661 11.1529 16.6884 10.7806C16.6106 10.4084 16.6189 10.0233 16.7127 9.65472L17.8401 5.22503C17.8754 5.08685 17.8623 4.94076 17.803 4.81106C17.7437 4.68136 17.6418 4.57587 17.5142 4.51213L16.689 4.10013L10.8085 12.4301C10.4964 12.8721 10.0969 13.2342 9.64366 13.5014ZM7.14666 14.0157H4.64965V24.0038H7.14666V14.0157Z" fill="white"/>
</g>
<defs>
<clipPath id="clip0_255_635">
<rect width="29.9641" height="29.9641" fill="white" transform="translate(0.904175 0.282227)"/>
</clipPath>
</defs>
</svg>
