<svg width="31" height="30" viewBox="0 0 31 30" fill="none" xmlns="http://www.w3.org/2000/svg">
<path d="M25.9269 9.83048H27.3412C28.0476 9.83048 28.7251 10.1111 29.2246 10.6106C29.7241 11.1101 30.0047 11.7876 30.0047 12.494V17.8209C30.0047 18.5273 29.7241 19.2048 29.2246 19.7043C28.7251 20.2038 28.0476 20.4844 27.3412 20.4844H25.9269C25.6022 23.059 24.3491 25.4267 22.4028 27.143C20.4564 28.8594 17.9506 29.8065 15.3556 29.8065V27.1431C17.4748 27.1431 19.5072 26.3012 21.0057 24.8027C22.5042 23.3042 23.346 21.2718 23.346 19.1526V11.1622C23.346 9.04303 22.5042 7.01064 21.0057 5.51214C19.5072 4.01365 17.4748 3.1718 15.3556 3.1718C13.2364 3.1718 11.204 4.01365 9.7055 5.51214C8.20701 7.01064 7.36516 9.04303 7.36516 11.1622V20.4844H3.36995C2.66356 20.4844 1.98609 20.2038 1.48659 19.7043C0.987097 19.2048 0.706482 18.5273 0.706482 17.8209V12.494C0.706482 11.7876 0.987097 11.1101 1.48659 10.6106C1.98609 10.1111 2.66356 9.83048 3.36995 9.83048H4.78426C5.10924 7.2561 6.36247 4.88877 8.30879 3.1727C10.2551 1.45663 12.7608 0.509766 15.3556 0.509766C17.9504 0.509766 20.456 1.45663 22.4024 3.1727C24.3487 4.88877 25.6019 7.2561 25.9269 9.83048ZM3.36995 12.494V17.8209H4.70169V12.494H3.36995ZM26.0095 12.494V17.8209H27.3412V12.494H26.0095ZM9.70902 20.198L11.1207 17.9394C12.3899 18.7345 13.8579 19.1551 15.3556 19.1526C16.8533 19.1551 18.3213 18.7345 19.5905 17.9394L21.0021 20.198C19.3098 21.2583 17.3526 21.8192 15.3556 21.8161C13.3586 21.8192 11.4013 21.2583 9.70902 20.198Z" fill="white"/>
</svg>
