<svg width="430" height="1003" viewBox="0 0 430 1003" fill="none" xmlns="http://www.w3.org/2000/svg">
<g opacity="0.85">
<path opacity="0.03" d="M44.8183 149.285C53.6814 237.002 66.6857 321.654 99.3941 406.703C107.537 429.604 119.311 448.027 132.616 465.476C147.456 481.942 166.904 495.456 189.547 500.454C193.598 500.025 197.094 502.12 202.128 503.226C227.844 506.253 250.621 504.679 276.89 505.189C306.654 507.794 332.93 508.308 361.163 511.888C399.46 517.687 432.599 528.949 465.604 546.784C537.634 585.087 592.09 643.264 641.392 706.897C662.117 732.57 683.402 755.729 705.658 780.428C711.118 785.593 716.574 790.747 723.568 794.93C768.215 837.754 816.62 869.524 875.348 890.389C880.382 891.495 883.325 896.107 888.358 897.213C909.04 899.134 924.568 906.511 943.715 909.414C1003.68 918.67 1060.7 923.323 1119.16 925.922" fill="#3BB763"/>
<path opacity="0.0552" d="M94.1453 369.502C98.1543 382.078 102.401 393.803 106.772 404.354C111.046 414.672 115.584 424.221 120.256 432.746C124.808 441.036 129.648 448.655 134.653 455.374C139.497 461.875 144.664 467.779 150.013 472.922C165.67 487.968 183.692 497.565 206.738 503.129C216.26 505.427 226.693 507.086 239.572 508.347C251.05 509.47 263.003 510.141 275.659 510.855C285.665 511.414 296.004 512 306.747 512.841C328.949 514.591 352.759 516.716 378.228 521.741C406.894 527.397 433.35 535.912 459.107 547.783C460.771 548.553 462.443 549.343 464.102 550.145C462.44 549.351 460.776 548.503 459.108 547.741C433.352 535.87 406.892 527.344 378.222 521.696C352.75 516.677 328.944 514.546 306.734 512.792C295.992 511.951 285.649 511.373 275.646 510.807C262.987 510.099 251.034 509.428 239.559 508.298C226.683 507.03 216.258 505.374 206.736 503.077C183.704 497.519 165.689 487.925 150.04 472.882C144.69 467.739 139.53 461.838 134.694 455.34C129.696 448.624 124.853 441.013 120.301 432.723C115.626 424.205 111.091 414.649 106.813 404.337C102.443 393.787 98.1958 382.061 94.1836 369.493C77.5067 317.196 63.4642 245.952 51.2459 151.694L51.1964 151.69C63.4186 245.957 77.4612 317.202 94.1453 369.502Z" fill="#3BB763"/>
<path opacity="0.0803" d="M97.4954 353.16C104.701 377.385 112.229 397.786 120.493 415.527C128.426 432.537 136.795 446.575 146.09 458.441C154.829 469.597 164.191 478.585 174.713 485.901C184.288 492.557 194.774 497.793 206.781 501.885C229.391 509.604 254.196 512.298 282.91 515.411C292.482 516.449 302.379 517.528 312.679 518.844C317.089 519.416 321.454 519.952 326.068 520.528C407.293 530.602 507.09 542.973 631.976 679.753C640.487 689.07 649.117 698.974 657.865 709.488C670.498 724.679 683.404 739.138 696.227 752.46C708.636 765.357 721.354 777.592 734.025 788.825C746.237 799.657 758.797 809.895 771.344 819.266C783.382 828.25 795.813 836.736 808.286 844.467C831.626 858.943 855.533 871.184 881.364 881.874C903.695 891.122 927.448 899.174 953.989 906.506C997.925 918.641 1041.19 925.8 1083.03 932.734C1100.24 935.581 1117.29 938.412 1134.25 941.535L1134.35 941.467C1117.14 938.285 1099.9 935.432 1083.02 932.636C1041.18 925.709 997.917 918.543 953.988 906.411C875.476 884.726 782.706 847.4 682.48 737.628C674.347 728.719 666.154 719.327 657.925 709.429C641.308 689.45 624.472 670.94 607.882 654.423C592.202 638.807 576.259 624.485 560.507 611.874C545.736 600.04 530.656 589.334 515.693 580.038C501.822 571.424 487.562 563.729 473.317 557.169C448.793 545.877 423.322 537.427 395.464 531.345C370.972 525.995 348.137 523.165 326.053 520.427C321.436 519.857 317.073 519.315 312.664 518.743C302.374 517.422 292.467 516.348 282.895 515.31C230.367 509.614 188.151 505.034 153.464 467.041C150.988 464.33 148.554 461.448 146.154 458.392C127.415 434.474 111.53 400.049 97.5792 353.146C82.7531 303.318 69.7073 238.208 57.6764 154.098L57.5845 154.092C69.6122 238.209 82.6724 303.325 97.4954 353.16Z" fill="#3BB763"/>
<path opacity="0.1055" d="M105.568 352.313C112.9 376.292 120.479 396.536 128.746 414.193C136.692 431.174 145.036 445.27 154.254 457.29C170.738 478.776 189.872 493.235 214.483 502.793C236.972 511.525 261.858 515.536 290.662 520.178C299.647 521.627 308.948 523.122 318.615 524.838C328.638 526.626 338.759 528.173 349.471 529.801C428.398 541.845 525.748 556.696 646.234 688.658C651.932 694.9 657.691 701.411 663.496 708.191C669.423 715.119 675.373 721.843 681.342 728.385C723.496 774.555 766.877 811.288 813.35 840.226C817.518 842.825 821.731 845.34 825.953 847.816C779.616 820.615 731.44 783.071 681.351 728.209C675.461 721.761 669.529 715.054 663.59 708.112C606.364 641.27 549.538 595.25 489.868 567.406C466.655 556.573 442.479 548.213 415.949 541.85C392.601 536.247 370.664 532.903 349.454 529.665C338.745 528.029 328.621 526.489 318.598 524.702C308.931 522.985 299.633 521.483 290.645 520.041C261.84 515.4 236.962 511.392 214.498 502.662C189.919 493.109 170.807 478.678 154.345 457.219C135.81 433.055 119.894 398.737 105.694 352.3C90.7061 303.287 77.1018 239.247 64.104 156.507L63.9626 156.496C76.9716 239.25 90.5727 303.297 105.568 352.313Z" fill="#3BB763"/>
<path opacity="0.1306" d="M113.722 351.692C121.198 375.442 128.844 395.534 137.108 413.121C145.081 430.08 153.407 444.236 162.571 456.397C178.997 478.209 198.035 493.314 222.496 503.95C244.921 513.704 269.987 519.059 299.004 525.264C307.225 527.022 315.72 528.84 324.548 530.84C339.289 534.196 354.381 536.735 370.369 539.43C447.448 552.404 542.873 568.46 660.173 696.924C663.142 700.171 666.137 703.516 669.128 706.911C672.416 710.643 675.708 714.308 679.019 717.931C723.266 766.392 768.989 805.107 818.423 836.007C860.77 862.485 906.08 883.641 965.327 904.615C1008.69 919.966 1050.65 931.125 1091.22 941.92C1101.24 944.582 1111.21 947.239 1121.13 949.937L1121.33 949.804C1111.39 947.104 1101.36 944.429 1091.23 941.733C1050.66 930.938 1008.71 919.782 965.347 904.435C876.216 872.889 779.995 828.266 678.869 717.512C675.676 714.011 672.466 710.433 669.26 706.806C666.213 703.343 663.163 699.948 660.112 696.613C609.083 640.725 558.129 601.368 504.672 576.518C482.585 566.251 459.531 558.173 434.189 551.827C411.853 546.233 390.762 542.686 370.371 539.25C354.391 536.559 339.298 534.019 324.557 530.663C315.729 528.663 307.234 526.845 299.013 525.088C240.55 512.598 198.301 503.556 162.726 456.319C144.359 431.929 128.391 397.708 113.919 351.693C98.7588 303.498 84.5743 240.44 70.5678 158.932L70.384 158.92C84.3657 240.426 98.5503 303.484 113.722 351.692Z" fill="#3BB763"/>
<path opacity="0.1558" d="M171.079 455.829C206.622 503.8 249.167 515.132 308.05 530.801C315.271 532.718 322.743 534.712 330.474 536.838C349.237 542.032 368.668 545.422 389.239 549.014C468.747 562.898 558.811 578.624 673.774 704.533C674.462 705.293 675.171 706.062 675.859 706.822C722.361 757.751 770.661 798.636 823.464 831.782C876.22 864.898 927.637 886.697 970.985 903.648C1013.42 920.248 1054.18 933.106 1093.6 945.541C1101.28 947.965 1108.95 950.387 1116.58 952.82L1116.82 952.661C1109.13 950.212 1101.41 947.769 1093.61 945.315C1054.2 932.879 1013.44 920.025 971.013 903.428C863.303 861.29 771.863 811.666 676.026 706.698C675.338 705.938 674.636 705.172 673.94 704.409C622.796 648.392 571.801 609.206 518.086 584.629C470.881 563.032 427.493 555.457 389.217 548.772C368.653 545.183 349.232 541.789 330.477 536.598C322.745 534.472 315.281 532.482 308.052 530.561C249.234 514.903 206.739 503.594 171.253 455.708C134.573 406.203 106.376 318.167 76.9698 161.322L76.7405 161.315C106.153 318.205 134.366 406.283 171.079 455.829Z" fill="#3BB763"/>
<path opacity="0.181" d="M130.34 351.268C145.693 397.294 161.416 430.451 179.817 455.64C196.239 478.104 215.263 494.544 239.688 507.366C262.262 519.216 288.084 527.434 317.98 536.945C323.922 538.839 330.07 540.79 336.382 542.839C358.642 550.085 381.859 554.116 406.433 558.384C483.109 571.705 570.019 586.803 680.376 704.329C726.682 753.64 775.127 793.961 828.492 827.588C879.601 859.796 929.892 882.722 976.629 902.711C1017.58 920.22 1056.7 934.466 1094.52 948.239C1100.77 950.517 1106.96 952.772 1113.12 955.026L1113.39 954.847C1107.14 952.559 1100.87 950.269 1094.56 947.97C1056.74 934.193 1017.62 919.947 976.68 902.441C883.742 862.71 784.318 814.667 680.548 704.155C631.311 651.725 582.199 615.015 530.408 591.941C485.127 571.771 443.308 564.501 406.415 558.093C381.849 553.827 358.642 549.793 336.404 542.556C330.092 540.507 323.944 538.556 318.002 536.662C258.499 517.725 215.512 504.047 180.026 455.499C161.644 430.345 145.943 397.215 130.599 351.227C115.061 304.664 99.6239 243.332 83.3934 163.723L83.1218 163.714C99.3603 243.344 114.802 304.687 130.34 351.268Z" fill="#3BB763"/>
<path opacity="0.2061" d="M188.849 455.913C205.348 478.747 224.486 495.882 249.081 509.838C271.913 522.799 298.401 532.585 329.075 543.918C333.392 545.516 337.806 547.148 342.329 548.828C367.643 558.293 394.183 562.725 422.275 567.422C496.214 579.774 580.021 593.776 686.039 703.036C731.75 750.149 779.999 789.515 833.555 823.389C879.949 852.74 926.582 875.942 982.329 901.744C1021.12 919.701 1058.05 934.918 1093.77 949.633C1099.44 951.966 1105.06 954.288 1110.66 956.607L1110.97 956.409C1105.29 954.062 1099.58 951.703 1093.83 949.331C1058.12 934.619 1021.18 919.402 982.399 901.448C879.662 853.895 786.468 806.119 686.248 702.836C638.929 654.066 591.706 619.954 541.892 598.537C498.301 579.801 459.641 573.343 422.263 567.098C394.186 562.408 367.67 557.978 342.385 548.526C337.87 546.85 333.448 545.214 329.131 543.616C266.249 520.374 224.71 505.013 189.12 455.766C153.093 405.912 124.338 322 89.853 166.137L89.5358 166.134C124.006 322.051 152.784 406.008 188.849 455.913Z" fill="#3BB763"/>
<path opacity="0.2313" d="M147.579 352.277C163.783 397.974 179.871 431.181 198.218 456.784C234.169 506.948 276.916 524.89 341.636 552.05L348.247 554.824C376.27 566.647 405.724 571.24 436.91 576.099C508.381 587.24 589.397 599.872 691.664 701.754C737.333 747.249 784.005 784.576 838.548 819.213C887.247 850.142 937.018 875.453 987.969 900.796C1023.81 918.619 1057.89 934.254 1090.86 949.371C1096.94 952.16 1102.96 954.924 1108.95 957.686L1109.3 957.468C1103.21 954.665 1097.09 951.86 1090.94 949.036C1057.98 933.915 1023.89 918.284 988.055 900.464C878.896 846.168 787.776 797.046 691.881 701.515C646.219 656.023 600.652 624.294 552.566 604.518C510.472 587.201 473.05 581.367 436.867 575.728C405.706 570.871 376.277 566.28 348.304 554.48L341.694 551.705C277.052 524.58 234.356 506.661 198.499 456.616C162.571 406.479 133.902 325.701 96.2587 168.538L95.896 168.541C115.025 248.424 131.449 306.803 147.579 352.277Z" fill="#3BB763"/>
<path opacity="0.2565" d="M156.268 352.841C172.917 398.485 189.189 431.782 207.478 457.634C243.98 509.255 287.818 529.769 354.155 560.825C384.585 575.123 416.621 579.635 450.541 584.42C519.787 594.174 598.276 605.242 697.288 700.473C741.849 743.336 787.897 779.467 842.192 814.201C890.545 845.132 939.235 870.98 990.776 898.339L993.631 899.858C1025.54 916.798 1055.97 932.124 1085.4 946.951C1093.02 950.791 1100.53 954.576 1107.96 958.333L1108.34 958.093C1100.78 954.272 1093.17 950.435 1085.5 946.573C1056.07 931.749 1025.65 916.43 993.737 899.483L990.889 897.967C890.181 844.497 795.06 793.995 697.539 700.197C598.394 604.838 519.824 593.76 450.499 583.989C416.619 579.212 384.615 574.706 354.249 560.437C287.989 529.422 244.222 508.94 207.796 457.439C172.684 407.792 143.209 327.458 102.682 170.938L102.281 170.951C122.919 250.649 140.073 308.447 156.268 352.841Z" fill="#3BB763"/>
<path opacity="0.2816" d="M214.912 455.973C250.684 508.682 293.377 532.431 360.076 566.814C392.676 583.678 426.984 587.896 463.315 592.362C530.546 600.623 606.744 609.982 702.93 699.19C793.767 783.429 883.005 833.559 977.494 886.638C984.708 890.695 991.972 894.773 999.288 898.892C1026.1 914.009 1051.84 928.083 1076.74 941.689C1087.19 947.398 1097.45 953.015 1107.56 958.578L1107.97 958.319C1097.77 952.71 1087.41 947.042 1076.87 941.281C1051.98 927.678 1026.24 913.605 999.424 898.487C992.111 894.361 984.847 890.283 977.633 886.227C883.187 833.167 793.968 783.053 703.193 698.868C606.86 609.525 530.565 600.15 463.257 591.889C426.975 587.427 392.706 583.219 360.201 566.396C293.602 532.058 250.964 508.341 215.279 455.766C181.531 406.05 152.757 329.501 109.109 173.331L108.659 173.356C152.335 329.598 181.132 406.192 214.912 455.973Z" fill="#3BB763"/>
<path opacity="0.3068" d="M222.358 454.306C239.191 480.144 257.534 500.188 281.815 519.312C304.517 537.18 330.854 553.032 365.995 572.808C400.546 592.323 436.876 596.032 475.335 599.967C540.725 606.649 614.849 614.223 708.57 697.912C792.217 772.609 874.954 821.312 962.541 872.881C976.343 881.009 990.612 889.404 1004.95 897.951C1025.27 910.049 1044.98 921.626 1064.05 932.822C1078.95 941.561 1093.48 950.098 1107.68 958.517L1108.13 958.239C1093.84 949.768 1079.21 941.178 1064.22 932.381C1045.15 921.185 1025.43 909.608 1005.13 897.513C990.785 888.973 976.519 880.571 962.717 872.443C875.163 820.897 792.465 772.202 708.863 697.56C614.98 613.73 540.758 606.148 475.268 599.456C436.874 595.532 400.603 591.824 366.161 572.374C302.895 536.764 258.729 509.301 222.771 454.111C186.271 398.087 156.924 313.061 115.551 175.745L115.063 175.779C156.449 313.143 185.808 398.218 222.358 454.306Z" fill="#3BB763"/>
<path opacity="0.3319" d="M229.792 452.647C263.755 506.939 302.681 536.585 371.909 578.795C408.245 601.026 446.346 604.038 486.693 607.241C550.42 612.294 622.642 618.021 714.207 696.62C790.2 761.853 865.769 808.069 945.766 856.998C966.774 869.842 988.491 883.127 1010.6 896.982C1022.7 904.565 1034.57 911.968 1046.2 919.234C1067.62 932.601 1088.28 945.497 1108.23 958.151L1108.7 957.858C1088.7 945.177 1067.99 932.242 1046.41 918.774C1034.77 911.507 1022.9 904.104 1010.8 896.522C988.687 882.663 966.971 869.378 945.962 856.534C865.984 807.622 790.44 761.426 714.499 696.233C622.753 617.477 550.415 611.742 486.596 606.682C446.33 603.489 408.289 600.478 372.098 578.328C302.972 536.181 264.119 506.583 230.24 452.432C196.232 398.068 168.231 320.665 121.96 178.14L121.43 178.19C167.718 320.774 195.738 398.212 229.792 452.647Z" fill="#3BB763"/>
<path opacity="0.3571" d="M237.23 450.979C253.725 478.439 271.931 501.012 294.545 522.058C315.151 541.226 340.055 559.989 377.83 584.783C415.784 609.777 453.643 611.838 497.474 614.224C559.674 617.613 630.171 621.442 719.857 695.34C787.667 751.212 855.391 793.866 927.095 839.019C955.836 857.12 985.554 875.834 1016.27 896.029L1021.65 899.567C1052.35 919.748 1081.48 938.888 1109.18 957.556L1109.68 957.24C1081.88 938.509 1052.68 919.31 1021.88 899.069L1016.5 895.539C985.777 875.348 956.055 856.624 927.314 838.523C855.639 793.382 787.937 750.737 720.167 694.91C630.283 620.855 559.666 617.008 497.364 613.617C453.625 611.236 415.851 609.178 378.064 584.293C312.233 541.073 272.452 508.554 237.738 450.764C203.797 394.263 174.082 311.276 128.404 180.532L127.837 180.608C173.517 311.388 203.247 394.416 237.23 450.979Z" fill="#3BB763"/>
<path opacity="0.3823" d="M146.215 214.998C234.269 449.738 252.599 498.585 383.735 590.771C423.179 618.582 462.362 619.672 507.728 620.939C568.534 622.636 637.446 624.561 725.492 694.052C784.614 740.717 843.82 778.782 906.5 819.088C943.465 842.853 981.695 867.435 1021.92 895.065C1053.02 916.428 1082.45 936.832 1110.37 956.773L1110.99 956.381C1082.64 936.193 1053.05 915.744 1022.18 894.534C981.941 866.899 943.711 842.316 906.734 818.538C844.072 778.249 784.888 740.193 725.803 693.562C637.548 623.901 568.502 621.968 507.587 620.266C462.33 619.004 423.253 617.91 384.005 590.237C253.099 498.212 234.792 449.41 146.816 214.885C142.951 204.592 138.959 193.943 134.809 182.913L134.205 183.016C138.362 194.049 142.353 204.698 146.215 214.998Z" fill="#3BB763"/>
<path opacity="0.4074" d="M172.702 265.651C209.451 358.025 233.72 419.052 263.497 467.108C292.717 514.28 328.087 550.631 389.649 596.757C430.466 627.419 470.812 627.414 517.534 627.422C577.061 627.419 644.526 627.422 731.138 692.779C781.071 730.455 831.123 763.013 884.108 797.478C929.732 827.151 976.912 857.838 1027.57 894.115C1057.23 915.347 1085.29 935.781 1111.91 955.801L1112.57 955.379C1086.06 935.526 1057.96 915.104 1027.87 893.566C977.192 857.282 930.005 826.592 884.37 796.906C831.392 762.444 781.358 729.902 731.451 692.247C644.608 626.71 577.003 626.714 517.359 626.708C470.771 626.708 430.541 626.704 389.955 596.221C268.763 505.417 248.542 454.599 173.331 265.533C163.833 241.646 153.058 214.58 141.23 185.32L140.588 185.449C152.429 214.698 163.195 241.768 172.702 265.651Z" fill="#3BB763"/>
<path opacity="0.4326" d="M196.684 305.348C259.624 456.735 283.17 513.383 395.554 602.746C437.631 636.297 479.008 635.088 526.929 633.689C585.279 631.988 651.415 630.054 736.777 691.504C777.089 720.524 817.473 746.832 860.22 774.683C914.797 810.239 971.221 847.006 1033.23 893.156C1061.5 914.2 1088.36 934.547 1113.9 954.53L1114.42 954.206C1088.89 934.17 1061.98 913.73 1033.57 892.576C971.545 846.409 915.099 809.632 860.511 774.063C817.771 746.216 777.409 719.917 737.108 690.91C651.491 629.279 585.211 631.209 526.737 632.917C478.982 634.31 437.735 635.517 395.925 602.179C283.75 512.986 260.225 456.407 197.368 305.203C183.213 271.164 167.175 232.586 147.667 187.709L146.995 187.868C166.499 232.734 182.536 271.313 196.684 305.348Z" fill="#3BB763"/>
<path opacity="0.4577" d="M218.148 336.26C245.2 399.456 264.746 445.123 290.847 486.625C318.057 529.899 351.141 566.418 401.468 608.732C444.72 645.193 487.003 642.672 535.961 639.763C593.226 636.352 658.139 632.492 742.426 690.224C772.801 711.034 803.127 730.61 835.238 751.344C898.878 792.436 964.696 834.927 1038.88 892.204C1065.89 913.058 1091.48 933.331 1115.86 953.289L1116.51 952.87C1092.86 933.516 1067.24 913.216 1039.25 891.601C965.018 834.296 899.189 791.79 835.527 750.689C803.428 729.969 773.112 710.389 742.741 689.589C658.185 631.669 593.121 635.539 535.722 638.96C486.947 641.864 444.825 644.371 401.874 608.163C297.896 520.724 273.123 462.863 218.862 336.103C201.152 294.73 181.08 247.84 154.086 190.098L153.38 190.294C180.373 248.018 200.442 294.897 218.148 336.26Z" fill="#3BB763"/>
<path opacity="0.4829" d="M237.226 360.285C260.439 413.715 278.774 455.914 303.383 495.398C329.499 537.312 361.576 574.108 407.382 614.717C451.729 654.113 494.798 650.202 544.669 645.674C600.938 640.567 664.719 634.771 748.073 688.951C768.336 702.119 788.454 714.836 809.742 728.294C882.355 774.192 957.437 821.647 1044.53 891.241C1070.31 911.846 1094.76 932.001 1118.05 951.881L1118.79 951.409C1095.86 931.893 1071.32 911.7 1044.94 890.615C957.8 820.981 882.685 773.504 810.05 727.596C788.762 714.138 768.648 701.431 748.396 688.259C664.748 633.889 600.815 639.696 544.4 644.824C494.736 649.331 451.845 653.227 407.837 614.135C311.076 528.371 285.12 468.611 237.979 360.119C217.663 313.353 194.632 260.348 160.502 192.494L159.77 192.73C193.887 260.535 216.914 313.53 237.226 360.285Z" fill="#3BB763"/>
<path opacity="0.5081" d="M254.152 378.963C295.343 473.627 322.554 536.17 413.282 620.696C458.651 663.055 502.414 657.67 553.081 651.438C608.434 644.627 671.169 636.915 753.722 687.671C763.847 693.899 774.053 700.12 784.357 706.411C865.6 755.985 949.614 807.248 1050.18 890.281C1074.81 910.617 1098.22 930.568 1120.55 950.278L1121.28 949.814C1099.21 930.352 1075.76 910.364 1050.63 889.629C949.996 806.54 865.946 755.26 784.663 705.66C774.359 699.37 764.153 693.148 754.028 686.92C671.171 635.978 608.27 643.712 552.774 650.537C502.335 656.74 458.781 662.098 413.789 620.094C323.257 535.749 296.088 473.302 254.957 378.777C232.809 327.882 207.706 270.202 166.932 194.862L166.18 195.14C206.932 270.436 232.019 328.092 254.152 378.963Z" fill="#3BB763"/>
<path opacity="0.5332" d="M269.244 393.554C306.679 480.425 333.721 543.177 419.193 626.671C465.524 672.01 509.881 665.089 561.245 657.084C615.742 648.588 677.52 638.956 759.372 686.391L759.81 686.644C844.937 735.974 941.418 791.885 1055.84 889.314C1079.41 909.388 1101.84 929.114 1123.19 948.596L1123.91 948.139C1102.53 928.637 1080.04 908.843 1056.33 888.646C941.826 791.136 845.288 735.2 760.114 685.841L759.675 685.587C677.486 637.96 615.552 647.618 560.897 656.139C509.799 664.107 465.659 670.986 419.745 626.063C334.466 542.775 307.46 480.099 270.088 393.359C246.729 339.15 220.253 277.706 173.34 197.237L172.567 197.567C219.437 277.974 245.905 339.38 269.244 393.554Z" fill="#3BB763"/>
<path opacity="0.5584" d="M282.808 405.044C316.995 485.929 344.024 549.819 425.104 632.663C472.342 680.992 517.215 672.493 569.178 662.645C622.887 652.467 683.771 640.926 765.029 685.131C851.241 732.023 945.141 786.339 1061.49 888.368C1083.98 908.098 1105.4 927.584 1125.86 946.893L1126.68 946.372C1106.19 927.078 1084.66 907.537 1062.02 887.673C945.565 785.554 851.589 731.197 765.315 684.268C683.71 639.876 622.656 651.453 568.79 661.656C517.116 671.451 472.484 679.911 425.712 632.045C344.779 549.396 317.832 485.61 283.701 404.853C259.598 347.83 232.283 283.203 179.759 199.626L178.971 200.009C231.434 283.49 258.728 348.065 282.808 405.044Z" fill="#3BB763"/>
<path opacity="0.5835" d="M295.135 414.155C326.46 490.284 353.52 556.071 431.014 638.638C479.111 689.989 524.435 679.847 576.924 668.107C629.902 656.256 689.952 642.824 770.689 683.848C854.852 726.618 949.017 780.878 1067.14 887.402C1088.66 906.802 1109.16 925.993 1128.77 945.033L1129.61 944.5C1109.89 925.412 1089.3 906.165 1067.71 886.688C949.457 780.057 855.197 725.738 770.948 682.93C689.847 641.719 629.615 655.191 576.484 667.078C524.319 678.747 479.261 688.833 431.668 638.016C354.351 555.553 327.343 489.96 296.07 413.966C271.585 354.46 243.826 287.022 186.175 202.006L185.375 202.452C242.947 287.339 270.671 354.719 295.135 414.155Z" fill="#3BB763"/>
<path opacity="0.6087" d="M306.459 421.447C335.216 493.654 362.387 561.856 436.917 644.61C437.241 644.968 437.553 645.313 437.873 645.66C486.423 698.828 531.895 687.084 584.49 673.489C636.783 659.976 696.06 644.654 776.342 682.561C848.817 716.777 948.016 770.879 1072.79 886.422C1093.36 905.472 1112.98 924.335 1131.8 943.075L1132.64 942.535C1113.75 923.735 1094.04 904.802 1073.4 885.685C948.471 770.005 849.149 715.832 776.58 681.573C695.913 643.488 636.455 658.85 584.002 672.413C529.611 686.47 486.572 697.595 438.605 645.055C438.281 644.697 437.951 644.336 437.623 643.967C363.264 561.41 336.151 493.327 307.435 421.242C281.628 356.455 254.947 289.459 192.571 204.35L191.771 204.857C254.039 289.84 280.683 356.743 306.459 421.447Z" fill="#3BB763"/>
<path opacity="0.6339" d="M198.18 207.327C264.766 291.259 291.308 360.439 316.983 427.336C344.614 499.345 370.716 567.359 442.821 650.599C465.628 676.951 488.752 690.187 515.62 692.261C539.843 694.13 565.135 686.708 591.914 678.841C643.571 663.671 702.121 646.488 781.998 681.3C886.133 726.684 977.553 789.649 1078.44 885.475C1098.11 904.153 1116.89 922.683 1134.94 941.089L1135.79 940.538C1117.63 921.992 1098.74 903.401 1079.08 884.729C978.058 788.78 886.499 725.719 782.206 680.265C701.933 645.278 643.192 662.523 591.368 677.74C536.226 693.926 492.693 706.733 443.566 649.964C371.644 566.935 345.583 499.042 318 427.157C292.287 360.149 265.702 290.873 198.962 206.744L198.18 207.327Z" fill="#3BB763"/>
<path opacity="0.659" d="M204.595 209.766C275.199 291.826 301.469 363.14 326.884 432.106C352.32 501.159 378.629 572.559 448.742 656.57C499.173 717.063 543.337 702.538 599.233 684.14C650.287 667.335 708.164 648.29 787.673 680.023C887.493 719.87 981.689 784.845 1084.1 884.504C1102.89 902.784 1120.89 920.946 1138.16 939.03L1139.08 938.447C1121.7 920.284 1103.62 902.066 1084.8 883.746C982.23 783.931 887.874 718.851 787.857 678.925C707.942 647.021 649.881 666.132 598.654 682.998C543.18 701.256 499.39 715.696 449.554 655.939C379.628 572.149 353.367 500.873 327.968 431.948C302.509 362.851 276.187 291.402 205.396 209.121L204.595 209.766Z" fill="#3BB763"/>
<path opacity="0.6842" d="M211.014 212.214C212.633 213.944 214.226 215.672 215.805 217.393C286.451 294.766 310.67 363.419 336.268 436.002C360.81 505.58 386.183 577.521 454.653 662.544C505.809 726.127 550.231 709.927 606.459 689.396C656.953 670.959 714.189 650.073 793.348 678.744C890.687 714.003 984.874 779.077 1089.76 883.537C1107.71 901.409 1124.95 919.195 1141.51 936.894L1142.39 936.323C1125.69 918.441 1108.4 900.587 1090.5 882.751C985.423 778.107 891.048 712.915 793.493 677.578C713.912 648.755 656.489 669.713 605.821 688.211C550.05 708.566 506.007 724.649 455.514 661.9C387.227 577.105 361.902 505.288 337.405 435.842C311.177 361.475 286.405 291.21 211.792 211.465L211.014 212.214Z" fill="#3BB763"/>
<path opacity="0.7094" d="M217.426 214.662C295.335 291.072 319.564 363.015 345.234 439.191C368.931 509.532 393.441 582.279 460.553 668.525C512.426 735.255 557.072 717.322 613.596 694.642C663.562 674.595 720.19 651.875 799.001 677.476C892.855 707.969 989.808 775.057 1095.4 882.58C1112.55 900.042 1129.01 917.432 1144.84 934.757L1145.82 934.132C1129.83 916.657 1113.29 899.207 1096.17 881.778C990.38 774.054 893.209 706.818 799.105 676.249C719.864 650.509 663.042 673.299 612.907 693.417C556.867 715.898 512.607 733.657 461.466 667.879C394.538 581.86 370.077 509.255 346.417 439.043C320.688 362.669 296.373 290.533 218.179 213.833L217.426 214.662Z" fill="#3BB763"/>
<path opacity="0.7345" d="M223.852 217.114C305.105 289.987 327.704 360.341 353.872 441.795C375.71 509.783 400.467 586.837 466.46 674.507C519.017 744.36 563.885 724.719 620.702 699.855C670.163 678.208 726.222 653.68 804.672 676.205C896.601 702.605 993.545 769.792 1101.05 881.62C1112.94 893.986 1124.45 906.274 1135.69 918.583C1139.94 923.242 1144.14 927.9 1148.3 932.552L1149.3 931.916C1145.22 927.372 1141.14 922.825 1137 918.295C1125.55 905.76 1113.83 893.245 1101.87 880.809C994.136 768.746 896.935 701.402 804.723 674.921C725.83 652.268 669.579 676.884 619.956 698.604C563.67 723.239 519.202 742.696 467.423 673.865C401.607 586.437 376.899 509.525 355.106 441.669C328.859 359.965 306.194 289.41 224.573 216.202L223.852 217.114Z" fill="#3BB763"/>
<path opacity="0.7597" d="M230.278 219.565C314.732 288.562 336.743 360.558 362.234 443.914C383.351 512.969 407.286 591.242 472.371 680.481C525.596 753.494 570.691 732.112 627.784 705.047C676.757 681.818 732.265 655.498 810.35 674.937C900.135 697.293 997.077 764.582 1106.71 880.662C1122.19 897.144 1137.22 913.704 1151.8 930.331L1152.8 929.695C1144.26 919.953 1135.61 910.237 1126.77 900.551C1120.45 893.631 1114.05 886.717 1107.58 879.832C997.69 763.485 900.473 696.023 810.36 673.591C731.84 654.045 673.71 681.607 626.994 703.761C570.462 730.566 525.823 751.754 473.393 679.84C408.49 590.854 384.598 512.737 363.518 443.811C337.94 360.166 315.846 287.928 230.952 218.564L230.278 219.565Z" fill="#3BB763"/>
<path opacity="0.7848" d="M236.714 222.014C324.222 286.864 345.611 360.443 370.379 445.63C390.803 515.884 413.953 595.505 478.27 686.46C532.153 762.68 577.48 739.526 634.846 710.207C680.957 686.642 738.344 657.316 816.006 673.661C904.39 692.258 1001.32 759.653 1112.35 879.694C1114.61 882.15 1116.85 884.591 1119.09 887.045C1131.59 900.731 1143.68 914.383 1155.42 928L1156.48 927.33C1144.63 913.595 1132.51 899.905 1120.07 886.28C1117.81 883.812 1115.53 881.325 1113.25 878.855C1001.94 758.51 904.7 690.933 815.964 672.258C737.85 655.824 680.274 685.248 633.998 708.895C604.831 723.801 579.644 736.671 554.793 736.573C527.719 736.464 503.747 720.341 479.336 685.821C415.2 595.136 392.096 515.664 371.706 445.546C346.842 360.032 325.369 286.175 237.332 220.928L236.714 222.014Z" fill="#3BB763"/>
<path opacity="0.81" d="M243.147 224.469C333.593 284.948 353.341 356.46 378.332 447.002C398.089 518.552 420.474 599.65 484.174 692.432C509.274 728.993 533.898 745.92 561.664 745.69C586.933 745.483 612.424 731.517 641.936 715.344C733.968 664.921 859.772 595.908 1114.16 874.506C1115.42 875.89 1116.74 877.332 1118.01 878.737C1132.23 894.423 1145.92 910.053 1159.15 925.631L1160.21 924.96C1146.8 909.172 1133.09 893.469 1118.96 877.885C1117.66 876.45 1116.36 875.025 1115.06 873.6C1002.58 750.402 905.348 683.898 817.965 670.337C742.188 658.584 686.108 689.313 641.048 714.005C611.663 730.105 586.293 744.013 561.326 744.216C534.173 744.441 510.024 727.784 485.32 691.803C421.803 599.291 399.46 518.349 379.745 446.938C367.651 403.135 356.228 361.762 336.7 324.6C315.046 283.411 285.511 251.222 243.739 223.286L243.147 224.469Z" fill="#3BB763"/>
</g>
<path opacity="0.14" d="M-19.3346 169.978L-18.3635 171.284C105.902 90.3737 198.231 66.8264 272.206 97.1638C359.378 132.911 412.484 241.062 473.974 366.295C513.984 447.765 559.323 540.107 620.284 623.669C704.648 739.319 776.885 753.362 860.515 769.617C944.2 785.88 1035.75 803.674 1157.71 926.551L1158.61 925.976C1124.82 891.984 1091.61 864.19 1058.72 842.355C982.792 791.947 917.788 779.31 860.442 768.165C777.186 751.981 705.28 738.007 621.368 622.987C560.516 539.568 515.209 447.309 475.238 365.907C413.565 240.31 360.299 131.838 272.437 95.8036C197.992 65.2668 105.279 88.8427 -19.3346 169.978Z" fill="#3BB763"/>
<path opacity="0.1587" d="M-12.3488 176.497C111.278 102.521 203.587 82.4658 278.167 113.38C367.259 150.311 422.347 257.695 486.137 382.025C525.117 458 569.289 544.106 626.802 623.789C710.624 740.161 782.562 755.036 865.861 772.254C948.063 789.246 1037.95 807.835 1157.09 926.929L1158 926.35C1125.36 893.78 1093.26 866.986 1061.43 845.738C986.574 795.768 922.413 782.507 865.798 770.799C782.877 753.661 711.26 738.859 627.894 623.11C570.471 543.553 526.33 457.513 487.388 381.607C423.416 256.912 368.169 149.225 278.402 112.013C203.372 80.9084 110.679 100.975 -13.3 175.165L-12.3488 176.497Z" fill="#3BB763"/>
<path opacity="0.1774" d="M-6.33696 181.716C116.884 114.675 209.32 98.1681 284.549 129.774C375.728 168.074 432.962 274.944 499.242 398.68C536.883 468.963 579.554 548.616 633.323 623.925C716.595 741.053 788.257 756.769 871.235 774.964C951.931 792.659 1040.13 812.025 1156.45 927.343L1157.39 926.742C1125.92 895.581 1094.92 869.799 1064.16 849.155C990.383 799.627 927.063 785.748 871.197 773.493C788.596 755.379 717.252 739.743 634.432 623.245C580.738 548.038 538.102 468.443 500.488 398.216C434.026 274.132 376.63 166.967 284.797 128.395C209.118 96.5995 116.319 113.109 -7.25468 180.347L-6.33696 181.716Z" fill="#3BB763"/>
<path opacity="0.1961" d="M-0.324858 186.936C122.8 126.829 215.525 113.951 291.499 146.402C384.957 186.319 444.556 293.014 513.554 416.557C549.474 480.866 590.188 553.753 639.833 624.066C722.576 741.984 793.968 758.544 876.633 777.719C955.812 796.085 1042.31 816.181 1155.81 927.758L1156.75 927.164C1126.45 897.417 1096.57 872.62 1066.91 852.597C994.216 803.532 931.743 789.038 876.62 776.251C794.328 757.163 723.26 740.67 640.963 623.396C591.382 553.171 550.699 480.332 514.803 416.067C470.71 337.12 430.454 265.045 382.685 212.739C355.502 182.974 325.89 159.602 291.762 145.029C215.36 112.398 122.268 125.269 -1.2051 185.541L-0.324858 186.936Z" fill="#3BB763"/>
<path opacity="0.2148" d="M5.69028 192.148C129.267 138.942 222.667 129.794 299.599 163.365C395.804 205.34 458.153 312.724 530.347 437.051C565.457 497.51 601.756 560.025 646.359 624.188C728.769 742.725 799.856 760.148 882.172 780.33C959.783 799.362 1044.52 820.151 1155.22 928.131L1156.15 927.53C1127.01 899.137 1098.26 875.326 1069.69 855.916C998.118 807.294 936.522 792.181 882.176 778.86C800.235 758.766 729.46 741.413 647.504 623.524C602.947 559.433 566.667 496.952 531.584 436.531C495.342 374.119 461.108 315.165 424.52 267.67C383.886 214.947 344.286 181.355 299.89 161.988C222.539 128.232 128.794 137.365 4.86513 190.726L5.69028 192.148Z" fill="#3BB763"/>
<path opacity="0.2335" d="M11.6948 197.364C154.975 144.184 261.177 145.467 345.911 201.409C424.564 253.34 482.078 348.79 548.663 459.319C580.629 512.367 613.678 567.228 652.879 624.324C734.798 743.641 805.646 761.956 887.671 783.146C963.719 802.795 1046.72 824.262 1154.57 928.556L1155.52 927.947C1127.56 900.934 1099.94 878.133 1072.48 859.365C1002 811.212 941.274 795.518 887.686 781.672C806.031 760.578 735.522 742.353 654.028 623.671C614.865 566.625 581.827 511.796 549.884 458.775C503.03 381.015 460.677 310.707 412.232 257.654C391.682 235.147 370.03 215.739 346.483 200.191C304.802 172.673 259.25 158.49 207.228 156.829C150.818 155.035 86.5974 167.82 10.9072 195.915L11.6948 197.364Z" fill="#3BB763"/>
<path opacity="0.2523" d="M17.6991 202.581C333.193 104.798 427.385 256.084 569.959 485.099C597.771 529.775 626.537 575.972 659.395 624.451C740.858 744.625 811.447 763.798 893.194 786.008C967.674 806.246 1048.91 828.343 1153.89 928.972L1154.85 928.356C1128.09 902.724 1101.61 880.918 1075.28 862.815C1005.92 815.137 946.052 798.878 893.232 784.519C811.853 762.412 741.581 743.319 660.565 623.79C627.726 575.345 598.979 529.164 571.175 484.509C501.059 371.887 440.503 274.62 359.336 220.124C316.634 191.45 270.06 175.628 216.957 171.76C159.573 167.575 94.1581 177.165 16.9729 201.09L17.6991 202.581Z" fill="#3BB763"/>
<path opacity="0.271" d="M23.7008 207.805C176.02 170.223 283.993 180.95 373.789 242.588C457.204 299.84 518.239 395.323 595.508 516.207C617.726 550.961 640.701 586.902 665.915 624.588C746.909 745.647 817.28 765.704 898.762 788.941C971.648 809.731 1051.11 832.41 1153.23 929.402L1154.2 928.775C1128.63 904.505 1103.32 883.729 1078.11 866.302C1009.86 819.124 950.873 802.298 898.818 787.452C817.704 764.317 747.657 744.344 667.096 623.94C641.893 586.267 618.922 550.337 596.709 515.594C543.762 432.759 498.428 361.839 448.25 306.886C425.074 281.506 400.861 259.521 374.4 241.361C284.148 179.411 175.784 168.596 23.0192 206.291L23.7008 207.805Z" fill="#3BB763"/>
<path opacity="0.2897" d="M29.6979 213.02C188.103 184.268 299.839 200.512 391.992 265.694C478.705 327.027 544.301 427.958 627.355 555.742C641.808 577.973 656.748 600.969 672.435 624.726C752.973 746.702 823.133 767.664 904.369 791.945C975.651 813.248 1053.31 836.463 1152.55 929.852L1153.53 929.227C1129.17 906.32 1105.03 886.559 1080.97 869.83C1013.84 823.156 955.731 805.788 904.456 790.461C823.593 766.293 753.757 745.432 673.634 624.095C657.954 600.341 643.011 577.352 628.566 555.124C571.235 466.912 522.213 391.489 468.772 332.961C444.681 306.574 419.685 283.616 392.636 264.49C300.057 199.008 187.935 182.663 29.0971 211.498L29.6979 213.02Z" fill="#3BB763"/>
<path opacity="0.3084" d="M35.6882 218.23C205.327 198.863 318.696 220.835 414.747 291.696C505.76 358.835 577.766 469.436 668.932 609.467L678.951 624.853C759.045 747.793 829.006 769.673 910.013 794.998C979.666 816.776 1055.49 840.508 1151.85 930.29L1152.84 929.654C1129.7 908.101 1106.74 889.362 1083.85 873.349C1017.86 827.192 960.625 809.292 910.129 793.509C829.486 768.294 759.84 746.519 680.175 624.224L670.156 608.838C578.872 468.626 506.768 357.878 415.43 290.501C368.131 255.607 316.373 232.789 257.201 220.734C194.953 208.051 122.328 206.723 35.1703 216.676L35.6882 218.23Z" fill="#3BB763"/>
<path opacity="0.3271" d="M41.6787 223.438C215.112 215.71 329.772 241.03 425.068 308.091C521.104 375.677 596.671 486.768 685.478 624.974C765.13 748.932 834.917 771.733 915.714 798.117C983.722 820.33 1057.7 844.509 1151.15 930.727L1152.15 930.087C1130.23 909.875 1108.47 892.174 1086.76 876.894C1021.91 831.267 965.558 812.864 915.84 796.624C835.405 770.357 765.944 747.675 686.709 624.348C597.769 485.937 522.078 374.662 425.717 306.856C330.046 239.534 215.068 214.116 41.2511 221.856L41.6787 223.438Z" fill="#3BB763"/>
<path opacity="0.3458" d="M47.6616 228.646C392.567 238.111 505.742 331.153 691.998 625.112C771.219 750.144 840.838 773.869 921.458 801.336C987.789 823.935 1059.91 848.523 1150.43 931.202L1151.44 930.556C1130.76 911.675 1110.21 895.009 1089.7 880.489C1025.99 835.41 970.537 816.51 921.609 799.845C841.365 772.502 772.05 748.886 693.247 624.502C638.26 537.721 589.632 468.416 539.554 413.567C419.57 282.163 291.264 233.763 47.3331 227.073L47.6616 228.646Z" fill="#3BB763"/>
<path opacity="0.3645" d="M53.6377 233.85C401.326 269.276 521.86 342.43 698.514 625.238C777.317 751.393 846.794 776.062 927.243 804.615C991.883 827.559 1062.1 852.509 1149.68 931.672L1150.72 931.013C1131.29 913.458 1111.96 897.846 1092.65 884.101C1030.1 839.583 975.543 820.21 927.412 803.124C847.328 774.698 778.162 750.141 699.771 624.632C604.101 471.472 527.834 386.789 436.53 332.322C334.12 271.236 209.309 248.14 53.4106 232.262L53.6377 233.85Z" fill="#3BB763"/>
<path opacity="0.3832" d="M59.6057 239.05C385.447 297.364 524.862 332.694 705.033 625.374C783.424 752.715 852.781 778.337 933.086 807.996C996.003 831.236 1064.3 856.465 1148.93 932.15L1149.96 931.495C1131.8 915.257 1113.72 900.678 1095.64 887.744C1034.25 843.802 980.608 823.987 933.282 806.5C853.34 776.975 784.302 751.468 706.305 624.775C661.449 551.915 619.235 494.941 577.31 450.61C535.552 406.483 491.272 371.959 441.934 345.067C342.661 290.958 220.81 266.339 59.5024 237.473L59.6057 239.05Z" fill="#3BB763"/>
<path opacity="0.4019" d="M65.5705 244.24C98.1062 252.663 128.513 260.258 157.919 267.608C422.039 333.617 554.606 366.747 711.543 625.497C789.531 754.079 858.782 780.661 938.975 811.449C1000.14 834.931 1066.49 860.418 1148.14 932.642L1149.21 931.96C1132.32 917.025 1115.49 903.524 1098.65 891.405C1038.43 848.055 985.705 827.813 939.189 809.952C859.362 779.309 790.416 752.836 712.821 624.901C636.935 499.776 566.117 424.469 476.026 373.058C390.215 324.089 292.778 299.737 157.918 266.033C128.512 258.683 98.1083 251.081 65.5766 242.668L65.5705 244.24Z" fill="#3BB763"/>
<path opacity="0.4206" d="M71.5352 249.43C140.297 272.914 202.004 290.717 256.45 306.421C460.572 365.301 583.779 400.849 718.063 625.634C795.659 755.531 864.838 783.095 944.94 815.022C1004.34 838.695 1068.69 864.34 1147.37 933.154L1148.43 932.477C1132.85 918.839 1117.29 906.384 1101.73 895.119C1042.69 852.382 990.887 831.737 945.189 813.524C865.443 781.746 796.579 754.286 719.374 625.061C687.403 571.537 656.068 528.72 624.128 493.739C521.464 381.307 412.584 349.895 256.531 304.874C202.103 289.169 140.418 271.376 71.6989 247.911L71.5352 249.43Z" fill="#3BB763"/>
<path opacity="0.4394" d="M77.5028 254.614C170.872 294.518 250.872 318.538 321.449 339.726C493.233 391.311 606.718 425.386 724.586 625.764C801.796 757.022 870.924 785.596 950.972 818.677C1008.56 842.479 1070.89 868.256 1146.56 933.665L1147.65 932.962C1133.37 920.604 1119.11 909.243 1104.82 898.844C1046.98 856.744 996.111 835.723 951.232 817.175C871.547 784.246 802.724 755.798 725.9 625.184C671.194 532.179 613.099 468.686 543.068 425.373C478.007 385.142 405.496 363.366 321.532 338.155C251.002 316.978 171.055 292.974 77.7872 253.114L77.5028 254.614Z" fill="#3BB763"/>
<path opacity="0.4581" d="M83.4669 259.787C193.562 316.639 285.905 343.737 367.373 367.648C517.19 411.617 625.439 443.387 731.102 625.891C807.938 758.6 877.047 788.19 957.067 822.446C1012.82 846.313 1073.1 872.114 1145.75 934.184L1146.84 933.487C1133.89 922.405 1120.94 912.115 1107.96 902.623C1051.32 861.177 1001.41 839.801 957.358 820.949C877.702 786.845 808.902 757.392 732.442 625.331C683.543 540.87 630.643 483.045 565.973 443.348C506.606 406.915 442.119 387.987 367.457 366.077C286.071 342.194 193.821 315.119 83.8952 258.35L83.4669 259.787Z" fill="#3BB763"/>
<path opacity="0.4768" d="M89.4311 264.96C210.982 338.968 312.424 366.792 401.929 391.338C535.688 428.022 641.33 456.989 737.626 626.021C814.101 760.266 883.214 790.88 963.241 826.326C1017.11 850.188 1075.3 875.976 1144.9 934.728L1146.02 934.012C1134.4 924.191 1122.78 915.004 1111.14 906.435C1055.72 865.667 1006.76 843.971 963.554 824.839C883.883 789.542 815.076 759.071 738.97 625.471C716.228 585.556 692.995 553.433 668.985 527.134C590.84 441.561 504.65 417.904 401.973 389.74C312.599 365.227 211.294 337.445 89.9889 263.581L89.4311 264.96Z" fill="#3BB763"/>
<path opacity="0.4955" d="M95.3974 270.126C224.833 361.372 333.48 388.191 429.337 411.853C555.59 443.019 655.318 467.634 744.138 626.155C820.264 762.009 889.412 793.671 969.483 830.341C1021.44 854.132 1077.48 879.807 1144.03 935.284L1145.17 934.564C1134.91 925.999 1124.64 917.9 1114.36 910.294C1060.18 870.228 1012.18 848.243 969.832 828.852C890.117 792.349 821.268 760.827 745.511 625.617C656.211 466.257 556.093 441.529 429.341 410.246C333.655 386.625 225.194 359.854 96.0792 268.836L95.3974 270.126Z" fill="#3BB763"/>
<path opacity="0.5142" d="M101.368 275.284C236.198 383.813 350.87 408.347 452.038 429.995C572.675 455.806 667.96 476.188 750.654 626.281C785.386 689.326 820.489 734.203 861.097 767.5C897.745 797.551 935.669 815.486 975.824 834.467C1025.82 858.108 1079.7 883.58 1143.16 935.836L1144.31 935.105C1135.43 927.785 1126.54 920.793 1117.63 914.172C1064.7 874.829 1017.68 852.599 976.189 832.977C896.392 795.241 827.47 762.655 752.041 625.75C713.885 556.496 670.466 510.172 615.394 479.963C565.66 452.681 510.442 440.868 451.989 428.356C351.03 406.758 236.604 382.272 102.173 274.065L101.368 275.284Z" fill="#3BB763"/>
<path opacity="0.5329" d="M107.345 280.444C245.794 406.287 365.707 427.564 471.509 446.338C583.208 466.153 679.669 483.269 757.178 626.409C791.77 690.295 826.777 735.879 867.336 769.868C903.959 800.562 941.989 819.112 982.249 838.75C1030.24 862.159 1081.89 887.36 1142.25 936.421L1143.42 935.667C1135.94 929.573 1128.45 923.719 1120.94 918.103C1069.28 879.516 1023.25 857.063 982.636 837.252C899.415 796.653 833.678 764.588 758.562 625.885C722.792 559.836 681.428 516.278 628.381 488.805C580.585 464.048 527.546 454.643 471.384 444.675C365.845 425.947 246.227 404.724 108.246 279.302L107.345 280.444Z" fill="#3BB763"/>
<path opacity="0.5516" d="M113.325 285.599C254.084 428.798 378.713 446.06 488.672 461.286C597.059 476.292 690.663 489.264 763.693 626.537C798.155 691.303 833.074 737.63 873.603 772.329C910.226 803.685 948.385 822.859 988.786 843.171C1034.73 866.268 1084.1 891.092 1141.32 937.012L1142.64 936.174C1085.05 889.877 1035.4 864.912 989.198 841.692C905.791 799.764 839.906 766.653 765.107 626.043C749.17 596.095 732.288 572.024 714.482 552.536C650.084 482.009 573.849 471.447 488.491 459.632C378.841 444.447 254.559 427.236 114.33 284.572L113.325 285.599Z" fill="#3BB763"/>
<path opacity="0.5703" d="M119.311 290.764C182.679 362.392 249.254 410.879 322.893 439.055C387.293 463.691 446.699 469.51 504.149 475.144C609.845 485.493 701.122 494.427 770.207 626.67C804.537 692.376 839.395 739.485 879.906 774.907C916.546 806.941 954.856 826.767 995.413 847.758C1039.26 870.452 1086.3 894.798 1140.38 937.617L1141.7 936.772C1087.27 893.583 1039.95 869.095 995.853 846.275C912.212 802.987 846.142 768.797 771.635 626.183C701.985 492.864 610.191 483.874 503.903 473.461C390.474 462.352 261.886 449.767 120.41 289.813L119.311 290.764Z" fill="#3BB763"/>
<path opacity="0.589" d="M125.305 295.923C188.903 375.309 256.491 427.77 331.956 456.332C397.928 481.301 459.153 484.758 518.364 488.099C621.83 493.936 711.181 498.973 776.733 626.792C851.303 772.203 917.883 807.634 1002.18 852.494C1043.88 874.684 1088.52 898.443 1139.42 938.225L1140.74 937.38C1089.5 897.259 1044.58 873.334 1002.65 851.013C918.712 806.341 852.411 771.058 778.179 626.304C712.044 497.333 622.148 492.262 518.053 486.387C401.083 479.787 268.499 472.275 126.493 295.046L125.305 295.923Z" fill="#3BB763"/>
<path opacity="0.6077" d="M340.389 473.399C407.786 498.55 473.562 499.494 531.596 500.319C633.188 501.776 720.925 503.029 783.249 626.918C857.546 774.583 924.412 811.138 1009.06 857.415C1048.54 878.999 1090.73 902.068 1138.43 938.853L1139.77 938C1091.74 900.889 1049.27 877.654 1009.55 855.94C925.263 809.854 858.69 773.454 784.721 626.45C721.767 501.336 633.469 500.068 531.226 498.607C410.888 496.884 274.492 494.923 132.562 300.291L131.3 301.084C194.859 388.246 263.25 444.614 340.389 473.399Z" fill="#3BB763"/>
<path opacity="0.6265" d="M348.33 490.294C417.051 515.506 484.53 513.606 544.066 511.929C644.041 509.119 730.385 506.694 789.765 627.046C863.809 777.111 930.997 814.806 1016.07 862.536C1053.27 883.404 1092.94 905.67 1137.41 939.513L1138.76 938.648C1093.96 904.491 1054.02 882.076 1016.58 861.07C931.874 813.542 864.968 776.006 791.244 626.598C779.238 602.257 766.152 582.893 752.096 567.495C695.889 505.938 624.138 507.946 543.621 510.21C420.05 513.683 279.979 517.606 138.624 305.534L137.302 306.249C200.602 401.219 269.638 461.425 348.33 490.294Z" fill="#3BB763"/>
<path opacity="0.6452" d="M355.888 507.043C425.847 532.199 494.963 527.315 555.941 523.016C654.522 516.063 739.655 510.049 796.296 627.178C870.099 779.794 937.684 818.654 1023.25 867.857C1058.1 887.901 1095.18 909.233 1136.38 940.177L1137.75 939.302C1096.23 908.053 1058.87 886.568 1023.78 866.384C938.579 817.389 871.279 778.681 797.793 626.729C786.535 603.459 774.2 585.002 760.866 570.405C706.291 510.645 635.229 515.65 555.433 521.286C428.73 530.23 285.122 540.367 144.694 310.778L143.308 311.422C206.193 414.226 275.722 478.219 355.888 507.043Z" fill="#3BB763"/>
<path opacity="0.6639" d="M363.119 523.677C434.247 548.679 504.942 540.69 567.318 533.636C664.659 522.634 748.728 513.131 802.814 627.299C876.394 782.621 944.431 822.678 1030.56 873.39C1063 892.485 1097.41 912.75 1135.31 940.85L1136.69 939.97C1098.47 911.576 1063.79 891.158 1031.13 871.926C945.34 821.42 877.589 781.532 804.327 626.875C793.764 604.582 782.099 586.946 769.432 573.074C716.393 514.999 645.922 522.949 566.745 531.895C436.989 546.561 289.914 563.183 150.748 316.001L149.316 316.573C211.625 427.26 281.562 495.004 363.119 523.677Z" fill="#3BB763"/>
<path opacity="0.6826" d="M370.034 540.227C442.244 565.001 514.447 553.791 578.146 543.898C674.378 528.965 757.488 516.062 809.331 627.424C882.479 785.729 951.097 826.981 1037.98 879.218C1067.92 897.223 1099.61 916.273 1134.19 941.564L1135.56 940.685C1100.68 915.119 1068.73 895.902 1038.55 877.76C952.025 825.739 883.685 784.653 810.847 627.01C800.923 605.687 789.888 588.863 777.854 575.684C726.174 519.086 656.183 529.941 577.496 542.157C513.975 552.017 441.985 563.192 370.195 538.56C287.922 510.337 218.122 439.247 156.789 321.232L155.309 321.74C216.944 440.335 287.182 511.799 370.034 540.227Z" fill="#3BB763"/>
<path opacity="0.7013" d="M376.823 556.655C450.122 581.103 523.834 566.559 588.869 553.738C684.11 534.952 766.355 518.734 815.844 627.558C888.906 788.879 958.099 831.383 1045.7 885.195C1073.03 901.986 1101.89 919.716 1133.09 942.276L1134.49 941.388C1102.99 918.568 1073.88 900.674 1046.31 883.743C959.058 830.147 890.144 787.809 817.393 627.167C808.051 606.627 797.58 590.474 786.103 577.902C735.859 522.885 666.356 536.587 588.174 552.003C523.327 564.786 449.832 579.288 376.983 554.988C293.428 527.118 223.383 452.376 162.855 326.485L161.333 326.931C222.158 453.435 292.645 528.579 376.823 556.655Z" fill="#3BB763"/>
<path opacity="0.72" d="M383.438 573.005C457.793 597.05 532.997 579.088 599.344 563.243C693.677 540.71 775.141 521.256 822.367 627.687C895.37 792.217 965.219 836 1053.64 891.421C1078.28 906.868 1104.19 923.117 1131.97 942.987L1133.39 942.088C1105.32 921.979 1079.14 905.562 1054.27 889.968C966.196 834.762 896.627 791.163 823.92 627.307C815.123 607.48 805.182 591.957 794.222 579.949C745.371 526.45 676.304 542.943 598.588 561.507C532.441 577.311 457.47 595.213 383.58 571.321C298.771 543.896 228.542 465.52 168.898 331.71L167.342 332.097C227.289 466.566 297.971 545.374 383.438 573.005Z" fill="#3BB763"/>
</svg>
