<svg xmlns="http://www.w3.org/2000/svg" style="display:none"><defs><clipPath id="a"><path fill="#fff" d="M0 0h36v36H0z"/></clipPath><clipPath id="a"><path fill="#fff" d="M0 0h50v29H0z"/></clipPath><clipPath id="a"><path fill="#fff" d="M0 0h36v36H0z"/></clipPath><clipPath id="a"><path fill="#fff" d="M0 0h32v32H0z"/></clipPath><clipPath id="a"><path fill="#fff" d="M0 0h32v32H0z"/></clipPath><clipPath id="a"><path fill="#fff" d="M0 0h32v32H0z"/></clipPath><clipPath id="a"><path fill="#fff" d="M0 0h32v32H0z"/></clipPath><clipPath id="a"><path fill="#fff" d="M0 0h32v32H0z"/></clipPath><clipPath id="a"><path fill="#fff" d="M0 0h32v32H0z"/></clipPath><clipPath id="a"><path fill="#fff" d="M0 0h32v32H0z"/></clipPath><clipPath id="a"><path fill="#fff" d="M0 0h30v30H0z"/></clipPath><clipPath id="a"><path fill="#fff" transform="translate(5 7)" d="M0 0h20v16H0z"/></clipPath><clipPath id="a"><path fill="#fff" transform="translate(.904 .282)" d="M0 0h29.964v29.964H0z"/></clipPath><clipPath id="a"><path fill="#fff" transform="translate(.328 .224)" d="M0 0h29.964v29.964H0z"/></clipPath></defs><symbol id="btn-icon-more" viewBox="0 0 30 30"><path d="M20 18.333l-.195.012a1.667 1.667 0 0 0-1.46 1.46l-.012.195v10H1.663A1.66 1.66 0 0 1 0 28.345V1.655C0 .742.742 0 1.655 0h26.69A1.66 1.66 0 0 1 30 1.665v16.668H20zm10 3.334l-8.333 8.328v-8.328H30z"/></symbol><symbol id="btn-icon-star" viewBox="0 0 36 33"><path d="M18 27.55l-8.3 5c-.367.234-.75.334-1.15.3-.4-.033-.75-.166-1.05-.4a2.4 2.4 0 0 1-.7-.874c-.167-.35-.2-.742-.1-1.176l2.2-9.45-7.35-6.35c-.334-.3-.542-.642-.624-1.026A1.982 1.982 0 0 1 1 12.45c.133-.366.333-.666.6-.9.266-.233.633-.383 1.1-.45l9.7-.85 3.75-8.9c.166-.4.425-.7.776-.9.349-.2.707-.3 1.074-.3.366 0 .725.1 1.076.3.349.2.607.5.774.9l3.75 8.9 9.7.85c.466.067.833.217 1.1.45.266.234.466.534.6.9.133.367.158.742.076 1.124-.084.384-.293.726-.626 1.026l-7.35 6.35 2.2 9.45c.1.434.066.826-.1 1.176a2.4 2.4 0 0 1-.7.874c-.3.234-.65.367-1.05.4-.4.034-.784-.066-1.15-.3l-8.3-5z"/></symbol><symbol id="card-icon-01" viewBox="0 0 36 36"><g clip-path="url(#a)"><path d="M13.029 6l3.91-3.91a1.5 1.5 0 0 1 2.121 0L22.971 6H28.5A1.5 1.5 0 0 1 30 7.5v5.53l3.91 3.91a1.5 1.5 0 0 1 0 2.12L30 22.972v5.53a1.5 1.5 0 0 1-1.5 1.5h-5.529l-3.91 3.91a1.5 1.5 0 0 1-2.122 0L13.03 30H7.5A1.5 1.5 0 0 1 6 28.5v-5.53l-3.91-3.91a1.5 1.5 0 0 1 0-2.121L6 13.03V7.5A1.5 1.5 0 0 1 7.5 6h5.529zM9 9v5.273L5.272 18 9 21.728V27h5.273L18 30.728 21.727 27H27v-5.272L30.727 18 27 14.273V9h-5.273L18 5.273 14.273 9H9zm9 15a6 6 0 1 1 0-12 6 6 0 0 1 0 12zm0-3a3 3 0 1 0 0-6 3 3 0 0 0 0 6z" fill="#fff"/></g></symbol><symbol id="card-icon-02" viewBox="0 0 50 29"><g clip-path="url(#a)"><path fill-rule="evenodd" clip-rule="evenodd" d="M4.601 0h40.354c2.554 0 4.621 2.023 4.621 4.523v15.076c0 2.5-2.067 4.523-4.62 4.523H30.483l1.986 4.762-8.736-4.762H4.621c-2.553 0-4.62-2.023-4.62-4.523V4.523C-.02 2.043 2.046 0 4.6 0zM2.823 4.122c.282-.374.706-.572 1.27-.611 1.028-.079 1.612.394 1.753 1.42.625 4.123 1.31 7.614 2.036 10.474l4.413-8.225c.403-.75.907-1.144 1.512-1.184.886-.059 1.43.493 1.652 1.657.504 2.624 1.149 4.853 1.915 6.746.524-5.01 1.41-8.62 2.66-10.849.302-.552.745-.828 1.33-.867.463-.04.887.098 1.27.394.383.296.584.67.624 1.124.02.355-.04.651-.201.947-.786 1.42-1.431 3.807-1.955 7.12-.504 3.216-.685 5.721-.564 7.516.04.493-.04.927-.242 1.302-.242.434-.605.67-1.068.71-.524.04-1.068-.197-1.592-.73-1.875-1.874-3.366-4.675-4.454-8.403a367.187 367.187 0 0 0-2.902 5.681c-1.19 2.229-2.197 3.373-3.043 3.432-.544.04-1.008-.414-1.411-1.36C4.798 17.83 3.69 12.84 2.501 5.443c-.08-.513.04-.966.322-1.322zM46.132 7.22c-.725-1.242-1.794-1.992-3.224-2.288a5.4 5.4 0 0 0-1.089-.118c-1.934 0-3.506.986-4.736 2.959-1.048 1.676-1.572 3.53-1.572 5.562 0 1.519.323 2.82.968 3.905.725 1.243 1.793 1.993 3.224 2.288a5.4 5.4 0 0 0 1.088.119c1.955 0 3.527-.986 4.736-2.959 1.048-1.696 1.572-3.55 1.572-5.582.02-1.539-.322-2.82-.967-3.886zm-2.54 5.464c-.281 1.302-.785 2.268-1.53 2.92-.585.512-1.13.73-1.633.63-.484-.098-.887-.512-1.19-1.282a4.914 4.914 0 0 1-.362-1.795c0-.493.04-.986.141-1.44a6.31 6.31 0 0 1 1.068-2.347c.665-.966 1.37-1.36 2.096-1.223.484.099.887.513 1.189 1.282.242.612.363 1.223.363 1.795 0 .513-.04 1.006-.141 1.46zM33.517 7.219c-.725-1.242-1.814-1.992-3.224-2.288a5.4 5.4 0 0 0-1.089-.118c-1.934 0-3.506.986-4.735 2.959-1.049 1.676-1.572 3.53-1.572 5.562 0 1.519.322 2.82.967 3.905.725 1.243 1.794 1.993 3.224 2.288a5.4 5.4 0 0 0 1.089.119c1.955 0 3.526-.986 4.736-2.959 1.048-1.696 1.572-3.55 1.572-5.582 0-1.539-.323-2.82-.968-3.886zm-2.56 5.464c-.281 1.302-.785 2.268-1.53 2.92-.585.512-1.13.73-1.633.63-.484-.098-.887-.512-1.19-1.282a4.914 4.914 0 0 1-.362-1.795c0-.493.04-.986.141-1.44A6.313 6.313 0 0 1 27.45 9.37c.665-.966 1.37-1.36 2.096-1.223.484.099.887.513 1.19 1.282.24.612.362 1.223.362 1.795.02.513-.04 1.006-.141 1.46z" fill="#fff"/></g></symbol><symbol id="card-icon-03" viewBox="0 0 36 36"><g clip-path="url(#a)"><path d="M31.5 4.5A1.5 1.5 0 0 1 33 6v24a1.5 1.5 0 0 1-1.5 1.5h-27A1.5 1.5 0 0 1 3 30V6a1.5 1.5 0 0 1 1.5-1.5h27zm-15 15H6v9h10.5v-9zm13.5 0H19.5v9H30v-9zm-13.5-12H6v9h10.5v-9zm13.5 0H19.5v9H30v-9z" fill="#fff"/></g></symbol><symbol id="card-icon-04" viewBox="0 0 32 32"><g clip-path="url(#a)"><path d="M16.001 29.334c-7.364 0-13.333-5.97-13.333-13.334S8.638 2.667 16.001 2.667c7.364 0 13.334 5.97 13.334 13.333 0 7.364-5.97 13.334-13.334 13.334zm0-2.667a10.667 10.667 0 1 0 0-21.333 10.667 10.667 0 0 0 0 21.333zm-4.666-8h7.333a.667.667 0 1 0 0-1.333h-5.333a3.333 3.333 0 0 1 0-6.667h1.333V8h2.667v2.667h3.333v2.667h-7.333a.667.667 0 0 0 0 1.333h5.333a3.333 3.333 0 0 1 0 6.667h-1.333V24h-2.667v-2.666h-3.333v-2.667z" fill="#fff"/></g></symbol><symbol id="card-icon-05" viewBox="0 0 32 32"><g clip-path="url(#a)"><path d="M22.668 4h5.333a1.333 1.333 0 0 1 1.334 1.333v21.333A1.333 1.333 0 0 1 28 28h-24a1.334 1.334 0 0 1-1.333-1.334V5.333A1.333 1.333 0 0 1 4.001 4h5.334V1.333H12V4h8V1.333h2.667V4zm4 10.666H5.335v10.667h21.333V14.666zm-6.667-8h-8v2.667H9.335V6.666h-4V12h21.333V6.666h-4v2.667h-2.667V6.666zm-12 10.667h2.667V20H8.001v-2.667zm6.667 0h2.667V20h-2.667v-2.667zm6.667 0H24V20h-2.666v-2.667z" fill="#fff"/></g></symbol><symbol id="card-icon-06" viewBox="0 0 32 32"><g clip-path="url(#a)"><path d="M19.268 25.333L16.001 30l-3.266-4.667H4A1.333 1.333 0 0 1 2.668 24V5.333A1.333 1.333 0 0 1 4.001 4h24a1.333 1.333 0 0 1 1.334 1.333V24A1.333 1.333 0 0 1 28 25.333h-8.733zm-1.388-2.666h8.788v-16H5.335v16h8.788L16 25.349l1.879-2.682z" fill="#fff"/></g></symbol><symbol id="card-icon-07" viewBox="0 0 32 32"><g clip-path="url(#a)"><path d="M4.001 13.333H2.668V5.337A1.34 1.34 0 0 1 3.991 4h24.021a1.32 1.32 0 0 1 1.323 1.337v7.996H28v13.335A1.328 1.328 0 0 1 26.677 28H5.325a1.328 1.328 0 0 1-1.324-1.332V13.333zm21.334 0H6.668v12h18.667v-12zm-20-6.666v4h21.333v-4H5.335zM12 16h8v2.667h-8V16z" fill="#fff"/></g></symbol><symbol id="card-icon-08" viewBox="0 0 32 32"><g clip-path="url(#a)"><path d="M26.583 10.667h1.416a2.667 2.667 0 0 1 2.666 2.667v5.333A2.667 2.667 0 0 1 28 21.333h-1.416a10.668 10.668 0 0 1-10.584 9.334V28a8 8 0 0 0 8-8v-8a8 8 0 0 0-16 0v9.334h-4a2.667 2.667 0 0 1-2.667-2.667v-5.334a2.667 2.667 0 0 1 2.667-2.666h1.416a10.668 10.668 0 0 1 21.168 0zM3.999 13.334v5.333h1.333v-5.334H3.999zm22.666 0v5.333H28v-5.334h-1.334zm-16.32 7.713l1.414-2.262A7.963 7.963 0 0 0 15.999 20c1.5.003 2.969-.418 4.24-1.215l1.413 2.262a10.618 10.618 0 0 1-5.653 1.62c-2 .003-3.96-.559-5.654-1.62z" fill="#fff"/></g></symbol><symbol id="card-icon-09" viewBox="0 0 32 32"><g clip-path="url(#a)"><path d="M16 26.667a10.667 10.667 0 1 0 0-21.333 10.667 10.667 0 0 0 0 21.333zm0 2.667c-7.365 0-13.334-5.97-13.334-13.334S8.636 2.667 15.999 2.667c7.364 0 13.334 5.97 13.334 13.333 0 7.364-5.97 13.334-13.334 13.334zm0-8a5.333 5.333 0 1 0 0-10.667 5.333 5.333 0 0 0 0 10.667zM16 24a8 8 0 1 1 0-16 8 8 0 0 1 0 16zm0-5.333a2.667 2.667 0 1 1 0-5.333 2.667 2.667 0 0 1 0 5.333z" fill="#fff"/></g></symbol><symbol id="card-icon-10" viewBox="0 0 44 19"><path d="M.936 5.352c0-1.024.264-1.928.792-2.712.528-.784 1.256-1.392 2.184-1.824C4.856.368 5.944.144 7.176.144c1.184 0 2.208.208 3.072.624.88.416 1.56 1.008 2.04 1.776.496.768.76 1.68.792 2.736h-3.072c-.032-.752-.304-1.336-.816-1.752-.512-.432-1.2-.648-2.064-.648-.944 0-1.704.216-2.28.648-.56.416-.84.992-.84 1.728 0 .624.168 1.12.504 1.488.352.352.896.616 1.632.792l2.76.624c1.504.32 2.624.872 3.36 1.656.736.768 1.104 1.808 1.104 3.12 0 1.072-.264 2.016-.792 2.832-.528.816-1.28 1.448-2.256 1.896-.96.432-2.088.648-3.384.648-1.232 0-2.312-.208-3.24-.624-.928-.432-1.656-1.032-2.184-1.8C1 15.12.728 14.216.696 13.176h3.072c.016.736.304 1.32.864 1.752.576.416 1.352.624 2.328.624 1.024 0 1.832-.208 2.424-.624.608-.432.912-1 .912-1.704 0-.608-.16-1.088-.48-1.44-.32-.368-.84-.624-1.56-.768l-2.784-.624c-1.488-.32-2.616-.896-3.384-1.728C1.32 7.816.936 6.712.936 5.352zM25.843 18H14.947V.456h10.896v2.832H16.94l1.08-.984V7.8h7.008v2.712H18.02v5.64l-1.08-.984h8.904V18zm18.091-8.784c0 1.776-.36 3.352-1.08 4.728-.72 1.36-1.72 2.424-3 3.192-1.28.768-2.76 1.152-4.44 1.152-1.664 0-3.136-.384-4.416-1.152-1.28-.768-2.28-1.832-3-3.192-.704-1.36-1.056-2.928-1.056-4.704 0-1.792.36-3.368 1.08-4.728.72-1.376 1.712-2.448 2.976-3.216 1.28-.768 2.76-1.152 4.44-1.152 1.68 0 3.152.384 4.416 1.152 1.28.768 2.28 1.832 3 3.192.72 1.36 1.08 2.936 1.08 4.728zm-3.216 0c0-1.248-.216-2.328-.648-3.24-.432-.912-1.04-1.616-1.824-2.112-.784-.512-1.72-.768-2.808-.768-1.072 0-2.008.256-2.808.768-.784.496-1.392 1.2-1.824 2.112-.432.912-.648 1.992-.648 3.24 0 1.248.216 2.336.648 3.264.432.912 1.04 1.616 1.824 2.112.8.496 1.736.744 2.808.744 1.088 0 2.024-.248 2.808-.744.784-.512 1.392-1.224 1.824-2.136.432-.928.648-2.008.648-3.24z" fill="#fff"/></symbol><symbol id="card-icon-11" viewBox="0 0 32 32"><path d="M27.333 19.987l-6.68 6.693M4.667 19.987h22.666M4.667 12.013l6.68-6.693M27.333 12.013H4.667" stroke="#fff" stroke-width="2.5" stroke-miterlimit="10" stroke-linecap="round" stroke-linejoin="round"/></symbol><symbol id="card-icon-12" viewBox="0 0 32 32"><path d="M24.627 22.44l.52 4.213c.133 1.107-1.054 1.88-2 1.307l-5.587-3.32c-.613 0-1.213-.04-1.8-.12.987-1.16 1.573-2.627 1.573-4.213 0-3.787-3.28-6.853-7.333-6.853-1.547 0-2.973.44-4.16 1.213a8.45 8.45 0 0 1-.053-1.014c0-6.066 5.266-10.986 11.773-10.986s11.773 4.92 11.773 10.986c0 3.6-1.853 6.787-4.706 8.787z" stroke="#fff" stroke-width="2.5" stroke-linecap="round" stroke-linejoin="round"/><path d="M17.333 20.307c0 1.586-.586 3.053-1.573 4.213-1.32 1.6-3.413 2.627-5.76 2.627l-3.48 2.066c-.587.36-1.333-.133-1.253-.813l.333-2.627c-1.787-1.24-2.933-3.226-2.933-5.466 0-2.347 1.253-4.414 3.173-5.64A7.577 7.577 0 0 1 10 13.453c4.053 0 7.333 3.067 7.333 6.854z" stroke="#fff" stroke-width="2.5" stroke-linecap="round" stroke-linejoin="round"/></symbol><symbol id="card-icon-13" viewBox="0 0 32 32"><path d="M25.76 13.333H6.253A3.582 3.582 0 0 1 2.68 9.76V6.253A3.582 3.582 0 0 1 6.253 2.68H25.76a3.582 3.582 0 0 1 3.573 3.573V9.76a3.59 3.59 0 0 1-3.573 3.573zM25.76 29.333H6.253A3.582 3.582 0 0 1 2.68 25.76v-3.507a3.582 3.582 0 0 1 3.573-3.573H25.76a3.582 3.582 0 0 1 3.573 3.573v3.507a3.59 3.59 0 0 1-3.573 3.573zM8 6.667v2.666M13.333 6.667v2.666M8 22.667v2.666M13.333 22.667v2.666M18.667 8H24M18.667 24H24" stroke="#fff" stroke-width="2.5" stroke-linecap="round" stroke-linejoin="round"/></symbol><symbol id="card-icon-add" viewBox="0 0 32 32"><g clip-path="url(#a)"><path d="M14.667 14.668v-8h2.667v8h8v2.667h-8v8h-2.667v-8h-8v-2.667h8z" fill="#FAFAFA"/></g></symbol><symbol id="field-icon-contact" viewBox="0 0 30 30"><g clip-path="url(#a)"><circle cx="15" cy="15" r="15" fill="#3BB763"/><path d="M15.912 19.008h-1.776v-.368c0-.49.085-.907.256-1.248.181-.341.405-.64.672-.896.267-.267.539-.507.816-.72.245-.192.47-.384.672-.576.213-.192.384-.405.512-.64.128-.245.192-.523.192-.832 0-.363-.075-.677-.224-.944a1.47 1.47 0 0 0-.608-.64c-.267-.15-.587-.224-.96-.224s-.71.09-1.008.272c-.288.17-.512.41-.672.72-.16.31-.24.672-.24 1.088h-2.032c0-.768.17-1.445.512-2.032a3.637 3.637 0 0 1 1.408-1.376c.608-.33 1.296-.496 2.064-.496.81 0 1.499.144 2.064.432a2.997 2.997 0 0 1 1.312 1.232c.31.523.464 1.136.464 1.84 0 .565-.107 1.05-.32 1.456a3.255 3.255 0 0 1-.768.992c-.31.267-.624.512-.944.736a8.144 8.144 0 0 0-.992.832 1.42 1.42 0 0 0-.4 1.024v.368zm-.816 3.2c-.352 0-.656-.123-.912-.368a1.228 1.228 0 0 1-.384-.896c0-.363.128-.667.384-.912s.56-.368.912-.368.656.128.912.384c.256.245.384.544.384.896 0 .341-.128.64-.384.896-.256.245-.56.368-.912.368z" fill="#fff"/></g></symbol><symbol id="field-icon-email" viewBox="0 0 30 30"><circle cx="15" cy="15" r="15" fill="#3BB763"/><g clip-path="url(#a)"><path d="M7.5 9h15a.95.95 0 0 1 .59.195.607.607 0 0 1 .243.472v10.666a.607.607 0 0 1-.244.472.949.949 0 0 1-.589.195h-15a.949.949 0 0 1-.59-.195.607.607 0 0 1-.243-.472V9.667c0-.177.087-.347.244-.472A.95.95 0 0 1 7.5 9zm14.167 2.825L15.06 16.56 8.333 11.81v7.856h13.334v-7.842zM8.759 10.333l6.292 4.442 6.2-4.442H8.76z" fill="#fff"/></g></symbol><symbol id="field-icon-phone" viewBox="0 0 30 30"><circle cx="15" cy="15" r="15" fill="#3BB763"/><path d="M10.833 8.335v13.333h8.334V8.335h-8.334zM10 6.668h10a.833.833 0 0 1 .833.833v15a.833.833 0 0 1-.833.834H10a.834.834 0 0 1-.833-.834v-15A.833.833 0 0 1 10 6.668zm5 12.5a.833.833 0 1 1 0 1.667.833.833 0 0 1 0-1.667z" fill="#fff"/></symbol><symbol id="step-icon-01" viewBox="0 0 30 24"><path d="M.29 12.08c0-2.28.38-4.27 1.14-5.97.78-1.7 1.86-3.03 3.24-3.99C6.07 1.14 7.7.65 9.56.65c1.88 0 3.51.49 4.89 1.47 1.4.96 2.48 2.29 3.24 3.99.78 1.7 1.17 3.69 1.17 5.97 0 2.26-.37 4.24-1.11 5.94-.74 1.7-1.8 3.02-3.18 3.96-1.38.94-3.05 1.41-5.01 1.41-1.92 0-3.58-.47-4.98-1.41-1.38-.94-2.44-2.26-3.18-3.96-.74-1.7-1.11-3.68-1.11-5.94zm3.78 0c0 1.68.22 3.12.66 4.32.44 1.18 1.07 2.08 1.89 2.7.82.6 1.8.9 2.94.9 1.18 0 2.17-.3 2.97-.9.82-.62 1.45-1.52 1.89-2.7.44-1.2.66-2.64.66-4.32 0-1.74-.22-3.2-.66-4.38-.44-1.2-1.07-2.11-1.89-2.73-.8-.62-1.79-.93-2.97-.93-1.14 0-2.12.31-2.94.93-.82.62-1.45 1.53-1.89 2.73-.44 1.18-.66 2.64-.66 4.38zm21.302-7.56h-4.8V1.07h8.46V23h-3.66V4.52z" fill="#fff"/></symbol><symbol id="step-icon-02" viewBox="0 0 36 24"><path d="M.29 12.08c0-2.28.38-4.27 1.14-5.97.78-1.7 1.86-3.03 3.24-3.99C6.07 1.14 7.7.65 9.56.65c1.88 0 3.51.49 4.89 1.47 1.4.96 2.48 2.29 3.24 3.99.78 1.7 1.17 3.69 1.17 5.97 0 2.26-.37 4.24-1.11 5.94-.74 1.7-1.8 3.02-3.18 3.96-1.38.94-3.05 1.41-5.01 1.41-1.92 0-3.58-.47-4.98-1.41-1.38-.94-2.44-2.26-3.18-3.96-.74-1.7-1.11-3.68-1.11-5.94zm3.78 0c0 1.68.22 3.12.66 4.32.44 1.18 1.07 2.08 1.89 2.7.82.6 1.8.9 2.94.9 1.18 0 2.17-.3 2.97-.9.82-.62 1.45-1.52 1.89-2.7.44-1.2.66-2.64.66-4.32 0-1.74-.22-3.2-.66-4.38-.44-1.2-1.07-2.11-1.89-2.73-.8-.62-1.79-.93-2.97-.93-1.14 0-2.12.31-2.94.93-.82.62-1.45 1.53-1.89 2.73-.44 1.18-.66 2.64-.66 4.38zm31.172 10.89l-15.21.03v-2.88l7.17-6.06c.74-.62 1.36-1.19 1.86-1.71.52-.52.93-1.01 1.23-1.47.3-.46.52-.92.66-1.38.14-.46.21-.96.21-1.5 0-1.24-.32-2.2-.96-2.88-.64-.68-1.54-1.02-2.7-1.02-1.2 0-2.15.4-2.85 1.2-.7.8-1.06 1.9-1.08 3.3h-3.81c.02-1.6.35-2.99.99-4.17.64-1.2 1.54-2.12 2.7-2.76 1.16-.66 2.51-.99 4.05-.99 1.56 0 2.9.29 4.02.87 1.14.56 2.02 1.37 2.64 2.43.62 1.06.93 2.33.93 3.81 0 .76-.11 1.49-.33 2.19-.2.68-.51 1.35-.93 2.01-.42.64-.94 1.29-1.56 1.95-.62.66-1.35 1.35-2.19 2.07l-5.34 4.56-1.38-1.17h11.88v3.57z" fill="#fff"/></symbol><symbol id="step-icon-03" viewBox="0 0 36 24"><path d="M.29 12.08c0-2.28.38-4.27 1.14-5.97.78-1.7 1.86-3.03 3.24-3.99C6.07 1.14 7.7.65 9.56.65c1.88 0 3.51.49 4.89 1.47 1.4.96 2.48 2.29 3.24 3.99.78 1.7 1.17 3.69 1.17 5.97 0 2.26-.37 4.24-1.11 5.94-.74 1.7-1.8 3.02-3.18 3.96-1.38.94-3.05 1.41-5.01 1.41-1.92 0-3.58-.47-4.98-1.41-1.38-.94-2.44-2.26-3.18-3.96-.74-1.7-1.11-3.68-1.11-5.94zm3.78 0c0 1.68.22 3.12.66 4.32.44 1.18 1.07 2.08 1.89 2.7.82.6 1.8.9 2.94.9 1.18 0 2.17-.3 2.97-.9.82-.62 1.45-1.52 1.89-2.7.44-1.2.66-2.64.66-4.32 0-1.74-.22-3.2-.66-4.38-.44-1.2-1.07-2.11-1.89-2.73-.8-.62-1.79-.93-2.97-.93-1.14 0-2.12.31-2.94.93-.82.62-1.45 1.53-1.89 2.73-.44 1.18-.66 2.64-.66 4.38zm30.934-7.95l-7.92 7.29-2.52-1.77 7.68-7.05-.66 1.86h-10.5V1.07h13.92v3.06zm-7.77 8.01h-2.67V9.65c.38-.3.88-.5 1.5-.6.62-.12 1.2-.18 1.74-.18 1.04 0 2.03.16 2.97.48.94.32 1.77.79 2.49 1.41.74.6 1.32 1.35 1.74 2.25.42.88.63 1.89.63 3.03 0 1.5-.35 2.8-1.05 3.9-.7 1.1-1.66 1.95-2.88 2.55-1.2.6-2.54.9-4.02.9-1.44 0-2.74-.28-3.9-.84a6.759 6.759 0 0 1-2.73-2.52c-.66-1.1-.99-2.44-.99-4.02h3.78c0 1.26.35 2.24 1.05 2.94.72.68 1.67 1.02 2.85 1.02 1.2 0 2.16-.36 2.88-1.08.74-.74 1.11-1.71 1.11-2.91 0-1.1-.37-2.01-1.11-2.73-.74-.74-1.87-1.11-3.39-1.11z" fill="#fff"/></symbol><symbol id="temp-icon-left-arrow" viewBox="0 0 31.494 31.494"><path d="M10.273 5.01a1.117 1.117 0 0 1 1.587 1.57l-8.047 8.047h26.554c.62 0 1.127.492 1.127 1.11 0 .62-.508 1.128-1.127 1.128H3.813l8.047 8.032c.43.444.43 1.16 0 1.587a1.112 1.112 0 0 1-1.587 0L.32 16.532a1.12 1.12 0 0 1 0-1.57l9.953-9.953z" fill="#1E201D"/></symbol><symbol id="temp-icon-right-arrow" viewBox="0 0 31.49 31.49"><path d="M21.205 5.007a1.117 1.117 0 0 0-1.587 1.57l8.047 8.048H1.11c-.618 0-1.11.493-1.11 1.112 0 .62.492 1.127 1.11 1.127h26.555l-8.047 8.032c-.43.444-.43 1.16 0 1.587.444.444 1.16.444 1.587 0l9.952-9.952a1.092 1.092 0 0 0 0-1.57l-9.952-9.95z" fill="#1E201D"/></symbol><symbol id="we-do-icon-01" viewBox="0 0 31 30"><path d="M25.927 9.83h1.414a2.664 2.664 0 0 1 2.664 2.664v5.327a2.664 2.664 0 0 1-2.664 2.663h-1.414a10.655 10.655 0 0 1-10.571 9.322v-2.663a7.99 7.99 0 0 0 7.99-7.99v-7.99a7.99 7.99 0 1 0-15.98 0v9.321H3.37a2.663 2.663 0 0 1-2.664-2.663v-5.327A2.664 2.664 0 0 1 3.37 9.83h1.414a10.655 10.655 0 0 1 21.143 0zM3.37 12.494v5.327h1.332v-5.327H3.37zm22.64 0v5.327h1.331v-5.327H26.01zM9.709 20.198l1.412-2.259a7.952 7.952 0 0 0 4.235 1.214 7.952 7.952 0 0 0 4.234-1.214l1.412 2.259a10.604 10.604 0 0 1-5.646 1.618 10.604 10.604 0 0 1-5.647-1.618z" fill="#fff"/></symbol><symbol id="we-do-icon-02" viewBox="0 0 31 31"><g clip-path="url(#a)"><path d="M19.132 10.27h7.99a2.497 2.497 0 0 1 2.498 2.497v2.627c0 .326-.064.65-.188.951l-3.864 9.383a1.248 1.248 0 0 1-1.155.773H3.401a1.249 1.249 0 0 1-1.248-1.249V12.767A1.248 1.248 0 0 1 3.4 11.52h4.347a1.248 1.248 0 0 0 1.02-.528l6.808-9.648a.624.624 0 0 1 .79-.198l2.264 1.132a3.122 3.122 0 0 1 1.63 3.562l-1.128 4.431zm-9.488 3.231v10.503h13.933l3.546-8.61v-2.627h-7.99a2.496 2.496 0 0 1-2.42-3.112l1.127-4.43a.624.624 0 0 0-.326-.713L16.69 4.1l-5.88 8.33a3.765 3.765 0 0 1-1.165 1.071zm-2.497.515H4.65v9.988h2.497v-9.988z" fill="#fff"/></g></symbol><symbol id="we-do-icon-03" viewBox="0 0 31 31"><g clip-path="url(#a)"><path d="M2.825 27.69a9.988 9.988 0 1 1 19.976 0h-2.497a7.491 7.491 0 1 0-14.982 0H2.825zm9.988-11.236a7.489 7.489 0 0 1-7.491-7.49 7.489 7.489 0 0 1 7.49-7.492 7.489 7.489 0 0 1 7.492 7.491 7.489 7.489 0 0 1-7.491 7.491zm0-2.497a4.993 4.993 0 0 0 4.994-4.994 4.993 4.993 0 0 0-4.994-4.994 4.993 4.993 0 0 0-4.994 4.994 4.993 4.993 0 0 0 4.994 4.994zm10.342 4.623a9.99 9.99 0 0 1 5.888 9.11h-2.497a7.492 7.492 0 0 0-4.415-6.832l1.023-2.278h.002zm-.858-14.095a6.867 6.867 0 0 1 2.455 10.981 6.865 6.865 0 0 1-4.448 2.21v-2.514a4.37 4.37 0 0 0 1.3-8.251l.693-2.426z" fill="#fff"/></g></symbol></svg>