<svg width="1033" height="960" viewBox="0 0 1033 960" fill="none" xmlns="http://www.w3.org/2000/svg">
<g clip-path="url(#clip0_330_638)">
<g opacity="0.85">
<path opacity="0.03" d="M206.668 419.765C269.869 372.906 333.537 330.622 409.306 301.099C429.309 292.712 448.539 289.41 468.046 287.704C487.827 287.601 508.429 292.313 525.333 304.25C527.484 307.181 530.967 308.229 534.721 310.885C552.171 326.034 564.818 342.008 580.938 359.034C600.542 377.107 616.669 394.135 635.996 410.612C662.833 432.396 690.177 447.494 721.776 458.555C790.328 483.064 861.435 484.038 933.044 478.332C962.436 476.58 990.506 476.708 1020.18 476.553C1026.86 477.052 1033.54 477.554 1040.51 479.656C1095.59 483.382 1145.63 496.23 1194.69 522.441C1198.44 525.098 1203.25 524.269 1207.01 526.925C1220.7 539.417 1234.9 545.229 1248.32 556.118C1290.46 590.119 1327.79 624.946 1364.63 661.96" fill="#3BB763"/>
<path opacity="0.0552" d="M871.493 484.191C850.52 483.445 830.35 481.664 811.542 478.904C793.88 476.312 776.867 472.772 760.972 468.389C758.652 467.748 756.365 467.052 754.066 466.366C790.291 477.137 831.007 483.098 876.935 484.331C875.128 484.285 873.285 484.253 871.493 484.191Z" fill="#3BB763"/>
<path opacity="0.0552" d="M1014.82 482.63C1017.12 482.74 1019.4 482.867 1021.69 483.001C1019.41 482.87 1017.12 482.747 1014.82 482.63Z" fill="#3BB763"/>
<path opacity="0.0552" d="M724.902 456.274C727.937 457.484 731.014 458.652 734.123 459.78C731.016 458.646 727.94 457.478 724.902 456.274Z" fill="#3BB763"/>
<path opacity="0.0552" d="M736.062 460.484C741.709 462.503 747.471 464.389 753.355 466.152C747.49 464.397 741.722 462.509 736.062 460.484Z" fill="#3BB763"/>
<path opacity="0.0552" d="M1011.76 482.49C1003.15 482.117 994.388 481.909 985.456 481.9C982.089 481.894 978.692 481.921 975.277 481.97C981.78 481.88 988.224 481.856 994.522 481.953C1000.32 482.044 1006.06 482.246 1011.76 482.49Z" fill="#3BB763"/>
<path opacity="0.0552" d="M1047.76 485.217C1040.29 484.397 1032.7 483.737 1024.98 483.221C1030.71 483.602 1036.39 484.039 1041.94 484.582C1043.9 484.778 1045.83 485.007 1047.76 485.217Z" fill="#3BB763"/>
<path opacity="0.0552" d="M974.52 481.981C963.949 482.138 953.154 482.542 942.116 483.184C925.761 484.149 909.823 484.622 894.487 484.601C888.708 484.596 883.051 484.492 877.458 484.346C897.955 484.882 919.486 484.486 942.114 483.153C953.093 482.508 963.911 482.137 974.52 481.981Z" fill="#3BB763"/>
<path opacity="0.0552" d="M381.607 319.989C392.313 315.078 402.602 310.834 412.189 307.378C421.566 303.999 430.593 301.255 439.025 299.215C447.23 297.237 455.165 295.853 462.605 295.118C469.805 294.408 476.806 294.269 483.413 294.709C502.748 295.998 519.909 302.122 537.428 313.985C544.666 318.887 552.029 324.774 560.599 332.514C568.237 339.412 575.862 346.896 583.938 354.817C590.32 361.083 596.918 367.553 603.928 374.135C618.424 387.733 634.132 402.166 652.751 415.95C673.707 431.466 695.223 443.805 718.531 453.667C720.039 454.302 721.566 454.931 723.091 455.543C721.568 454.924 720.009 454.335 718.504 453.693C695.196 443.832 673.671 431.496 652.718 415.974C634.101 402.183 618.39 387.756 603.888 374.156C596.878 367.574 590.282 361.097 583.898 354.837C575.825 346.91 568.2 339.426 560.56 332.535C551.986 324.801 544.629 318.917 537.392 314.015C519.886 302.158 502.731 296.037 483.402 294.75C476.795 294.31 469.801 294.452 462.608 295.165C455.173 295.903 447.241 297.281 439.036 299.259C430.607 301.292 421.577 304.042 412.203 307.415C402.616 310.871 392.328 315.115 381.624 320.019C337.098 340.44 281.653 373.983 212.12 422.558L212.088 422.528C281.63 373.949 337.074 340.406 381.607 319.989Z" fill="#3BB763"/>
<path opacity="0.0803" d="M372.837 332.019C393.15 322.218 411.134 314.926 427.805 309.718C443.795 304.732 458.086 301.819 471.5 300.822C484.112 299.885 495.667 300.661 506.817 303.208C516.962 305.525 526.717 309.299 536.632 314.762C555.311 325.042 571.993 339.79 591.301 356.864C597.737 362.556 604.395 368.438 611.453 374.443C614.48 377.009 617.456 379.567 620.609 382.265C676.061 429.804 744.189 488.217 909.476 488.43C920.737 488.447 932.457 488.191 944.651 487.644C962.265 486.853 979.56 486.68 996.055 487.136C1012.02 487.573 1027.74 488.613 1042.76 490.224C1057.24 491.773 1071.55 493.908 1085.27 496.555C1098.43 499.101 1111.5 502.203 1124.09 505.788C1147.67 512.49 1170.11 520.908 1192.69 531.528C1212.21 540.705 1231.79 551.539 1252.58 564.646C1286.98 586.343 1317.7 610.586 1347.42 634.024C1359.64 643.669 1371.75 653.221 1384 662.534L1384.02 662.64C1371.58 653.198 1359.33 643.535 1347.35 634.078C1317.63 610.633 1286.91 586.396 1252.51 564.702C1191.03 525.929 1110.66 487.147 978.009 486.977C967.244 486.964 956.123 487.202 944.648 487.72C921.482 488.76 899.153 488.774 878.286 487.753C858.561 486.79 839.532 484.877 821.746 482.061C805.063 479.426 788.938 475.909 773.814 471.622C759.795 467.646 746.15 462.861 733.262 457.404C711.075 448.008 690.196 436.28 669.444 421.553C651.197 408.608 635.609 395.242 620.533 382.316C617.383 379.612 614.404 377.06 611.377 374.494C604.323 368.498 597.66 362.607 591.224 356.915C555.904 325.68 527.516 300.578 481.605 300.52C478.329 300.515 474.965 300.641 471.507 300.894C444.466 302.902 412.207 313.105 372.878 332.083C331.093 352.241 280.295 382.756 217.57 425.357L217.51 425.3C280.238 382.692 331.049 352.183 372.837 332.019Z" fill="#3BB763"/>
<path opacity="0.1055" d="M377.129 337.854C397.356 328.283 415.267 321.121 431.884 315.966C447.863 311.005 462.177 308.041 475.647 306.899C499.728 304.866 520.765 308.803 541.859 319.298C561.134 328.889 578.733 342.898 599.104 359.115C605.459 364.172 612.034 369.411 618.975 374.758C626.177 380.297 633.279 386.045 640.79 392.135C696.161 436.974 764.455 492.282 923.919 492.486C931.462 492.495 939.218 492.383 947.179 492.139C955.312 491.887 963.323 491.773 971.227 491.78C1027.02 491.851 1077.32 498.402 1124.34 511.677C1128.56 512.866 1132.75 514.134 1136.92 515.432C1091.13 501.203 1037.41 491.975 971.116 491.892C963.322 491.88 955.333 491.996 947.184 492.249C868.697 494.654 804.187 484.812 749.962 462.173C728.866 453.366 708.823 442.438 688.684 428.757C670.958 416.718 655.57 404.254 640.689 392.205C633.176 386.122 626.076 380.367 618.875 374.829C611.933 369.482 605.356 364.249 599.003 359.186C578.633 342.969 561.04 328.963 541.781 319.386C520.71 308.909 499.705 304.971 475.655 307.003C448.574 309.292 416.368 319.412 377.197 337.945C335.852 357.507 285.424 387.01 223.022 428.15L222.93 428.063C285.347 386.923 335.778 357.413 377.129 337.854Z" fill="#3BB763"/>
<path opacity="0.1306" d="M381.619 343.607C401.781 334.269 419.633 327.241 436.202 322.126C452.182 317.197 466.525 314.184 480.055 312.923C504.317 310.655 525.722 314.14 547.438 323.889C567.348 332.824 585.942 346.145 607.472 361.561C613.572 365.93 619.876 370.443 626.5 375.066C637.571 382.775 648.316 391.207 659.7 400.137C714.575 443.198 782.506 496.512 937.749 496.716C941.676 496.724 945.682 496.69 949.719 496.624C954.157 496.551 958.554 496.52 962.934 496.529C1021.49 496.603 1074.51 503.509 1124.6 517.559C1167.52 529.589 1208.7 546.773 1258.14 573.262C1294.33 592.651 1326.9 613.631 1358.4 633.913C1366.18 638.922 1373.92 643.9 1381.66 648.826L1381.7 649.041C1373.94 644.101 1366.15 639.093 1358.28 634.029C1326.78 613.746 1294.21 592.77 1258.03 573.383C1183.66 533.53 1096.41 496.855 962.567 496.681C958.338 496.678 954.049 496.71 949.729 496.774C945.614 496.844 941.541 496.872 937.508 496.863C869.97 496.775 813.387 486.804 764.869 466.465C744.824 458.061 725.641 447.704 706.227 434.797C689.115 423.42 674.102 411.636 659.583 400.246C648.205 391.319 637.46 382.887 626.389 375.178C619.765 370.555 613.461 366.042 607.361 361.674C563.992 330.605 532.639 308.162 480.097 313.072C452.968 315.609 420.795 325.636 381.738 343.737C340.83 362.692 290.701 391.223 228.506 430.957L228.388 430.843C290.566 391.094 340.695 362.564 381.619 343.607Z" fill="#3BB763"/>
<path opacity="0.1558" d="M484.793 318.878C537.801 313.505 570.842 334.767 616.561 364.203C622.165 367.815 627.97 371.547 634.018 375.371C648.719 384.63 662.631 395.414 677.363 406.828C734.296 450.945 798.79 500.92 950.942 501.118C951.857 501.115 952.791 501.121 953.705 501.118C1015.25 501.198 1071.25 508.5 1124.85 523.423C1178.39 538.333 1223.67 559.16 1260.9 577.575C1297.35 595.601 1330.33 614.769 1362.22 633.304C1368.44 636.919 1374.64 640.518 1380.83 644.09L1380.87 644.346C1374.64 640.748 1368.38 637.116 1362.08 633.449C1330.19 614.914 1297.22 595.748 1260.78 577.726C1168.25 531.978 1080.57 501.464 953.723 501.303C952.809 501.305 951.881 501.302 950.96 501.302C883.269 501.216 826.773 491.115 778.281 470.441C735.667 452.272 704.599 428.197 677.19 406.959C662.465 395.547 648.556 384.773 633.862 375.517C627.814 371.693 622.015 367.964 616.404 364.349C570.731 334.949 537.735 313.707 484.818 319.066C430.114 324.61 355.085 358.904 233.93 433.745L233.788 433.598C354.977 358.733 430.043 324.425 484.793 318.878Z" fill="#3BB763"/>
<path opacity="0.181" d="M391.324 354.827C430.917 337.301 462.242 327.752 489.918 324.758C514.607 322.095 536.885 324.769 560.021 333.18C581.404 340.954 602.342 353.053 626.581 367.064C631.401 369.846 636.383 372.731 641.527 375.664C659.684 385.997 676.293 398.894 693.875 412.543C748.737 455.13 810.92 503.401 954.774 505.597C1015.13 506.52 1070.85 514.256 1125.1 529.261C1177.06 543.63 1222.4 563.036 1263.68 581.863C1299.83 598.362 1332.74 615.61 1364.55 632.293C1369.81 635.045 1375.02 637.777 1380.2 640.482L1380.25 640.772C1374.99 638.024 1369.71 635.261 1364.4 632.477C1332.58 615.803 1299.68 598.555 1263.53 582.059C1181.47 544.612 1090.03 507.879 954.762 505.814C890.584 504.832 836.852 494.486 790.509 474.178C749.993 456.422 720.068 433.197 693.672 412.706C676.097 399.06 659.491 386.173 641.353 375.848C636.209 372.915 631.227 370.031 626.407 367.249C578.16 339.367 543.305 319.222 489.95 324.98C462.309 327.965 431.015 337.513 391.452 355.022C351.394 372.749 301.651 399.416 239.373 436.541L239.204 436.367C301.501 399.234 351.253 372.564 391.324 354.827Z" fill="#3BB763"/>
<path opacity="0.2061" d="M495.526 330.552C520.506 327.718 543.311 330.049 567.297 337.891C589.568 345.168 611.941 356.765 637.849 370.193C641.498 372.082 645.227 374.013 649.053 375.988C670.508 387.003 689.38 401.851 709.358 417.564C761.936 458.927 821.532 505.81 957.325 510.109C1015.88 511.961 1070.84 520.141 1125.37 535.124C1172.61 548.099 1215.94 564.926 1266.46 586.204C1301.62 601.009 1333.85 616.233 1365.02 630.957C1369.97 633.296 1374.88 635.612 1379.77 637.913L1379.83 638.237C1374.87 635.898 1369.88 633.549 1364.86 631.176C1333.69 616.454 1301.46 601.23 1266.31 586.428C1173.2 547.216 1085.68 514.433 957.318 510.368C896.707 508.451 845.825 497.79 801.763 477.792C763.208 460.288 735.717 438.661 709.138 417.751C689.172 402.043 670.317 387.21 648.887 376.206C645.068 374.235 641.332 372.3 637.684 370.412C584.564 342.888 549.47 324.71 495.592 330.819C441.051 337.004 368.407 368.452 244.848 439.352L244.656 439.144C368.241 368.202 440.928 336.742 495.526 330.552Z" fill="#3BB763"/>
<path opacity="0.2313" d="M402.349 365.594C442.236 348.827 473.813 339.489 501.73 336.211C556.43 329.789 593.953 347.213 650.762 373.596L656.565 376.29C681.204 387.676 701.932 404.35 723.877 422.007C774.173 462.469 831.187 508.333 959.858 514.591C1017.32 517.387 1069.99 525.753 1125.62 540.928C1175.28 554.476 1221.89 572.105 1269.23 590.496C1302.52 603.434 1333.32 616.526 1363.1 629.194C1368.59 631.529 1374.03 633.841 1379.46 636.139L1379.52 636.497C1374.01 634.163 1368.49 631.814 1362.93 629.447C1333.15 616.788 1302.35 603.687 1269.06 590.752C1167.64 551.353 1080.48 520.748 959.831 514.878C902.379 512.085 854.064 501.085 812.122 481.24C775.403 463.872 749.068 442.687 723.606 422.202C701.678 404.56 680.966 387.901 656.372 376.535L650.569 373.841C593.831 347.489 556.353 330.085 501.788 336.497C447.12 342.917 376.596 372.539 250.281 442.136L250.065 441.895C314.266 406.517 362.653 382.276 402.349 365.594Z" fill="#3BB763"/>
<path opacity="0.2565" d="M407.941 370.989C448.061 354.548 479.807 345.277 507.854 341.81C563.846 334.877 603.722 351.476 664.073 376.583C691.792 388.071 714.018 406.497 737.557 426.001C785.6 465.829 840.064 510.966 962.391 519.073C1017.45 522.719 1068.96 531.391 1124.5 546.344C1173.96 559.663 1220.27 576.257 1269.29 593.825L1272.01 594.796C1302.36 605.673 1330.75 616.537 1358.22 627.046C1365.33 629.766 1372.35 632.45 1379.29 635.097L1379.36 635.487C1372.29 632.796 1365.19 630.078 1358.03 627.338C1330.57 616.832 1302.18 605.962 1271.83 595.09L1269.11 594.122C1173.32 559.804 1082.85 527.388 962.36 519.404C839.869 511.287 785.349 466.102 737.247 426.233C713.738 406.749 691.534 388.341 663.874 376.879C603.596 351.796 563.784 335.226 507.917 342.137C454.062 348.802 383.346 377.624 255.724 444.933L255.491 444.661C320.477 410.39 368.919 386.979 407.941 370.989Z" fill="#3BB763"/>
<path opacity="0.2816" d="M511.225 347.714C567.497 339.645 608.819 353.543 671.583 376.892C702.298 388.268 725.695 408.37 750.472 429.658C796.32 469.053 848.28 513.706 964.935 523.566C1075.1 532.884 1161.79 561.641 1253.59 592.092C1260.6 594.415 1267.66 596.757 1274.77 599.109C1300.86 607.719 1325.61 616.245 1349.55 624.495C1359.59 627.959 1369.46 631.352 1379.21 634.685L1379.28 635.109C1369.45 631.749 1359.49 628.322 1349.35 624.825C1325.42 616.577 1300.67 608.052 1274.59 599.442C1267.47 597.096 1260.41 594.754 1253.4 592.431C1161.64 561.997 1074.97 533.243 964.88 523.934C848.049 514.056 796.019 469.351 750.126 429.904C725.381 408.646 702.013 388.564 671.382 377.225C608.708 353.916 567.44 340.035 511.309 348.081C458.228 355.686 390.432 382.697 261.164 447.736L260.91 447.424C390.243 382.36 458.083 355.338 511.225 347.714Z" fill="#3BB763"/>
<path opacity="0.3068" d="M514.6 353.627C541.762 349.208 566.009 349.267 593.217 353.796C618.647 358.039 644.931 365.891 679.095 377.194C712.732 388.265 737.009 410.007 762.713 433.018C806.414 472.147 855.949 516.503 967.481 528.054C1067.03 538.362 1148.88 563.687 1235.53 590.491C1249.19 594.713 1263.3 599.083 1277.55 603.409C1297.74 609.543 1317.23 615.597 1336.07 621.452C1350.79 626.027 1365.15 630.485 1379.24 634.8L1379.33 635.258C1365.15 630.922 1350.69 626.43 1335.89 621.829C1317.04 615.974 1297.55 609.92 1277.37 603.789C1263.12 599.457 1249 595.093 1235.35 590.87C1148.73 564.074 1066.91 538.77 967.425 528.459C855.703 516.886 806.102 472.47 762.336 433.281C736.677 410.306 712.436 388.602 678.908 377.565C617.398 357.218 572.74 344.58 514.719 354.017C455.823 363.597 382.089 395.323 266.629 450.534L266.358 450.192C381.858 394.96 455.631 363.213 514.6 353.627Z" fill="#3BB763"/>
<path opacity="0.3319" d="M517.972 359.53C574.201 349.317 617.151 357.186 686.598 377.5C723.099 388.117 747.979 411.446 774.337 436.142C815.963 475.153 863.137 519.364 970.016 532.551C1058.72 543.495 1134.62 565.586 1214.97 588.968C1236.07 595.112 1257.88 601.457 1280.31 607.72C1292.58 611.147 1304.6 614.529 1316.38 617.841C1338.07 623.938 1358.99 629.82 1379.33 635.384L1379.42 635.867C1359.04 630.293 1338.06 624.401 1316.2 618.252C1304.42 614.94 1292.4 611.558 1280.13 608.131C1257.69 601.865 1235.88 595.52 1214.78 589.376C1134.45 565.996 1058.58 543.91 969.935 532.976C862.844 519.765 815.595 475.482 773.91 436.414C747.608 411.766 722.764 388.475 686.403 377.906C617.058 357.621 574.185 349.77 518.099 359.955C461.795 370.181 393.899 398.216 272.059 453.325L271.773 452.946C393.663 397.812 461.593 369.77 517.972 359.53Z" fill="#3BB763"/>
<path opacity="0.3571" d="M521.34 365.44C549.369 359.824 575.203 358.272 602.677 360.548C627.706 362.625 655.05 367.783 694.107 377.809C733.403 387.833 757.511 411.574 785.422 439.06C825.033 478.063 869.918 522.276 972.566 537.048C1050.17 548.218 1119.01 567.272 1191.89 587.451C1221.1 595.538 1251.3 603.902 1283.09 612.033L1288.65 613.456C1320.42 621.588 1350.54 629.304 1379.51 636.369L1379.6 636.883C1350.54 629.801 1320.33 622.07 1288.47 613.911L1282.9 612.482C1251.12 604.341 1220.91 595.981 1191.69 587.895C1118.84 567.727 1050.02 548.681 972.468 537.512C869.599 522.703 824.628 478.422 784.955 439.352C757.103 411.923 733.048 388.237 693.924 378.258C625.851 360.793 580.492 354.085 521.504 365.904C463.83 377.46 391.221 407.718 277.509 456.14L277.218 455.72C390.955 407.278 463.601 377.005 521.34 365.44Z" fill="#3BB763"/>
<path opacity="0.3823" d="M310.952 447.181C518.743 364.231 561.986 346.975 701.606 378.106C743.657 387.421 767.919 412.619 796.014 441.79C833.671 480.89 876.348 525.202 975.103 541.539C1041.42 552.508 1102.11 568.7 1166.36 585.838C1204.25 595.948 1243.45 606.401 1285.84 616.338C1318.63 624.022 1349.78 631.183 1379.71 637.623L1379.82 638.263C1349.47 631.692 1318.19 624.451 1285.65 616.828C1243.24 606.886 1204.05 596.432 1166.14 586.323C1101.91 569.188 1041.24 553.004 974.966 542.039C875.974 525.666 833.211 481.27 795.485 442.101C767.46 412.999 743.257 387.873 701.416 378.606C562.041 347.529 518.841 364.774 311.239 447.646C302.125 451.28 292.701 455.045 282.93 458.934L282.634 458.474C292.412 454.588 301.836 450.822 310.952 447.181Z" fill="#3BB763"/>
<path opacity="0.4074" d="M360.289 434.221C443.318 402.964 498.167 382.307 547.765 373.078C596.448 364.013 641.685 365.509 709.109 378.412C753.866 386.918 778.105 413.542 806.184 444.364C841.95 483.642 882.49 528.153 977.655 546.029C1032.52 556.337 1084.07 569.798 1138.65 584.049C1185.64 596.322 1234.24 609.012 1288.62 620.641C1320.44 627.45 1350.79 633.688 1379.99 639.222L1380.11 639.911C1351.08 634.347 1320.73 628.081 1288.43 621.166C1234.04 609.531 1185.44 596.838 1138.43 584.565C1083.86 570.317 1032.32 556.858 977.492 546.556C882.069 528.636 841.45 484.028 805.608 444.678C777.614 413.939 753.439 387.398 708.939 378.936C576.206 353.534 530.527 370.727 360.588 434.707C339.122 442.793 314.788 451.947 288.375 461.724L288.075 461.223C314.489 451.461 338.818 442.299 360.289 434.221Z" fill="#3BB763"/>
<path opacity="0.4326" d="M400.891 426.192C538.594 376.756 590.119 358.254 716.609 378.709C764.029 386.312 788.093 414.339 815.964 446.797C849.903 486.319 888.365 531.118 980.202 550.517C1023.57 559.677 1065.19 570.515 1109.26 581.984C1165.51 596.63 1223.67 611.766 1291.38 624.948C1322.26 630.96 1351.82 636.452 1380.35 641.299L1380.44 641.832C1351.88 637.028 1322.23 631.555 1291.2 625.523C1223.47 612.339 1165.29 597.194 1109.02 582.549C1064.97 571.082 1023.36 560.253 980.009 551.092C887.899 531.634 849.348 486.742 815.339 447.135C787.564 414.789 763.577 386.849 716.457 379.294C590.205 358.875 538.739 377.35 401.206 426.73C370.241 437.844 335.151 450.443 293.819 464.536L293.52 463.997C334.842 449.907 369.933 437.308 400.891 426.192Z" fill="#3BB763"/>
<path opacity="0.4577" d="M434.183 421.78C492.134 401.657 534.011 387.113 577.076 379.397C621.978 371.348 665.953 371.234 724.111 379.015C774.157 385.644 797.901 415.057 825.398 449.108C857.557 488.941 894.014 534.09 982.752 555.013C1014.73 562.55 1045.87 570.797 1078.85 579.525C1144.2 596.825 1211.78 614.719 1294.15 629.249C1324.14 634.539 1352.89 639.246 1380.71 643.338L1380.82 644.018C1353.84 640.041 1325.05 635.335 1293.97 629.855C1211.56 615.311 1143.96 597.418 1078.59 580.11C1045.63 571.381 1014.49 563.143 982.522 555.603C893.499 534.614 856.957 489.36 824.725 449.433C797.334 415.506 773.678 386.208 723.98 379.624C603.811 363.559 550.748 381.981 434.509 422.346C396.569 435.521 353.57 450.452 299.253 467.337L298.958 466.753C353.263 449.879 396.253 434.951 434.183 421.78Z" fill="#3BB763"/>
<path opacity="0.4829" d="M461.499 419.932C510.7 403.144 549.559 389.884 590.398 382.397C633.745 374.444 677.297 373.498 731.614 379.321C784.255 384.908 807.553 415.676 834.531 451.301C864.972 491.496 899.472 537.062 985.304 559.503C1006.17 564.961 1026.65 570.593 1048.32 576.553C1122.23 596.884 1198.66 617.909 1296.91 633.554C1325.99 638.185 1353.99 642.209 1381.09 645.627L1381.23 646.4C1354.57 642.998 1326.5 638.941 1296.74 634.203C1198.44 618.548 1121.98 597.515 1048.04 577.176C1026.37 571.216 1005.9 565.58 985.042 560.132C898.907 537.611 864.323 491.939 833.809 451.634C806.941 416.158 783.74 385.518 731.504 379.97C616.776 367.66 561.75 386.443 461.841 420.529C418.778 435.224 369.966 451.878 304.689 470.13L304.405 469.505C369.642 451.274 418.444 434.624 461.499 419.932Z" fill="#3BB763"/>
<path opacity="0.5081" d="M483.992 419.876C571.202 390.174 628.819 370.548 739.104 379.621C794.314 384.102 817.057 416.214 843.389 453.388C872.155 494.002 904.763 540.029 987.855 564C998.048 566.938 1008.29 569.934 1018.63 572.953C1100.15 596.769 1184.46 621.399 1299.67 637.861C1327.89 641.893 1355.12 645.349 1381.54 648.243L1381.67 648.998C1355.57 646.133 1328.29 642.669 1299.51 638.551C1184.22 622.077 1099.88 597.433 1018.32 573.606C1007.97 570.587 997.736 567.591 987.543 564.653C904.145 540.593 871.453 494.444 842.61 453.727C816.396 416.72 793.76 384.764 739.012 380.317C628.963 371.264 571.436 390.861 484.353 420.519C437.464 436.487 384.324 454.583 310.114 472.949L309.847 472.286C384.013 453.931 437.129 435.84 483.992 419.876Z" fill="#3BB763"/>
<path opacity="0.5332" d="M502.688 421.067C582.498 393.568 640.151 373.705 746.598 379.93C804.352 383.256 826.438 416.682 852.019 455.382C879.159 496.444 909.924 542.993 990.404 568.497L990.835 568.633C1074.53 595.16 1169.4 625.222 1302.43 642.175C1329.84 645.664 1356.33 648.611 1382.02 650.994L1382.15 651.742C1356.43 649.354 1329.86 646.411 1302.29 642.901C1169.15 625.942 1074.23 595.856 990.487 569.317L990.056 569.18C909.248 543.569 878.405 496.902 851.187 455.72C825.74 417.218 803.757 383.961 746.529 380.66C640.334 374.438 582.752 394.279 503.066 421.741C453.263 438.901 396.814 458.351 315.532 475.75L315.285 475.042C396.501 457.653 452.92 438.219 502.688 421.067Z" fill="#3BB763"/>
<path opacity="0.5584" d="M518.419 423.112C592.329 397.068 650.725 376.512 754.104 380.23C814.375 382.358 835.73 417.072 860.456 457.275C886.013 498.828 914.981 545.933 992.973 572.986C1075.71 601.693 1167.97 631.012 1305.2 646.469C1331.74 649.459 1357.46 651.883 1382.5 653.778L1382.65 654.635C1357.6 652.703 1331.77 650.243 1305.06 647.237C1167.71 631.763 1075.38 602.419 992.576 573.694C914.252 546.525 885.205 499.284 859.57 457.613C834.984 417.633 813.748 383.101 754.062 381.002C650.899 377.264 592.622 397.811 518.83 423.816C466.724 442.177 407.67 462.987 320.966 478.55L320.745 477.8C407.349 462.254 466.356 441.462 518.419 423.112Z" fill="#3BB763"/>
<path opacity="0.5835" d="M531.837 425.771C600.889 400.696 660.555 379.021 761.597 380.539C824.378 381.419 844.92 417.417 868.714 459.104C892.727 501.18 919.947 548.872 995.526 577.492C1074.32 607.324 1166.7 636.85 1307.96 650.783C1333.69 653.323 1358.67 655.318 1383.02 656.818L1383.17 657.691C1358.73 656.149 1333.66 654.13 1307.83 651.584C1166.42 637.634 1073.94 608.08 995.077 578.215C919.154 549.466 891.852 501.63 867.77 459.432C844.124 418.002 823.705 382.212 761.579 381.345C660.713 379.881 601.206 401.473 532.275 426.502C478.3 446.102 417.125 468.308 326.39 481.354L326.205 480.558C416.805 467.538 477.921 445.343 531.837 425.771Z" fill="#3BB763"/>
<path opacity="0.6087" d="M543.453 428.861C608.374 404.449 669.7 381.395 769.084 380.846C769.515 380.845 769.93 380.844 770.351 380.846C834.603 380.932 854.178 417.992 876.811 460.863C899.316 503.485 924.824 551.802 998.074 581.995C1064.2 609.255 1159.5 642.198 1310.71 655.097C1335.64 657.223 1359.87 658.835 1383.54 659.99L1383.69 660.87C1359.94 659.7 1335.61 658.077 1310.59 655.942C1159.2 643.024 1063.77 610.042 997.565 582.746C923.966 552.406 898.376 503.945 875.808 461.187C852.401 416.853 833.879 381.771 770.392 381.692C769.961 381.694 769.524 381.693 769.084 381.698C669.932 382.243 608.721 405.262 543.904 429.629C485.651 451.53 425.415 474.182 331.78 484.165L331.634 483.333C425.121 473.354 485.273 450.734 543.453 428.861Z" fill="#3BB763"/>
<path opacity="0.6339" d="M337.115 486.077C432.503 479.579 494.096 455.523 553.662 432.267C617.777 407.23 678.337 383.584 776.584 381.143C807.675 380.357 830.303 387.66 847.815 404.142C863.603 419.001 873.903 440.149 884.803 462.544C905.833 505.743 929.677 554.699 1000.64 586.485C1093.16 627.923 1189.63 650.408 1313.48 659.392C1337.62 661.147 1361.13 662.41 1384.12 663.254L1384.27 664.15C1361.12 663.309 1337.5 662.017 1313.37 660.267C1189.36 651.263 1092.74 628.745 1000.08 587.244C928.766 555.302 904.848 506.183 883.749 462.846C861.295 416.738 843.587 380.319 776.613 382.016C678.614 384.451 618.159 408.051 554.155 433.045C494.494 456.343 432.811 480.429 337.201 486.944L337.115 486.077Z" fill="#3BB763"/>
<path opacity="0.659" d="M342.579 488.844C439.146 486.122 501.984 460.604 562.759 435.933C623.604 411.224 686.522 385.681 784.081 381.462C854.297 378.388 871.25 416.254 892.697 464.19C912.287 507.973 934.497 557.604 1003.21 590.996C1089.48 632.914 1188.95 656.024 1316.24 663.715C1339.59 665.127 1362.39 666.088 1384.7 666.619L1384.87 667.576C1362.44 667.025 1339.56 666.04 1316.16 664.63C1188.67 656.93 1089.04 633.778 1002.59 591.777C933.526 558.219 911.249 508.428 891.595 464.494C870.31 416.921 853.525 379.352 784.153 382.376C686.851 386.586 624.044 412.087 563.307 436.743C502.418 461.464 439.46 487.028 342.635 489.76L342.579 488.844Z" fill="#3BB763"/>
<path opacity="0.6842" d="M348.052 491.608C350.165 491.636 352.263 491.649 354.348 491.657C447.847 491.778 507.697 466.506 570.968 439.783C631.622 414.168 694.335 387.682 791.575 381.771C864.265 377.319 880.268 416.362 900.507 465.798C918.683 510.192 939.294 560.507 1005.77 595.508C1087.53 638.546 1187.06 661.59 1319 668.028C1341.58 669.129 1363.67 669.818 1385.3 670.108L1385.46 671.037C1363.62 670.763 1341.45 670.078 1318.93 668.984C1186.75 662.535 1087.03 639.438 1005.09 596.304C938.257 561.116 917.582 510.635 899.342 466.089C879.261 417.061 863.408 378.337 791.667 382.726C694.688 388.621 632.086 415.064 571.546 440.629C506.719 468.008 445.473 493.884 348.025 492.571L348.052 491.608Z" fill="#3BB763"/>
<path opacity="0.7094" d="M353.518 494.369C450.747 499.861 512.773 472.618 578.458 443.784C639.108 417.154 701.834 389.614 799.065 382.072C874.262 376.202 889.256 416.434 908.255 467.356C925.052 512.37 944.087 563.384 1008.33 600.001C1084.85 643.604 1187.37 667.262 1321.76 672.323C1343.59 673.148 1364.95 673.561 1385.89 673.595L1386.07 674.617C1364.93 674.565 1343.48 674.137 1321.69 673.317C1187.05 668.243 1084.3 644.529 1007.59 600.807C942.99 563.99 923.884 512.806 907.033 467.638C888.193 417.154 873.317 377.281 799.187 383.062C702.217 390.589 639.614 418.076 579.072 444.653C513.221 473.568 451.015 500.87 353.424 495.364L353.518 494.369Z" fill="#3BB763"/>
<path opacity="0.7345" d="M358.997 497.135C455.901 506.959 515.9 479.596 585.367 447.918C643.347 421.475 709.064 391.511 806.561 382.375C884.231 375.079 898.231 416.484 915.965 468.913C931.403 514.554 948.903 566.28 1010.9 604.506C1083.56 649.298 1186.14 672.891 1324.52 676.631C1339.82 677.043 1354.85 677.258 1369.72 677.273C1375.35 677.281 1380.95 677.25 1386.52 677.202L1386.7 678.24C1381.25 678.283 1375.8 678.322 1370.32 678.313C1355.17 678.289 1339.87 678.078 1324.48 677.654C1185.8 673.91 1082.97 650.241 1010.09 605.312C947.736 566.87 930.177 514.964 914.692 469.172C897.125 417.232 883.244 376.201 806.717 383.395C709.485 392.503 643.892 422.414 586.025 448.808C516.347 480.584 456.175 508.024 358.829 498.158L358.997 497.135Z" fill="#3BB763"/>
<path opacity="0.7597" d="M364.476 499.901C460.746 514.166 521.475 485.429 591.79 452.161C650.042 424.602 716.068 393.362 814.055 382.684C894.211 373.931 907.199 416.532 923.647 470.465C937.747 516.735 953.734 569.174 1013.48 609.014C1082.18 654.821 1184.82 678.352 1327.29 680.941C1347.47 681.25 1367.43 681.217 1387.16 680.846L1387.33 681.885C1375.78 682.105 1364.17 682.234 1352.46 682.222C1344.1 682.212 1335.7 682.144 1327.26 682.011C1184.47 679.415 1081.54 655.807 1012.6 609.829C952.52 569.767 935.777 514.851 922.323 470.716C906.041 417.31 893.199 375.127 814.247 383.744C716.535 394.39 650.637 425.564 592.494 453.071C521.936 486.454 460.998 515.283 364.221 500.948L364.476 499.901Z" fill="#3BB763"/>
<path opacity="0.7848" d="M369.959 502.677C465.328 521.449 526.727 491.35 597.816 456.505C656.442 427.768 722.886 395.2 821.545 382.985C904.211 372.738 916.169 416.557 931.295 472.024C943.453 516.608 958.585 572.093 1016.04 613.514C1081.41 660.655 1184.12 684.113 1330.04 685.239C1333.02 685.261 1335.97 685.268 1338.94 685.274C1355.48 685.298 1371.76 685.073 1387.79 684.636L1387.98 685.733C1371.8 686.168 1355.49 686.398 1339.02 686.377C1336.04 686.371 1333.03 686.361 1330.03 686.34C1183.74 685.212 1080.72 661.656 1015.08 614.329C957.305 572.664 942.122 516.995 929.919 472.253C922.229 444.053 915.586 419.701 900.589 403.363C884.249 385.566 859.207 379.437 821.763 384.071C723.392 396.245 657.074 428.753 598.558 457.432C527.196 492.409 465.563 522.619 369.613 503.737L369.959 502.677Z" fill="#3BB763"/>
<path opacity="0.81" d="M375.445 505.446C469.695 528.782 528.744 498.843 603.5 460.928C662.58 430.971 729.539 397.011 829.032 383.291C868.237 377.884 894.201 383.96 910.733 402.418C925.78 419.215 931.882 444.426 938.944 473.615C960.975 564.636 991.031 689.11 1327.7 689.551C1329.37 689.553 1331.12 689.555 1332.81 689.549C1351.7 689.508 1370.24 689.147 1388.47 688.52L1388.66 689.618C1370.19 690.262 1351.59 690.648 1332.82 690.69C1331.09 690.694 1329.37 690.694 1327.65 690.694C1178.77 690.501 1076.47 666.31 1015.02 616.803C961.732 573.867 948.31 518.401 937.527 473.834C930.493 444.772 924.425 419.676 909.557 403.081C893.391 385.029 867.89 379.105 829.306 384.426C730.101 398.104 663.27 431.998 604.307 461.899C568.138 480.239 533.977 497.562 497.724 507.007C457.537 517.469 418.551 517.323 375.019 506.548L375.445 505.446Z" fill="#3BB763"/>
</g>
<path opacity="0.14" d="M181.774 365.002L183.22 364.858C204.502 495.465 244.444 570.533 308.909 601.113C384.874 637.149 488.142 607.204 607.718 572.527C685.513 549.972 773.683 524.401 865.447 514.413C992.445 500.587 1045.12 539.811 1106.09 585.222C1167.11 630.666 1233.86 680.38 1388.21 687.017L1388.37 687.956C1345.64 686.087 1307.35 680.872 1273.18 672.292C1194.3 652.484 1146.9 617.186 1105.09 586.046C1044.38 540.839 991.959 501.792 865.648 515.538C774.044 525.513 685.948 551.054 608.222 573.593C488.295 608.369 384.72 638.401 308.151 602.082C243.27 571.312 203.118 495.974 181.774 365.002Z" fill="#3BB763"/>
<path opacity="0.1587" d="M190.273 365.695C215.747 491.713 257.981 564.67 323.191 595.302C401.09 631.894 505.043 603.717 625.406 571.099C698.956 551.167 782.31 528.574 869.443 518.643C996.592 504.023 1049.63 542.551 1111.04 587.165C1171.65 631.192 1237.92 679.328 1388.09 686.379L1388.25 687.327C1347.15 685.364 1310.19 680.284 1277.04 672.048C1199.09 652.683 1151.79 618.318 1110.05 587.998C1048.91 543.585 996.115 505.225 869.651 519.771C782.656 529.686 699.363 552.261 625.882 572.177C505.169 604.893 400.92 633.147 322.43 596.278C256.824 565.464 214.368 492.247 188.823 365.867L190.273 365.695Z" fill="#3BB763"/>
<path opacity="0.1774" d="M197.329 366.525C227.135 488.109 271.786 559.017 337.842 589.662C417.899 626.809 522.802 600.356 644.269 569.739C713.259 552.344 791.454 532.637 873.451 522.862C1000.77 507.427 1054.2 545.266 1116.06 589.082C1176.22 631.694 1242 678.25 1387.98 685.708L1388.14 686.688C1348.68 684.647 1313.04 679.686 1280.94 671.797C1203.93 652.877 1156.72 619.438 1115.07 589.941C1053.48 546.325 1000.3 508.647 873.669 524.003C791.784 533.766 713.649 553.46 644.712 570.84C522.906 601.546 417.711 628.069 337.082 590.654C270.63 559.826 225.763 488.677 195.875 366.742L197.329 366.525Z" fill="#3BB763"/>
<path opacity="0.1961" d="M204.386 367.355C238.709 484.709 285.927 553.628 352.989 584.257C435.483 621.934 541.691 597.149 664.664 568.441C728.678 553.499 801.233 536.566 877.455 527.073C1004.98 510.814 1058.8 547.968 1121.12 590.989C1180.82 632.195 1246.05 677.193 1387.87 685.038L1388.04 686.01C1350.21 683.895 1315.89 679.082 1284.86 671.541C1208.8 653.06 1161.7 620.549 1120.15 591.862C1058.1 549.035 1004.52 512.055 877.693 528.222C801.567 537.704 729.061 554.628 665.091 569.558C586.507 587.904 514.764 604.65 451.549 604.561C415.577 604.511 382.363 599.016 352.241 585.254C284.804 554.451 237.36 485.295 202.936 367.612L204.386 367.355Z" fill="#3BB763"/>
<path opacity="0.2148" d="M211.439 368.192C250.587 481.698 300.672 548.82 369.049 579.408C454.55 617.663 562.865 594.277 688.277 567.206C749.263 554.043 812.322 540.43 881.458 531.305C1009.19 514.455 1063.4 550.889 1126.17 593.074C1185.36 632.846 1250 676.266 1387.76 684.421L1387.92 685.4C1351.68 683.234 1318.69 678.568 1288.72 671.382C1213.63 653.374 1166.65 621.813 1125.21 593.96C1062.71 551.969 1008.74 515.699 881.708 532.46C812.647 541.571 749.622 555.177 688.676 568.334C625.72 581.924 566.252 594.76 512.931 599.157C453.728 604.027 407.77 598.083 368.315 580.427C299.565 549.674 249.262 482.333 210.005 368.502L211.439 368.192Z" fill="#3BB763"/>
<path opacity="0.2335" d="M218.489 369.019C269.494 495.51 334.153 564.811 421.978 587.104C503.502 607.795 601.039 588.39 713.975 565.91C768.183 555.126 824.239 543.968 885.466 535.525C1013.41 517.881 1068.07 553.622 1131.34 595.01C1190 633.38 1254.03 675.247 1387.65 683.734L1387.82 684.732C1353.2 682.514 1321.56 677.991 1292.67 671.147C1218.55 653.582 1171.71 622.943 1130.37 595.905C1067.39 554.704 1013 519.133 885.725 536.676C824.554 545.113 768.527 556.26 714.349 567.042C634.891 582.851 563.053 597.153 498.939 597.066C471.741 597.032 445.926 594.407 421.519 588.214C378.317 577.247 341.589 555.714 309.234 522.388C274.155 486.246 244.002 436.192 217.06 369.37L218.489 369.019Z" fill="#3BB763"/>
<path opacity="0.2523" d="M225.539 369.846C350.592 636.764 507.008 608.009 743.781 564.471C789.969 555.978 837.734 547.198 889.464 539.749C1017.7 521.289 1072.77 556.344 1136.54 596.935C1194.65 633.916 1258.04 674.239 1387.52 683.039L1387.69 684.044C1354.69 681.786 1324.4 677.419 1296.63 670.924C1223.5 653.809 1176.79 624.078 1135.58 597.854C1072.1 557.444 1017.28 522.551 889.731 540.918C838.035 548.36 790.292 557.141 744.122 565.628C627.683 587.036 527.12 605.526 442.393 584.717C397.816 573.772 359.392 552.549 324.932 519.836C287.69 484.489 254.712 435.566 224.119 370.263L225.539 369.846Z" fill="#3BB763"/>
<path opacity="0.271" d="M232.592 370.667C299.319 493.75 371.274 558.544 465.898 580.756C553.795 601.392 653.469 584.29 779.657 562.637C815.938 556.413 853.456 549.977 893.473 543.968C1022.01 524.668 1077.53 559.047 1141.82 598.846C1199.34 634.444 1262.04 673.244 1387.4 682.344L1387.57 683.364C1356.2 681.076 1327.28 676.858 1300.63 670.695C1228.49 654.014 1181.95 625.203 1140.87 599.778C1076.87 560.16 1021.6 525.945 893.755 545.137C853.754 551.145 816.245 557.577 779.974 563.797C693.505 578.636 619.473 591.338 553.064 591.251C522.392 591.209 493.338 588.443 465.456 581.896C370.352 559.572 298.104 494.572 231.183 371.127L232.592 370.667Z" fill="#3BB763"/>
<path opacity="0.2897" d="M239.635 371.492C315.845 493.283 393.703 557.246 492.081 578.883C584.652 599.243 690.661 581.877 824.878 559.895C848.23 556.073 872.38 552.112 897.481 548.188C1026.35 528.035 1082.34 561.732 1147.17 600.741C1204.06 634.973 1266.04 672.261 1387.29 681.626L1387.47 682.649C1357.72 680.343 1330.17 676.286 1304.68 670.465C1233.55 654.22 1187.17 626.312 1146.25 601.691C1081.71 562.859 1025.99 529.316 897.785 549.358C872.69 553.286 848.543 557.24 825.198 561.065C732.546 576.242 653.327 589.216 582.598 589.124C550.713 589.083 520.546 586.386 491.674 580.031C392.841 558.293 314.685 494.137 238.27 372.009L239.635 371.492Z" fill="#3BB763"/>
<path opacity="0.3084" d="M246.672 372.314C335.825 495.878 418.442 557.477 522.911 578.273C621.895 597.982 738.137 579.034 885.308 555.046L901.479 552.411C1030.72 531.386 1087.2 564.399 1152.58 602.631C1208.8 635.502 1270.02 671.273 1387.16 680.9L1387.33 681.938C1359.21 679.622 1333.05 675.731 1308.73 670.253C1238.62 654.444 1192.42 627.436 1151.67 603.602C1086.57 565.545 1030.36 532.676 901.8 553.597L885.628 556.231C738.267 580.251 621.869 599.222 522.533 579.441C471.088 569.201 424.934 548.761 381.425 516.963C335.654 483.512 291.139 436.393 245.336 372.905L246.672 372.314Z" fill="#3BB763"/>
<path opacity="0.3271" d="M253.709 373.135C352.821 492.211 438.423 552.649 539.93 575.23C642.229 597.985 760.932 581.092 905.482 556.644C1035.13 534.716 1092.11 567.061 1158.06 604.517C1213.58 636.041 1273.99 670.323 1387.02 680.174L1387.21 681.221C1360.7 678.906 1335.95 675.184 1312.82 670.039C1243.74 654.665 1197.74 628.544 1157.15 605.497C1091.49 568.209 1034.79 536.008 905.809 557.832C761.044 582.316 642.144 599.237 539.505 576.401C437.6 553.728 351.743 493.139 252.408 373.804L253.709 373.135Z" fill="#3BB763"/>
<path opacity="0.3458" d="M260.74 373.954C474.228 595.835 603.62 614.602 909.49 560.863C1039.59 538.005 1097.07 569.685 1163.64 606.373C1218.41 636.56 1277.96 669.37 1386.91 679.415L1387.08 680.469C1362.21 678.174 1338.86 674.63 1316.95 669.817C1248.93 654.868 1203.14 629.638 1162.75 607.368C1096.49 570.854 1039.26 539.31 909.839 562.054C819.54 577.917 744.593 587.476 678.314 587.391C519.519 587.183 410.489 531.608 259.504 374.683L260.74 373.954Z" fill="#3BB763"/>
<path opacity="0.3645" d="M267.764 374.77C500.053 582.889 620.745 618.461 913.488 565.087C1044.08 541.278 1102.1 572.297 1169.28 608.22C1223.26 637.083 1281.91 668.418 1386.76 678.639L1386.95 679.721C1363.7 677.452 1341.78 674.079 1321.11 669.597C1254.15 655.071 1208.59 630.718 1168.39 609.228C1101.52 573.469 1043.76 542.588 913.844 566.28C755.304 595.186 653.603 595.749 562.804 568.234C460.965 537.369 370.73 468.896 266.579 375.575L267.764 374.77Z" fill="#3BB763"/>
<path opacity="0.3832" d="M274.782 375.583C509.045 555.535 616.126 626.292 917.496 569.306C1048.62 544.513 1107.2 574.88 1175.02 610.044C1228.16 637.592 1285.84 667.492 1386.63 677.86L1386.82 678.932C1365.2 676.708 1344.71 673.538 1325.31 669.381C1259.43 655.279 1214.13 631.79 1174.15 611.072C1106.64 576.067 1048.32 545.842 917.865 570.506C842.84 584.689 779.883 591.07 725.442 590.045C671.236 589.008 621.85 580.536 574.461 564.142C479.11 531.154 389.65 465.549 273.679 376.463L274.782 375.583Z" fill="#3BB763"/>
<path opacity="0.4019" d="M281.79 376.4C306.898 392.806 330.179 408.305 352.698 423.291C554.952 557.894 656.467 625.455 921.489 573.527C1053.19 547.722 1112.34 577.442 1180.84 611.854C1233.08 638.102 1289.77 666.563 1386.48 677.04L1386.67 678.153C1366.67 675.987 1347.65 672.995 1329.54 669.167C1264.75 655.478 1219.71 632.854 1179.98 612.895C1111.79 578.638 1052.9 549.053 921.864 574.729C793.709 599.843 701.468 598.367 613.414 569.816C529.544 542.622 454.93 492.965 351.658 424.236C329.14 409.251 305.855 393.758 280.757 377.348L281.79 376.4Z" fill="#3BB763"/>
<path opacity="0.4206" d="M288.799 377.217C345.61 408.476 394.435 438.493 437.511 464.98C599.01 564.28 696.497 624.212 925.497 577.747C1057.83 550.893 1117.58 579.975 1186.78 613.643C1238.09 638.609 1293.67 665.657 1386.36 676.225L1386.55 677.329C1368.18 675.243 1350.62 672.464 1333.84 668.963C1270.17 655.692 1225.42 633.915 1185.94 614.708C1117.06 581.185 1057.56 552.249 925.906 578.956C871.381 590.022 824.303 595.075 782.03 595.02C646.16 594.839 560.011 541.875 436.539 465.963C393.473 439.488 344.668 409.479 287.895 378.238L288.799 377.217Z" fill="#3BB763"/>
<path opacity="0.4394" d="M295.804 378.04C378.236 415.668 442.154 454.019 498.541 487.854C635.797 570.202 726.469 624.605 929.502 581.973C1062.5 554.047 1122.89 582.489 1192.81 615.427C1243.12 639.121 1297.58 664.757 1386.21 675.384L1386.4 676.528C1369.67 674.531 1353.6 671.945 1338.15 668.767C1275.62 655.898 1231.18 634.967 1191.98 616.501C1122.37 583.711 1062.25 555.395 929.909 583.189C835.673 602.978 758.873 602.797 688.216 582.616C622.578 563.862 564.64 529.105 497.554 488.854C441.203 455.043 377.327 416.717 294.985 379.129L295.804 378.04Z" fill="#3BB763"/>
<path opacity="0.4581" d="M302.801 378.867C406.464 417.347 479.83 461.993 544.558 501.378C663.589 573.808 749.594 626.141 933.501 586.196C1067.23 557.151 1128.28 584.97 1198.96 617.184C1248.21 639.627 1301.45 663.897 1386.06 674.536L1386.26 675.674C1371.16 673.787 1356.59 671.425 1342.53 668.568C1281.15 656.102 1237.06 636.011 1198.15 618.276C1127.79 586.21 1067.01 558.514 933.936 587.417C848.827 605.904 778.888 605.745 713.838 586.929C654.127 569.65 602.89 538.475 543.572 502.378C478.911 463.03 405.617 418.432 302.11 380.013L302.801 378.867Z" fill="#3BB763"/>
<path opacity="0.4768" d="M309.797 379.694C431.664 415.424 510.976 465.637 580.952 509.943C685.528 576.155 768.117 628.453 937.506 590.422C1072.03 560.217 1133.76 587.422 1205.23 618.926C1253.34 640.13 1305.32 663.027 1385.91 673.647L1386.11 674.819C1372.65 673.056 1359.61 670.907 1346.95 668.372C1286.76 656.307 1243.02 637.035 1204.44 620.026C1133.28 588.668 1071.83 561.579 937.951 591.64C897.95 600.618 862.795 604.591 831.016 604.551C727.6 604.409 660.202 561.756 579.924 510.932C510.048 466.693 430.846 416.544 309.222 380.891L309.797 379.694Z" fill="#3BB763"/>
<path opacity="0.4955" d="M316.791 380.527C454.769 411.101 537.746 466.672 610.956 515.701C707.381 580.276 783.546 631.286 941.507 594.639C1076.89 563.237 1139.33 589.836 1211.63 620.633C1258.55 640.618 1309.16 662.169 1385.75 672.743L1385.96 673.924C1374.15 672.305 1362.63 670.395 1351.44 668.181C1292.45 656.511 1249.1 638.047 1210.86 621.757C1138.88 591.096 1076.71 564.609 941.978 595.868C783.174 632.703 706.701 581.503 609.899 516.669C536.819 467.729 453.984 412.252 316.349 381.752L316.791 380.527Z" fill="#3BB763"/>
<path opacity="0.5142" d="M323.781 381.367C476.405 405.116 561.495 466.034 636.567 519.778C726.084 583.865 796.786 634.487 945.506 598.862C1007.97 583.897 1058.68 580.093 1105.04 586.878C1146.89 593.002 1181.51 607.248 1218.16 622.337C1263.81 641.122 1312.98 661.361 1385.6 671.835L1385.8 673.033C1375.64 671.574 1365.68 669.907 1355.96 668.006C1298.2 656.724 1255.28 639.057 1217.4 623.473C1144.56 593.497 1081.64 567.603 945.989 600.097C877.369 616.534 820.715 615.721 767.692 597.536C719.807 581.115 678.834 551.78 635.456 520.73C560.543 467.095 475.631 406.31 323.461 382.63L323.781 381.367Z" fill="#3BB763"/>
<path opacity="0.5329" d="M330.779 382.209C497 397.942 583.09 464.277 659.051 522.804C739.241 584.597 808.495 637.957 949.511 603.089C1012.45 587.526 1063.56 583.233 1110.36 589.571C1152.61 595.292 1187.7 609.239 1224.85 624.002C1269.14 641.604 1316.79 660.535 1385.43 670.881L1385.64 672.11C1377.13 670.834 1368.76 669.412 1360.54 667.829C1304.04 656.927 1261.57 640.05 1224.1 625.157C1147.3 594.643 1086.65 570.537 949.997 604.317C884.925 620.403 831.331 619.284 781.33 600.791C736.276 584.131 698.201 554.787 657.878 523.721C582.107 465.339 496.228 399.168 330.566 383.489L330.779 382.209Z" fill="#3BB763"/>
<path opacity="0.5516" d="M337.773 383.058C516.833 389.886 603.108 461.745 679.225 525.147C754.253 587.644 819.056 641.61 953.51 607.312C1016.95 591.134 1068.5 586.337 1115.75 592.228C1158.44 597.551 1194.02 611.207 1231.7 625.66C1274.55 642.097 1320.59 659.754 1385.27 669.918L1385.51 671.289C1320.36 661.11 1274.05 643.353 1230.97 626.82C1153.19 596.981 1091.75 573.406 954.034 608.541C924.698 616.021 898.672 619.345 875.115 619.307C789.887 619.195 737.11 575.241 678.025 526.021C602.121 462.798 516.088 391.139 337.699 384.338L337.773 383.058Z" fill="#3BB763"/>
<path opacity="0.5703" d="M344.776 383.904C430.113 382.675 502.108 397.467 564.946 429.124C619.896 456.812 659.431 492.512 697.668 527.032C768.007 590.551 828.746 645.408 957.512 611.529C1021.49 594.7 1073.52 589.392 1121.23 594.838C1164.39 599.764 1200.49 613.128 1238.71 627.275C1280.03 642.569 1324.35 658.977 1385.1 668.929L1385.33 670.308C1324.13 660.346 1279.54 643.837 1237.99 628.456C1159.17 599.28 1096.91 576.231 958.048 612.764C828.234 646.916 767.146 591.752 696.41 527.881C620.924 459.715 535.356 382.434 344.81 385.2L344.776 383.904Z" fill="#3BB763"/>
<path opacity="0.589" d="M351.784 384.758C442.376 379.019 517.602 392.092 581.791 424.722C637.907 453.247 676.975 491.566 714.758 528.626C780.779 593.385 837.791 649.313 961.514 615.761C1102.26 577.589 1165.65 600.229 1245.9 628.894C1285.59 643.071 1328.09 658.249 1384.93 667.932L1385.16 669.31C1327.9 659.607 1285.12 644.345 1245.2 630.091C1165.29 601.554 1102.17 579.008 962.061 617.009C837.227 650.867 779.866 594.601 713.442 529.449C638.804 456.238 554.182 373.273 351.918 386.069L351.784 384.758Z" fill="#3BB763"/>
<path opacity="0.6077" d="M598.119 420.03C655.211 449.386 695.356 492.218 730.772 530.013C792.776 596.168 846.322 653.304 965.513 619.985C1107.58 580.278 1171.88 602.431 1253.27 630.473C1291.24 643.556 1331.81 657.528 1384.74 666.899L1384.99 668.296C1331.64 658.904 1290.79 644.848 1252.6 631.687C1171.55 603.765 1107.53 581.711 966.088 621.237C845.711 654.877 791.818 597.38 729.42 530.797C655.976 452.433 572.725 363.618 359.026 386.922L358.791 385.612C454.491 375.176 532.777 386.43 598.119 420.03Z" fill="#3BB763"/>
<path opacity="0.6265" d="M614.038 415.119C671.965 445.312 711.258 490.977 745.925 531.266C804.143 598.918 854.424 657.345 969.511 624.208C1113.02 582.893 1178.26 604.574 1260.86 632.023C1296.99 644.031 1335.51 656.823 1384.56 665.83L1384.81 667.242C1335.35 658.211 1296.56 645.324 1260.21 633.245C1177.95 605.912 1112.98 584.322 970.105 625.453C946.831 632.157 926.191 635.158 907.585 635.136C833.198 635.039 791.41 586.491 744.523 532.005C672.564 448.386 590.988 353.61 366.127 387.772L365.804 386.47C466.501 371.171 547.706 380.544 614.038 415.119Z" fill="#3BB763"/>
<path opacity="0.6452" d="M629.631 410.041C688.265 441.084 726.572 489.622 760.375 532.439C815.022 601.66 862.208 661.444 973.523 628.437C1118.57 585.43 1184.82 606.673 1268.69 633.562C1302.86 644.512 1339.21 656.163 1384.39 664.754L1384.63 666.182C1339.06 657.563 1302.44 645.827 1268.04 634.803C1184.52 608.023 1118.54 586.877 974.127 629.694C952.009 636.249 932.419 639.2 914.776 639.173C842.554 639.073 803.157 589.179 758.928 533.143C688.698 444.17 609.097 343.326 373.235 388.625L372.827 387.324C478.442 367.043 562.444 374.467 629.631 410.041Z" fill="#3BB763"/>
<path opacity="0.6639" d="M644.95 404.819C704.185 436.726 741.392 488.171 774.217 533.565C825.448 604.402 869.692 665.58 977.519 632.667C1124.21 587.886 1191.52 608.708 1276.74 635.068C1308.82 644.992 1342.87 655.524 1384.19 663.644L1384.43 665.082C1342.74 656.929 1308.42 646.312 1276.11 636.317C1191.24 610.064 1124.21 589.329 978.148 633.919C957.092 640.345 938.447 643.245 921.683 643.223C851.495 643.124 814.397 591.85 772.724 534.233C704.435 439.808 627.029 332.78 380.318 389.482L379.835 388.194C490.306 362.797 577.026 368.236 644.95 404.819Z" fill="#3BB763"/>
<path opacity="0.6826" d="M660.025 399.436C719.759 432.193 755.748 486.569 787.496 534.542C835.465 607.009 876.891 669.598 981.518 636.89C1129.92 590.032 1198.37 610.52 1285.04 636.455C1314.91 645.394 1346.52 654.854 1383.98 662.472L1384.23 663.909C1346.4 656.252 1314.52 646.72 1284.42 637.71C1198.11 611.878 1129.93 591.474 982.156 638.139C962.124 644.403 944.393 647.231 928.466 647.21C860.07 647.12 825.177 594.418 785.956 535.159C754.294 487.324 718.41 433.11 659.021 400.543C590.965 363.218 502.119 359.88 387.4 390.324L386.845 389.042C502.129 358.449 591.485 361.851 660.025 399.436Z" fill="#3BB763"/>
<path opacity="0.7013" d="M674.943 394.044C735.117 427.717 769.812 485.091 800.431 535.705C845.263 609.833 883.981 673.843 985.519 641.107C1135.86 592.38 1205.48 612.494 1293.62 637.96C1321.12 645.905 1350.16 654.29 1383.79 661.321L1384.05 662.777C1350.06 655.706 1320.77 647.252 1293.03 639.233C1205.24 613.87 1135.9 593.84 986.192 642.364C967.027 648.542 950.077 651.339 934.886 651.321C868.395 651.228 835.674 597.136 798.868 536.289C768.338 485.822 733.745 428.616 673.939 395.151C605.345 356.768 513.943 355.462 394.51 391.17L393.89 389.898C513.905 354.018 605.838 355.373 674.943 394.044Z" fill="#3BB763"/>
<path opacity="0.72" d="M689.707 388.585C750.249 423.196 783.586 483.608 812.997 536.905C854.812 612.685 890.925 678.124 989.525 645.333C1141.95 594.64 1212.81 614.418 1302.5 639.458C1327.5 646.435 1353.79 653.768 1383.59 660.157L1383.85 661.629C1353.71 655.193 1327.16 647.787 1301.92 640.743C1212.58 615.806 1142.01 596.102 990.207 646.586C971.84 652.695 955.624 655.464 941.115 655.447C876.464 655.361 845.846 599.881 811.397 537.449C782.079 484.309 748.842 424.087 688.681 389.69C619.626 350.212 525.716 350.969 401.589 392.018L400.91 390.758C525.653 349.513 620.121 348.796 689.707 388.585Z" fill="#3BB763"/>
</g>
<defs>
<clipPath id="clip0_330_638">
<rect width="1002.65" height="605.915" fill="white" transform="translate(244.883) rotate(23.8382)"/>
</clipPath>
</defs>
</svg>
